<?xml version="1.0" encoding="UTF-8"?> <svg xmlns="http://www.w3.org/2000/svg" xmlns:xlink="http://www.w3.org/1999/xlink" width="745px" height="453px" viewBox="0 0 745 453"><!-- Generator: Sketch 52.5 (67469) - http://www.bohemiancoding.com/sketch --><title>monitor-illustration</title><desc>Created with Sketch.</desc><defs><linearGradient x1="-11.0105862%" y1="-43.2625176%" x2="90.3605459%" y2="145.071681%" id="linearGradient-1"><stop stop-color="#80D57B" offset="0%"></stop><stop stop-color="#56C3A4" offset="100%"></stop></linearGradient><linearGradient x1="-11.0105862%" y1="-43.2625176%" x2="90.3605459%" y2="145.071681%" id="linearGradient-2"><stop stop-color="#FFFFFF" offset="0%"></stop><stop stop-color="#E9FDF7" offset="100%"></stop></linearGradient><linearGradient x1="-11.0105862%" y1="-43.2625176%" x2="90.3605459%" y2="145.071681%" id="linearGradient-3"><stop stop-color="#C8FFC4" offset="0%"></stop><stop stop-color="#75E6C6" offset="100%"></stop></linearGradient><linearGradient x1="57.6964029%" y1="-28.1753217%" x2="43.1413235%" y2="92.9334256%" id="linearGradient-4"><stop stop-color="#7ECC79" offset="0%"></stop><stop stop-color="#33BAAA" offset="100%"></stop></linearGradient><linearGradient x1="-11.0105862%" y1="-43.2625176%" x2="90.3605459%" y2="145.071681%" id="linearGradient-5"><stop stop-color="#8FDA8A" offset="0%"></stop><stop stop-color="#64DBB9" offset="100%"></stop></linearGradient><linearGradient x1="59.6008361%" y1="8.52746387%" x2="90.3605459%" y2="145.071681%" id="linearGradient-6"><stop stop-color="#C8FFC4" stop-opacity="0" offset="0%"></stop><stop stop-color="#A4FBCB" stop-opacity="0.264209692" offset="47.1581635%"></stop><stop stop-color="#7DF6D3" offset="100%"></stop></linearGradient><path d="M49.7045455,50.3654822 C48.3779373,27.8341597 41.4313723,13.182883 28.8648503,6.41165219 C16.2983283,-0.359578607 6.67671154,-1.76757792 0,2.18765425 C0.666443432,12.9004056 5.08627321,18.006122 13.2594893,17.5048033 C25.5193135,16.7528254 24.3034078,18.3134634 20.9138534,25.1827411 C17.5242989,32.0520188 34.5725611,28.0391717 36.7577566,34.210784 C38.2145536,38.3251921 42.5301499,43.7100916 49.7045455,50.3654822 Z" id="path-7"></path></defs><g id="Pages" stroke="none" stroke-width="1" fill="none" fill-rule="evenodd"><g id="Services" transform="translate(-65.000000, -4118.000000)"><g id="Retention" transform="translate(0.000000, 3838.000000)"><g id="monitor-illustration" transform="translate(66.000000, 281.000000)"><path d="M0,421 L645.93535,421" id="Path-145-Copy-2" stroke="#3FBDA1" stroke-width="1.7325" stroke-linecap="round" stroke-linejoin="round"></path><path d="M686,421.333333 L742.687239,421.333333" id="Path-145-Copy-3" stroke="#3FBDA1" stroke-width="1.7325" stroke-linecap="round" stroke-linejoin="round"></path><path d="M340,420 L13,420 C45.4489882,417.404448 62.8684249,413.385131 65.25831,407.942051 C68.8431377,399.77743 72.8224262,392.93556 83.2337694,391.867487 C93.6451127,390.799415 97.6502893,399.829533 107.751628,399.099977 C117.852967,398.370421 116.560626,386.427859 129.209465,384.854549 C141.858303,383.281238 143.764992,393.284452 152.388849,393.284452 C161.012707,393.284452 161.580372,351.560219 194.3648,349.101922 C227.149227,346.643624 222.798519,389.433989 236.498954,393.284452 C250.19939,397.134914 254.878949,390.00877 267.49717,400.905174 C275.909318,408.169443 300.076928,414.534385 340,420 Z" id="Path-113-Copy-3" fill="#D6F1EE"></path><path d="M224,156 L0,156 C22.2280531,154.208703 34.1606335,151.434809 35.7977414,147.678317 C38.2534032,142.043578 40.9792767,137.321724 48.111206,136.584604 C55.2431353,135.847483 57.9867425,142.079537 64.9063142,141.576041 C71.8258858,141.072544 70.9406124,132.830494 79.6052601,131.744689 C88.2699079,130.658883 89.5760188,137.562509 95.4834931,137.562509 C101.390967,137.562509 101.779827,108.766912 124.237661,107.07034 C146.695495,105.373769 143.715193,134.905147 153.100201,137.562509 C162.485209,140.21987 165.690778,135.301827 174.334453,142.821881 C180.096903,147.83525 196.652085,152.227956 224,156 Z" id="Path-113-Copy-4" fill="#D6F1EE"></path><g id="Group-89" transform="translate(193.000000, 72.000000)"><rect id="Rectangle-54" fill="#0D6574" x="0" y="0" width="325.302226" height="229.31292" rx="8.8935"></rect><path d="M46.0817605,-1.33226763e-15 C43.198714,26.0277701 24.6195212,47.3344292 8.8817842e-16,54.2836599 L0,8.8935 C-6.01515209e-16,3.98175558 3.98175558,9.02272813e-16 8.8935,0 L46.0817605,0 Z" id="Combined-Shape" fill="#05424C" opacity="0.400000006"></path><path d="M265.639809,0 L316.408726,0 C321.32047,-9.02272813e-16 325.302226,3.98175558 325.302226,8.8935 L325.302226,41.0498437 L275.803809,41.0498437 C270.190387,41.0498437 265.639809,36.4992659 265.639809,30.8858437 L265.639809,0 Z" id="Combined-Shape" fill="#05424C" opacity="0.400000006"></path><rect id="Rectangle-54-Copy" stroke="#FFFFFF" stroke-width="0.8781696" opacity="0.200000003" x="11.3642699" y="14.1551185" width="301.153152" height="205.249219" rx="8.8935"></rect><g id="Group-87" transform="translate(32.672276, 38.218820)" fill="url(#linearGradient-1)"><polygon id="Rectangle-62" points="0 60.8670097 7.10266869 60.8670097 7.10266869 107.578901 0 107.578901"></polygon><polygon id="Rectangle-62-Copy" points="22.7285398 45.2963793 29.8312085 45.2963793 29.8312085 107.578901 22.7285398 107.578901"></polygon><polygon id="Rectangle-62-Copy-2" points="45.4570796 66.5290571 52.5597483 66.5290571 52.5597483 107.578901 45.4570796 107.578901"></polygon><polygon id="Rectangle-62-Copy-3" points="68.1856194 41.0498437 75.2882881 41.0498437 75.2882881 107.578901 68.1856194 107.578901"></polygon><polygon id="Rectangle-62-Copy-4" points="90.9141592 0 98.0168279 0 98.0168279 107.578901 90.9141592 107.578901"></polygon><polygon id="Rectangle-62-Copy-5" points="113.642699 0 120.745368 0 120.745368 107.578901 113.642699 107.578901"></polygon></g><g id="Group-86" transform="translate(197.454190, 49.542915)" fill-rule="nonzero"><path d="M48.2981471,87.0539789 C52.427603,87.0539789 56.4794819,86.4362163 60.3506869,85.2347142 C77.1323351,80.0262103 88.7833586,64.4957855 88.7833586,46.7118911 L78.8396225,46.7118911 C78.8396225,60.1280213 70.0480828,71.8468496 57.3936278,75.7744006 C54.4770726,76.679609 51.4219954,77.145396 48.2981471,77.145396 L48.2981471,87.0539789 Z" id="Path" fill="#33BAAA"></path><path d="M4.02338609,27.8746255 C1.84751872,32.886121 0.710266869,38.3085329 0.710266869,43.8808674 C0.710266869,50.7656385 2.44714656,57.4109971 5.71104605,63.3168354 L14.4213202,58.5370219 C11.9615269,54.0861675 10.654003,49.0835382 10.654003,43.8808674 C10.654003,39.6682131 11.5105558,35.5841732 13.1496228,31.8090455 L4.02338609,27.8746255 Z" id="Path" fill="url(#linearGradient-1)"></path><path d="M8.55211353,66.1478592 C15.6195889,78.9360492 29.1142066,87.0539789 44.0365459,87.0539789 L44.0365459,77.145396 C32.7751856,77.145396 22.598495,71.0234249 17.2623877,61.3680456 L8.55211353,66.1478592 Z" id="Path" fill="url(#linearGradient-2)"></path><path d="M85.9422912,41.0498437 C85.9422912,36.3531465 85.1345418,31.7595228 83.5731035,27.4232277 C77.8490153,11.5267711 62.6827852,0.707755926 45.4570796,0.707755926 C29.159272,0.707755926 14.6454002,10.3941884 8.2849873,25.0436018 L17.4112241,28.9780218 C22.2107184,17.9237431 33.1599226,10.6163389 45.4570796,10.6163389 C58.4529431,10.6163389 69.8961414,18.779484 74.2136313,30.7696539 C75.3898254,34.0360813 75.998555,37.4978911 75.998555,41.0498437 L85.9422912,41.0498437 Z" id="Path" fill="url(#linearGradient-3)"></path></g><g id="Group-88" transform="translate(205.977392, 161.368351)" fill-rule="nonzero"><path d="M8.52320243,16.9861422 C3.81596771,16.9861422 0,13.1836648 0,8.49307111 C0,3.80247746 3.81596771,0 8.52320243,0 C13.2304371,0 17.0464049,3.80247746 17.0464049,8.49307111 C17.0464049,13.1836648 13.2304371,16.9861422 8.52320243,16.9861422 Z M8.52320243,14.7213233 C11.9751746,14.7213233 14.7735509,11.9328398 14.7735509,8.49307111 C14.7735509,5.05330243 11.9751746,2.26481896 8.52320243,2.26481896 C5.0712303,2.26481896 2.27285398,5.05330243 2.27285398,8.49307111 C2.27285398,11.9328398 5.0712303,14.7213233 8.52320243,14.7213233 Z" id="Oval-42" fill="url(#linearGradient-1)"></path><path d="M36.9338772,16.9861422 C32.2266425,16.9861422 28.4106748,13.1836648 28.4106748,8.49307111 C28.4106748,3.80247746 32.2266425,0 36.9338772,0 C41.6411119,0 45.4570796,3.80247746 45.4570796,8.49307111 C45.4570796,13.1836648 41.6411119,16.9861422 36.9338772,16.9861422 Z M36.9338772,14.7213233 C40.3858493,14.7213233 43.1842256,11.9328398 43.1842256,8.49307111 C43.1842256,5.05330243 40.3858493,2.26481896 36.9338772,2.26481896 C33.4819051,2.26481896 30.6835287,5.05330243 30.6835287,8.49307111 C30.6835287,11.9328398 33.4819051,14.7213233 36.9338772,14.7213233 Z" id="Oval-42-Copy" fill="url(#linearGradient-2)"></path><path d="M65.344552,16.9861422 C60.6373172,16.9861422 56.8213495,13.1836648 56.8213495,8.49307111 C56.8213495,3.80247746 60.6373172,0 65.344552,0 C70.0517867,0 73.8677544,3.80247746 73.8677544,8.49307111 C73.8677544,13.1836648 70.0517867,16.9861422 65.344552,16.9861422 Z M65.344552,14.7213233 C68.7965241,14.7213233 71.5949004,11.9328398 71.5949004,8.49307111 C71.5949004,5.05330243 68.7965241,2.26481896 65.344552,2.26481896 C61.8925798,2.26481896 59.0942035,5.05330243 59.0942035,8.49307111 C59.0942035,11.9328398 61.8925798,14.7213233 65.344552,14.7213233 Z" id="Oval-42-Copy-2" fill="#33BAAA"></path></g><polygon id="Rectangle-63" fill="#EDFFFD" points="34.0928097 169.861422 156.258711 169.861422 156.258711 172.692446 34.0928097 172.692446"></polygon><polygon id="Rectangle-63-Copy" fill="#EDFFFD" points="34.0928097 179.770005 156.258711 179.770005 156.258711 182.601029 34.0928097 182.601029"></polygon><polygon id="Rectangle-63-Copy-2" fill="#EDFFFD" points="34.0928097 189.678588 156.258711 189.678588 156.258711 192.509612 34.0928097 192.509612"></polygon><path d="M37.4355736,229.31292 L8.8935,229.31292 C3.98175558,229.31292 1.65942939e-15,225.331165 -1.42108547e-14,220.41942 L-1.19652666e-14,182.219238 L33.9705736,182.219238 C35.8842403,182.219238 37.4355736,183.770571 37.4355736,185.684238 L37.4355736,229.31292 Z" id="Combined-Shape" fill="#05424C" opacity="0.400000006"></path><polygon id="Rectangle-63-Copy-3" fill="#EDFFFD" points="34.0928097 199.587171 156.258711 199.587171 156.258711 202.418195 34.0928097 202.418195"></polygon><polygon id="Rectangle-63-Copy-4" fill="#EDFFFD" points="205.977392 199.587171 250.013938 199.587171 250.013938 202.418195 205.977392 202.418195"></polygon></g><g id="Group-92" transform="translate(457.000000, 35.000000)"><g id="Group-90" transform="translate(14.198166, 12.870740)"><rect id="Rectangle-61" fill="#9EE7CE" opacity="0.800000012" x="0" y="0" width="134.23721" height="51.4829587" rx="3.465"></rect><polygon id="Rectangle-64" fill="#FFFFFF" points="14.1981665 11.5836657 29.6870753 11.5836657 29.6870753 27.0285533 14.1981665 27.0285533"></polygon><polygon id="Rectangle-64-Copy" fill="#FFFFFF" points="38.7222722 11.5836657 120.039044 11.5836657 120.039044 15.4448876 38.7222722 15.4448876"></polygon><polygon id="Rectangle-64-Copy-2" fill="#FFFFFF" points="38.7222722 23.1673314 120.039044 23.1673314 120.039044 27.0285533 38.7222722 27.0285533"></polygon><polygon id="Rectangle-64-Copy-3" fill="#FFFFFF" points="14.1981665 34.7509972 120.039044 34.7509972 120.039044 38.6122191 14.1981665 38.6122191"></polygon></g><g id="Group-91"><polyline id="Path-95" stroke="#3FBDA1" stroke-width="1.155" points="81.187237 81.08566 81.187237 157.023024 0 157.023024"></polyline><ellipse id="Oval-43" stroke="#3FBDA1" stroke-width="5.6700001" cx="150.37149" cy="12.2272027" rx="12.2620529" ry="12.2272027"></ellipse><g id="Group-40" transform="translate(73.572317, 65.640772)"><ellipse id="Oval-14" fill="url(#linearGradient-4)" cx="8.01461126" cy="7.99183282" rx="3.49979439" ry="3.48984757"></ellipse><ellipse id="Oval-14-Copy" stroke="#3FBDA1" stroke-width="1.155" cx="8.01461126" cy="7.99183282" rx="7.67342504" ry="7.65161629"></ellipse></g></g></g><g id="Group-92-Copy" transform="translate(92.000000, 130.000000)"><g id="Group-90" transform="translate(0.000000, 137.733728)"><rect id="Rectangle-61" fill="#9EE7CE" opacity="0.800000012" x="0" y="0" width="129.227941" height="79.9763314" rx="3.465"></rect><path d="M19.3701597,10.3195266 L19.3982227,10.3195266 C23.6727106,10.3195266 27.1378676,13.7846837 27.1378676,18.0591716 C27.1378676,22.3336595 23.6727106,25.7988166 19.3982227,25.7988166 L19.3701597,25.7988166 C15.0956718,25.7988166 11.6305147,22.3336595 11.6305147,18.0591716 C11.6305147,13.7846837 15.0956718,10.3195266 19.3701597,10.3195266 Z M36.1838235,16.7692308 L117.597426,16.7692308 L117.597426,20.6390533 L36.1838235,20.6390533 L36.1838235,16.7692308 Z" id="Combined-Shape" fill="#FFFFFF"></path><path d="M19.3701597,32.2485207 L19.3982227,32.2485207 C23.6727106,32.2485207 27.1378676,35.7136778 27.1378676,39.9881657 C27.1378676,44.2626536 23.6727106,47.7278107 19.3982227,47.7278107 L19.3701597,47.7278107 C15.0956718,47.7278107 11.6305147,44.2626536 11.6305147,39.9881657 C11.6305147,35.7136778 15.0956718,32.2485207 19.3701597,32.2485207 Z M36.1838235,38.6982249 L117.597426,38.6982249 L117.597426,42.5680473 L36.1838235,42.5680473 L36.1838235,38.6982249 Z" id="Combined-Shape-Copy-3" fill="#FFFFFF"></path><path d="M19.3701597,54.1775148 L19.3982227,54.1775148 C23.6727106,54.1775148 27.1378676,57.6426719 27.1378676,61.9171598 C27.1378676,66.1916476 23.6727106,69.6568047 19.3982227,69.6568047 L19.3701597,69.6568047 C15.0956718,69.6568047 11.6305147,66.1916476 11.6305147,61.9171598 C11.6305147,57.6426719 15.0956718,54.1775148 19.3701597,54.1775148 Z M36.1838235,60.6272189 L117.597426,60.6272189 L117.597426,64.4970414 L36.1838235,64.4970414 L36.1838235,60.6272189 Z" id="Combined-Shape-Copy-4" fill="#FFFFFF"></path></g><path d="M49.8202484,217.710059 L20.8709519,217.710059 L42.9258464,196.200183 C43.6397717,205.218133 45.9379057,212.388092 49.8202484,217.710059 Z" id="Combined-Shape" fill="#05424C" opacity="0.200000003"></path><g id="Group-91" transform="translate(142.360294, 69.233728) scale(1, -1) translate(-142.360294, -69.233728) translate(56.860294, 0.733728)"><polyline id="Path-95" stroke="#3FBDA1" stroke-width="1.155" points="7.62398764 16.1242604 7.62398764 136.733728 170.580882 136.733728"></polyline><g id="Group-40"><ellipse id="Oval-14" fill="url(#linearGradient-4)" cx="8.024155" cy="8.00963402" rx="3.50396192" ry="3.49762095"></ellipse><ellipse id="Oval-14-Copy" stroke="#3FBDA1" stroke-width="1.155" cx="8.024155" cy="8.00963402" rx="7.6825625" ry="7.66865969"></ellipse></g></g></g><g id="Group-85" transform="translate(429.000000, 231.000000)"><path d="M74.5686254,151.969697 C67.7291118,193.029773 64.4982579,213.347028 64.8760639,212.921463 C64.9444943,212.844383 66.198213,212.844383 68.6372201,212.921463 L82.4214725,151.969697 L74.5686254,151.969697 Z" id="Path-164" fill="#1EA393"></path><path d="M103.024134,151.969697 C96.1846203,193.029773 92.9537664,213.347028 93.3315724,212.921463 C93.4000027,212.844383 94.6537215,212.844383 97.0927286,212.921463 L110.876981,151.969697 L103.024134,151.969697 Z" id="Path-164-Copy-2" fill="#1EA393" transform="translate(102.089444, 182.448854) scale(-1, 1) translate(-102.089444, -182.448854) "></path><path d="M46.1131169,151.969697 C39.2736033,193.029773 36.0427495,213.347028 36.4205554,212.921463 C36.4889858,212.844383 37.7427045,212.844383 40.1817116,212.921463 L53.9659641,151.969697 L46.1131169,151.969697 Z" id="Path-164-Copy" fill="#1EA393"></path><polygon id="Path-155" fill="url(#linearGradient-5)" points="54.1489856 84.4743301 80.5031205 69.0648989 83.0172095 51.4894596 57.2956818 72.3046683"></polygon><path d="M22.1631356,148.88576 L26.8399805,128.668587 C29.9698007,115.138927 39.8251695,104.162813 52.9409313,99.5994532 L80.0956853,90.1515152 L80.0956853,111.859246 C80.0956853,132.226056 63.619285,148.754648 43.2525766,148.819061 L22.1631356,148.88576 Z" id="Path-102-Copy" fill="url(#linearGradient-1)"></path><path d="M102.196667,57.9545455 L102.196667,57.9545455 C118.538593,57.9545455 131.786342,71.2022944 131.786342,87.5442209 L131.786342,111.304597 L72.6069915,119.215147 L72.6069915,87.5442209 C72.6069915,71.2022944 85.8547405,57.9545455 102.196667,57.9545455 Z" id="Rectangle-65" fill="#1EA393"></path><path d="M88.3683796,48.8872058 C94.7751447,52.6623813 98.2694085,56.9574036 98.8511712,61.7722728 C99.222664,64.8468759 97.1795,77.9146041 101.099944,96.7770691 C102.579293,103.894672 106.718766,115.213018 113.518364,130.732107 L82.1915737,133.478035 C71.6715843,120.509712 65.1876821,107.425648 62.7398672,94.2258426 C59.0681448,74.4261351 63.7342699,59.3362218 67.3911264,53.6668465 C69.8290308,49.8872631 73.1663274,47.9974713 77.4030164,47.9974713 L88.3683796,48.8872058 Z" id="Path-144" fill="url(#linearGradient-3)" transform="translate(87.460394, 90.737753) scale(-1, 1) translate(-87.460394, -90.737753) "></path><path d="M100.716438,48.4009452 C100.908825,57.4135141 93.5611857,59.8572661 88.1372455,59.1767364 C84.6166157,58.7350108 82.9667702,56.0482883 83.1877088,51.1165689 C84.2021551,50.3543282 85.3237215,49.6112072 86.5524079,48.8872058 L97.5177711,47.9974713 C98.6480007,47.9974713 99.714223,48.1319626 100.716438,48.4009452 Z" id="Combined-Shape" fill="#1EA393" opacity="0.400000006"></path><path d="M95.5410915,52.3168159 L98.6121847,39.7061449 L86.293871,36.6325163 L82.4000821,51.110333 C84.0378411,55.0851561 86.7273042,57.0725676 90.4684714,57.0725676 C94.2096385,57.0725676 95.9005119,55.487317 95.5410915,52.3168159 Z" id="Path-215" fill="#FFD7B3" transform="translate(90.506133, 46.852542) scale(-1, 1) translate(-90.506133, -46.852542) "></path><g id="Group-58" transform="translate(81.646933, 26.466361) scale(-1, 1) rotate(-9.000000) translate(-81.646933, -26.466361) translate(61.146933, 3.466361)"><path d="M36.8561318,15.7761445 L34.3893875,24.7647818 C33.2864134,28.7839395 31.8985985,32.7194413 30.2364749,36.5414205 L28.4755342,40.5906253 C26.7371381,44.5879898 22.2071105,46.5646701 18.0942917,45.1204869 L12.057749,43.0008035 C5.07637708,40.5493509 1.40415188,32.9025357 3.85560449,25.9211638 C3.98251221,25.5597495 4.12486128,25.203944 4.28225934,24.8547282 C7.16952634,18.4487961 9.38172463,14.7166442 10.9188497,13.6582705 C12.1734606,12.7944195 14.3468976,7.00442681 18.5993808,8.01829115 C21.2058022,8.63970636 27.2913858,11.2256575 36.8561318,15.7761445 Z" id="Path-214" fill="#FFD7B3"></path><path d="M3.91195815,37.1969106 C0.273258886,33.893731 -0.745896462,30.1023945 0.854492106,25.8229011 C2.75540511,20.7397952 -2.88419385,10.4661319 6.58228287,3.86023944 C16.0487596,-2.74565298 22.7255271,0.92838025 30.4164255,4.44869736 C38.107324,7.96901446 43.0891321,17.6083457 37.9573764,19.2119487 C35.4415027,19.9981246 32.5262814,20.2613545 30.0943925,19.3827616 C19.8591961,15.6849896 16.799163,17.8768366 16.295955,19.9704167 C15.3782188,23.7886273 11.2502199,29.530792 3.91195815,37.1969106 Z" id="Path-216" fill="#0B4651"></path><path d="M11.934322,28.3333333 C14.0773507,28.3333333 15.8146186,26.6035244 15.8146186,24.469697 C15.8146186,22.3358695 14.0773507,20.6060606 11.934322,20.6060606 C9.79129339,20.6060606 9.63719269,22.5031305 9.63719269,24.636958 C9.63719269,26.7707854 9.79129339,28.3333333 11.934322,28.3333333 Z" id="Oval-27" fill="#FFD7B3"></path></g><polygon id="Rectangle-66" fill="#1EA393" points="22.1631356 144.242424 85.5413136 144.242424 73.9884023 154.057493 22.1631356 153.257576"></polygon><path d="M94.9373165,144.978201 L44.8350635,154.545034 L28.5155603,212.924815 C22.1403992,212.924815 19.2432966,212.924815 19.8242527,212.924815 C20.4052088,212.924815 22.4239431,196.877896 25.8804557,164.784056 C9.63870765,157.24644 1.51874425,153.462737 1.52056556,153.432946 C1.52056556,153.432946 1.52056556,153.432946 1.52056556,153.432946 L1.52056556,153.432946 C2.1068551,143.843018 9.07781288,135.850449 18.4990694,133.966202 L58.5334141,125.959371 C78.5300903,125.786354 89.798044,126.363142 92.3372751,127.689736 C94.8765063,129.01633 95.7431867,134.779152 94.9373165,144.978201 Z" id="Path-99" fill="#0B4651"></path><polygon id="Path-107" fill="url(#linearGradient-3)" points="100.537201 68.1658756 92.2284451 101.891518 61.6366308 109.511742 61.6366308 117.25632 106.606856 113.475964 111.601566 76.382998"></polygon><path d="M73.9004237,154.037275 L78.5772686,133.820102 C81.7070889,120.290443 91.5624576,109.314328 104.678219,104.750968 L131.832973,95.3030303 L131.832973,117.010761 C131.832973,137.377572 115.356573,153.906163 94.9898647,153.970576 L73.9004237,154.037275 Z" id="Path-102" fill="url(#linearGradient-1)"></path><polyline id="Path-108" stroke="#1EA393" stroke-width="1.155" points="99.6542307 69.9662044 93.355804 101.40925 62.4601804 109.231413"></polyline><path d="M62.2107116,117.059352 L90.478211,115.057992" id="Path-150" stroke="#33BAAA" stroke-width="1.155"></path><path d="M63.3325472,60.8357326 C55.1671783,68.0136226 50.3008403,73.7312588 48.733533,77.9886412 C47.6954329,80.8085026 48.3420976,84.6917313 53.1541696,84.7656487 C56.3622176,84.8149269 60.7597719,80.051771 66.3468323,70.4761809 C67.5952824,69.049296 68.2020647,68.2800673 68.1671793,68.1684947 C68.1322938,68.0569221 66.5207498,65.6126681 63.3325472,60.8357326 Z" id="Path-151" fill="url(#linearGradient-3)"></path><polygon id="Rectangle-67" fill="#0D6574" points="14.4025424 91.4393939 54.4989407 91.4393939 60.8315212 119.772727 20.7351229 119.772727"></polygon><ellipse id="Oval-44" fill="url(#linearGradient-3)" transform="translate(35.787664, 105.316892) rotate(-25.000000) translate(-35.787664, -105.316892) " cx="35.7876644" cy="105.316892" rx="3.23358051" ry="3.86363636"></ellipse><path d="M64.2468287,111.13671 L59.8839034,109.367698 L59.3802483,113.95307 C51.1191211,111.985067 46.8342272,111.275378 46.5255665,111.824003 C46.0625755,112.646942 48.6091283,119.082459 52.3822534,120.120042 C54.8976702,120.811763 58.3249706,120.777897 62.6641547,120.018443 L64.2468287,111.13671 Z" id="Path-152" fill="#FFD7B3" transform="translate(55.359067, 114.991158) rotate(-18.000000) translate(-55.359067, -114.991158) "></path><polyline id="Path-154" stroke="#1EA393" stroke-width="1.155" transform="translate(69.020081, 62.686004) rotate(6.000000) translate(-69.020081, -62.686004) " points="70.0946226 57.0971735 64.6657001 58.9067744 67.3667219 68.2748346 73.3744627 66.2319399"></polyline><path d="M68.1335333,57.9545455 L60.9661017,60.6469432 C61.9135014,66.9082292 63.1080734,69.9767851 64.5498175,69.8526109 C65.9915616,69.7284368 67.7125343,69.0084681 69.7127357,67.6927048 L68.1335333,57.9545455 Z" id="Path-153" fill="#FFD7B3"></path><polygon id="Path-156" fill="#0B4651" points="37.7826401 168.068029 48.5324116 172.592486 52.5289999 162.292189 44.039797 155.304433"></polygon><path d="M24.8470063,143.387723 L44.7981992,156.477273" id="Path-157" stroke="#33BAAA" stroke-width="1.155"></path><path d="M29.7595086,145.9348 C38.6872154,140.506642 46.072895,137.390651 51.9165472,136.586827" id="Path-158" stroke="#33BAAA" stroke-width="1.155"></path><path d="M19.9787769,212.000032 C6.74189091,214.411393 0.0826681342,217.140541 0.0011085607,220.187478 C6.05277865,220.416198 15.4282663,220.639602 28.1275716,220.85769 L28.5327961,212.787997 L19.9787769,212.000032 Z" id="Path-159" fill="#33BAAA"></path><path d="M48.125024,172.575758 C49.0010754,174.014909 49.463118,175.444541 49.5111518,176.864654 C49.5832026,178.994823 50.6460706,183.962181 55.1739087,184.012857 C59.7017468,184.063533 62.3623754,174.005042 62.2190655,169.907896 C62.1235256,167.176465 58.9057844,164.691268 52.5658417,162.452304 L48.125024,172.575758 Z" id="Path-160" fill="#33BAAA"></path><path d="M40.4823254,169.22872 L26.0863188,164.332342" id="Path-161" stroke="#33BAAA" stroke-width="1.155"></path><path d="M15.1703096,25.6853935 C6.21800981,40.6090995 10.1974932,46.0303953 27.1087598,41.9492809 C52.4756596,35.8276094 53.6550143,36.1549295 45.0501378,43.9624305 C36.4452612,51.7699315 63.1487809,41.9812273 57.5913771,46.7192513 C52.0339734,51.4572753 77.6495904,48.9495204 74.612111,54.9250762 C72.5871248,58.9087801 72.889729,60.1617836 75.5199236,58.6840866 C77.7638524,53.5628085 77.006875,50.0250971 73.2489914,48.0709524 C67.6121661,45.1397354 79.5348643,39.0971444 68.9812672,37.0672361 C58.4276702,35.0373277 75.5290733,27.8891803 63.8104517,27.5110601 C55.9980373,27.25898 39.7846566,26.6504245 15.1703096,25.6853935 Z" id="Path-162" fill="url(#linearGradient-6)"></path><path d="M69.7850904,54.3683031 L84.0128446,54.3683031 L84.0128446,65.0699698 C84.0128446,66.9836364 82.4615113,68.5349698 80.5478446,68.5349698 L73.2500904,68.5349698 C71.3364237,68.5349698 69.7850904,66.9836364 69.7850904,65.0699698 L69.7850904,54.3683031 Z" id="Rectangle-68" fill="#33BAAA" transform="translate(76.898967, 61.451636) rotate(-7.000000) translate(-76.898967, -61.451636) "></path></g><g id="Group-91" transform="translate(319.000000, 301.000000)"><polyline id="Path-95" stroke="#3FBDA1" stroke-width="1.155" points="7.58556651 15.5059829 7.58556651 46.859664 130.885762 46.859664"></polyline><g id="Group-40" transform="translate(0.000000, 0.000000)"><ellipse id="Oval-14" fill="url(#linearGradient-4)" cx="7.98371722" cy="8.02344608" rx="3.48630368" ry="3.50365235"></ellipse><ellipse id="Oval-14-Copy" stroke="#3FBDA1" stroke-width="1.155" cx="7.98371722" cy="8.02344608" rx="7.64384617" ry="7.68188376"></ellipse></g></g><g id="Group-36" transform="translate(54.000000, 315.000000)"><g id="Path-44" transform="translate(0.000000, 47.908629)"><mask id="mask-8" fill="white"><use xlink:href="#path-7"></use></mask><use id="Mask" fill="#33BAAA" xlink:href="#path-7"></use><path d="M51.5730177,16.89566 C32.2060811,-0.990651474 20.7253703,-6.6114476 17.1308854,0.0332715895 C30.0060529,11.1332934 38.5903428,27.5050729 42.8837552,49.14861 C54.590511,54.4021849 61.3777348,55.5387646 63.2454265,52.5583493 C65.1131182,49.5779339 62.2358549,43.7285349 54.6136364,35.0101523 L51.5730177,16.89566 Z" fill="#25877C" mask="url(#mask-8)"></path><path d="M47.8636364,47.2944162 C41.8698472,14.9426087 26.3243927,-0.138595859 1.22727273,2.0508025" id="Path-38" stroke="#0D6574" stroke-width="0.74064375" mask="url(#mask-8)"></path><path d="M25.1590909,6.36898272 C19.8956821,5.66130239 15.1911366,6.60937414 11.0454545,9.21319797" id="Path-45" stroke="#0D6574" stroke-width="0.74064375" mask="url(#mask-8)"></path><path d="M36.2045455,16.7317699 C32.7038395,16.2310729 28.6129305,17.000686 23.9318182,19.0406091" id="Path-46" stroke="#0D6574" stroke-width="0.74064375" mask="url(#mask-8)"></path><path d="M40.5012222,23.3401015 C40.4687848,20.4609821 41.0820138,18.8230802 42.3409091,18.4263959" id="Path-47" stroke="#0D6574" stroke-width="0.74064375" mask="url(#mask-8)"></path></g><g id="Group-10" transform="translate(61.650385, 53.734919) rotate(14.000000) translate(-61.650385, -53.734919) translate(26.150385, 7.234919)"><path d="M34.5677782,92.6261671 C26.3054682,68.7905351 3.81626189,59.938342 5.29236906,51.5607092 C6.46773383,44.8899371 16.0914787,50.8538983 16.6011015,48.624606 C17.1107244,46.3953136 2.96735751,24.8503055 15.3475337,24.8568003 C27.7277099,24.8632952 22.8886079,6.88777564 43.2813163,0.180848357 C39.3714605,4.503476 40.8715618,13.2858202 51.9258428,28.2106854 C62.9801239,43.1355507 44.4465013,44.3507269 43.7918816,49.8377059 C43.1372619,55.3246848 53.5494355,40.990235 55.1786159,51.5607092 C56.2647363,58.607692 36.8353368,66.7723834 34.5677782,92.6261671 Z" id="Combined-Shape" fill="#33BAAA"></path><path d="M1.08099636,73.0897755 C31.3078624,64.0981114 54.3691063,50.2187786 70.2647278,31.4517774" id="Path-117" stroke="#0D6574" stroke-width="1.3167" transform="translate(35.672862, 52.270776) scale(-1, 1) rotate(-60.000000) translate(-35.672862, -52.270776) "></path><path d="M35.3546987,56.1969405 C38.1145396,51.8777748 39.4452101,45.088481 39.3467102,35.8290592" id="Path-118" stroke="#0D6574" stroke-width="1.3167" transform="translate(37.353250, 46.013000) scale(-1, 1) rotate(-60.000000) translate(-37.353250, -46.013000) "></path><path d="M10.4746533,57.9045536 C21.3514178,56.8826682 28.7368884,60.0748815 32.6310652,67.4811937" id="Path-119" stroke="#0D6574" stroke-width="1.3167" transform="translate(21.552859, 62.599949) scale(-1, 1) rotate(-60.000000) translate(-21.552859, -62.599949) "></path><path d="M36.2598379,23.2150409 L36.4149508,16.4860587" id="Path-120" stroke="#0D6574" stroke-width="1.3167" transform="translate(36.337394, 19.850550) scale(-1, 1) rotate(-60.000000) translate(-36.337394, -19.850550) "></path><path d="M22.749233,29.8142014 C27.2771335,33.7721441 29.806504,37.8426329 30.3373444,42.0256676" id="Path-82" stroke="#0D6574" stroke-width="1.3167"></path></g><polygon id="Rectangle-48" fill="url(#linearGradient-1)" points="35.5909091 95.2030457 61.3636364 95.2030457 57.476171 120.385787 39.4783745 120.385787"></polygon><path d="M59.4673118,107.48731 L37.4872337,107.48731 L35.5909091,95.2030457 L61.3636364,95.2030457 L59.4673118,107.48731 Z" id="Combined-Shape" fill="#0D6574" opacity="0.400000006"></path></g><g id="Group-82" transform="translate(169.500000, 57.500000) scale(-1, 1) translate(-169.500000, -57.500000) translate(112.000000, 0.000000)"><ellipse id="Oval-41" fill="#9EE7CE" opacity="0.699999988" cx="57.47759" cy="57.4264492" rx="48.4361713" ry="48.3930752"></ellipse><ellipse id="Oval-41-Copy-2" stroke="#6CCC8F" stroke-width="1.064448" opacity="0.800000012" cx="57.47759" cy="57.4264492" rx="57.47759" ry="57.4264492"></ellipse><g id="Group-33" transform="translate(52.078210, 58.510670) scale(-1, 1) rotate(-338.000000) translate(-52.078210, -58.510670) translate(28.078210, 35.510670)"><path d="M31.8872325,29.6122361 L29.36693,37.9529405 C31.3800674,39.0519769 32.510887,39.4540297 32.7593889,39.1590989 C33.0078908,38.8641681 34.9134648,35.6818806 38.4761111,29.6122361 L32.3021692,29.6122361 L31.8872325,29.6122361 Z" id="Path-44" fill="#64B35F"></path><path d="M29.9248761,30.3272287 L6.7785587,43.4881015 L6.7785587,2.39809604 L29.9222152,15.6459072 L39.8806673,15.6459072 C43.9317052,15.6459072 47.2157204,18.932433 47.2157204,22.986568 C47.2157204,27.0407029 43.9317052,30.3272287 39.8806673,30.3272287 L29.9248761,30.3272287 Z" id="Combined-Shape" fill="#0D6574"></path><path d="M4.33855499,0 L4.33855499,0 C6.48136461,-3.93627741e-16 8.21845502,1.73709041 8.21845502,3.87990003 L8.21845502,41.161348 C8.21845502,43.3041576 6.48136461,45.041248 4.33855499,45.041248 L4.33855499,45.041248 C2.19574537,45.041248 0.458654957,43.3041576 0.458654957,41.161348 L0.458654957,3.87990003 C0.458654957,1.73709041 2.19574537,3.93627741e-16 4.33855499,0 Z" id="Rectangle-16" fill="#64B35F"></path></g></g><g id="Group-24" opacity="0.5" transform="translate(600.500000, 295.500000) scale(-1, 1) translate(-600.500000, -295.500000) translate(561.000000, 171.000000)"><path d="M60.8688525,14.4783783 L60.8688525,14.4783783 C60.8688525,6.48219077 54.3866617,2.08383786e-15 46.3904741,3.55271368e-15 L44.0327869,0 C34.7344846,1.70807042e-15 27.1967213,7.53776331 27.1967213,16.8360656 L27.1967213,245.129534" id="Path-52" stroke="#83D59C" stroke-width="4.62"></path><ellipse id="Oval-20" fill="#FFDE87" cx="60.8688525" cy="56.7668394" rx="5.18032787" ry="5.16062176"></ellipse><path d="M60.8688525,10.3212435 L60.8688525,10.3212435 C70.8824087,10.3212435 79,18.4388348 79,28.4523911 L79,56.7668394 L42.7377049,56.7668394 L42.7377049,28.4523911 C42.7377049,18.4388348 50.8552962,10.3212435 60.8688525,10.3212435 Z" id="Rectangle-12" fill="#2EAD9E"></path><rect id="Rectangle-13" fill="#2EAD9E" x="0" y="242.549223" width="53.0983607" height="6.4507772" rx="3.2253886"></rect></g><ellipse id="Oval-29-Copy" stroke="#3FBDA1" stroke-width="1.7325" stroke-linecap="round" stroke-linejoin="round" cx="646.5" cy="437" rx="9.5" ry="3"></ellipse><g id="Group-36-Copy" transform="translate(611.500000, 387.000000) scale(-1, 1) translate(-611.500000, -387.000000) translate(574.000000, 340.000000)"><g id="Group-10" transform="translate(37.332469, 44.366810) rotate(14.000000) translate(-37.332469, -44.366810) translate(8.332469, 6.866810)"><path d="M27.7403496,74.8197147 C21.1099157,55.566244 3.06251789,48.4157964 4.2470814,41.6486795 C5.19030169,36.2602965 12.9132755,41.077746 13.3222435,39.2770127 C13.7312116,37.4762794 2.3812793,20.0730833 12.316266,20.0783295 C22.2512527,20.0835758 18.3679142,5.56366979 34.7328902,0.146082072 C31.5952641,3.63772787 32.7990826,10.7317544 41.6700497,22.7874638 C50.5410167,34.8431733 35.6679414,35.8247441 35.1426146,40.2569063 C34.6172878,44.6890685 42.972969,33.110273 44.2803726,41.6486795 C45.1519749,47.3409505 29.5600463,53.9360617 27.7403496,74.8197147 Z" id="Combined-Shape" fill="#33BAAA"></path><path d="M0.867490434,59.0389986 C25.1242948,51.7758917 43.6307479,40.5647217 56.3868498,25.4054883" id="Path-117" stroke="#0D6574" stroke-width="1.05336" transform="translate(28.627170, 42.222243) scale(-1, 1) rotate(-60.000000) translate(-28.627170, -42.222243) "></path><path d="M28.3718467,45.3936418 C30.5865956,41.9047924 31.6544475,36.4206724 31.5754021,28.9412816" id="Path-118" stroke="#0D6574" stroke-width="1.05336" transform="translate(29.975667, 37.167462) scale(-1, 1) rotate(-60.000000) translate(-29.975667, -37.167462) "></path><path d="M8.4058207,46.7729834 C17.1343322,45.9475452 23.0611099,48.5260875 26.1861538,54.5086104" id="Path-119" stroke="#0D6574" stroke-width="1.05336" transform="translate(17.295987, 50.565736) scale(-1, 1) rotate(-60.000000) translate(-17.295987, -50.565736) "></path><path d="M29.0982132,18.7521819 L29.22269,13.3167791" id="Path-120" stroke="#0D6574" stroke-width="1.05336" transform="translate(29.160452, 16.034481) scale(-1, 1) rotate(-60.000000) translate(-29.160452, -16.034481) "></path><path d="M18.256067,24.0827199 C21.8896689,27.2797878 23.9194673,30.5677659 24.3454623,33.9466541" id="Path-82" stroke="#0D6574" stroke-width="1.05336"></path></g><polygon id="Rectangle-48" fill="url(#linearGradient-1)" points="16.4641148 68.1142132 42.4880383 68.1142132 38.5626834 93.3836717 20.3894697 93.3836717"></polygon><path d="M40.573231,80.4407783 L18.3789221,80.4407783 L16.4641148,68.1142132 L42.4880383,68.1142132 L40.573231,80.4407783 Z" id="Combined-Shape" fill="#0D6574" opacity="0.400000006"></path></g></g></g></g></g></svg> 