<?xml version="1.0" encoding="utf-8"?>
<!-- Generator: Adobe Illustrator 23.0.2, SVG Export Plug-In . SVG Version: 6.00 Build 0)  -->
<svg version="1.1" xmlns="http://www.w3.org/2000/svg" xmlns:xlink="http://www.w3.org/1999/xlink" x="0px" y="0px"
	 viewBox="0 0 1920 1080" style="enable-background:new 0 0 1920 1080;" xml:space="preserve">
<style type="text/css">
	.st0{fill-rule:evenodd;clip-rule:evenodd;fill:url(#SVGID_1_);}
	.st1{fill:#FFFFFF;}
	.st2{fill-rule:evenodd;clip-rule:evenodd;fill:url(#SVGID_2_);}
	.st3{fill-rule:evenodd;clip-rule:evenodd;fill:#272348;}
	.st4{fill-rule:evenodd;clip-rule:evenodd;fill:url(#SVGID_3_);}
	.st5{fill-rule:evenodd;clip-rule:evenodd;fill:url(#SVGID_4_);}
	.st6{fill:url(#SVGID_5_);}
	.st7{fill:url(#SVGID_6_);}
	.st8{fill:url(#SVGID_7_);}
	.st9{opacity:0.2;fill:none;stroke:#FFFFFF;stroke-miterlimit:10;}
	.st10{opacity:0.4;fill:#FFFFFF;}
	.st11{fill:url(#SVGID_8_);}
	.st12{fill:url(#SVGID_9_);}
	.st13{fill:url(#SVGID_10_);}
	.st14{clip-path:url(#SVGID_12_);}
	.st15{fill-rule:evenodd;clip-rule:evenodd;fill:url(#SVGID_13_);}
	.st16{fill:none;stroke:url(#SVGID_14_);stroke-miterlimit:10;}
	.st17{fill:none;stroke:url(#SVGID_15_);stroke-miterlimit:10;}
	.st18{fill:none;stroke:url(#SVGID_16_);stroke-miterlimit:10;}
	.st19{fill:none;stroke:url(#SVGID_17_);stroke-miterlimit:10;}
	.st20{fill:none;stroke:url(#SVGID_18_);stroke-miterlimit:10;}
	.st21{fill:none;stroke:url(#SVGID_19_);stroke-miterlimit:10;}
	.st22{filter:url(#Adobe_OpacityMaskFilter);}
	.st23{fill-rule:evenodd;clip-rule:evenodd;fill:#FFFFFF;}
	.st24{mask:url(#mask-3_1_);}
	.st25{fill:#080A23;}
	.st26{fill:url(#SVGID_20_);}
	.st27{fill:#272348;}
	.st28{fill:#090C2F;}
	.st29{fill-rule:evenodd;clip-rule:evenodd;fill:#090C2F;}
	.st30{fill-rule:evenodd;clip-rule:evenodd;fill:#080A23;}
	.st31{fill:#333A61;}
	.st32{fill-rule:evenodd;clip-rule:evenodd;fill:url(#SVGID_21_);}
	.st33{fill-rule:evenodd;clip-rule:evenodd;fill:url(#SVGID_22_);}
	.st34{fill-rule:evenodd;clip-rule:evenodd;fill:none;stroke:url(#SVGID_23_);stroke-width:0.5;stroke-miterlimit:10;}
	.st35{fill-rule:evenodd;clip-rule:evenodd;fill:url(#SVGID_24_);}
	.st36{fill-rule:evenodd;clip-rule:evenodd;fill:url(#SVGID_25_);}
	.st37{fill-rule:evenodd;clip-rule:evenodd;fill:url(#SVGID_26_);}
	.st38{fill-rule:evenodd;clip-rule:evenodd;fill:none;stroke:url(#SVGID_27_);stroke-width:0.5;stroke-miterlimit:10;}
	.st39{fill-rule:evenodd;clip-rule:evenodd;fill:none;stroke:url(#SVGID_28_);stroke-width:0.5;stroke-miterlimit:10;}
	.st40{fill-rule:evenodd;clip-rule:evenodd;fill:none;stroke:url(#SVGID_29_);stroke-width:0.5;stroke-miterlimit:10;}
	.st41{fill:#39D176;}
	.st42{opacity:0.25;fill:#FFA084;}
	.st43{fill:url(#SVGID_30_);}
	.st44{fill:#FF4D00;}
	.st45{fill:url(#SVGID_31_);}
	.st46{fill:none;stroke:url(#SVGID_32_);stroke-miterlimit:10;}
	.st47{fill:none;stroke:url(#SVGID_33_);stroke-miterlimit:10;}
	.st48{fill:none;stroke:url(#SVGID_34_);stroke-miterlimit:10;}
	.st49{fill:none;stroke:url(#SVGID_35_);stroke-miterlimit:10;}
	.st50{fill:url(#SVGID_36_);}
	.st51{fill:none;stroke:url(#SVGID_37_);stroke-miterlimit:10;}
	.st52{fill:none;stroke:url(#SVGID_38_);stroke-miterlimit:10;}
	.st53{fill:url(#SVGID_39_);}
	.st54{display:none;}
	.st55{display:inline;}
</style>
<g id="BG">
	<linearGradient id="SVGID_1_" gradientUnits="userSpaceOnUse" x1="960" y1="1080" x2="960" y2="-2.2644">
		<stop  offset="0" style="stop-color:#195E4B"/>
		<stop  offset="5.363910e-02" style="stop-color:#1D664C"/>
		<stop  offset="0.1383" style="stop-color:#277D50"/>
		<stop  offset="0.2432" style="stop-color:#39A256"/>
		<stop  offset="0.3634" style="stop-color:#50D55E"/>
		<stop  offset="0.3859" style="stop-color:#55DF60"/>
		<stop  offset="0.6498" style="stop-color:#00DA9D"/>
		<stop  offset="1" style="stop-color:#195E4B"/>
	</linearGradient>
	<rect y="-2.3" class="st0" width="1920" height="1082.3"/>
</g>
<g id="Stars">
	<g>
		<g>
			<g>
				<path class="st1" d="M231.3,175.8c1.9,0,1.9-3,0-3C229.4,172.8,229.4,175.8,231.3,175.8L231.3,175.8z"/>
			</g>
		</g>
		<g>
			<g>
				<path class="st1" d="M213.9,154.9c1.9,0,1.9-3,0-3C212,151.9,212,154.9,213.9,154.9L213.9,154.9z"/>
			</g>
		</g>
		<g>
			<g>
				<path class="st1" d="M252.9,96.4c1.9,0,1.9-3,0-3C251,93.4,251,96.4,252.9,96.4L252.9,96.4z"/>
			</g>
		</g>
		<g>
			<g>
				<path class="st1" d="M125.4,29.8c1.9,0,1.9-3,0-3C123.5,26.8,123.5,29.8,125.4,29.8L125.4,29.8z"/>
			</g>
		</g>
		<g>
			<g>
				<path class="st1" d="M60.2,170.4c1.9,0,1.9-3,0-3C58.3,167.4,58.3,170.4,60.2,170.4L60.2,170.4z"/>
			</g>
		</g>
		<g>
			<g>
				<path class="st1" d="M199.1,302.2c1.9,0,1.9-3,0-3C197.1,299.2,197.1,302.2,199.1,302.2L199.1,302.2z"/>
			</g>
		</g>
		<g>
			<g>
				<path class="st1" d="M136.7,206.9c1.4,0,1.5-2.2,0-2.2C135.3,204.7,135.3,206.9,136.7,206.9L136.7,206.9z"/>
			</g>
		</g>
		<g>
			<g>
				<path class="st1" d="M114.1,90.4c1.4,0,1.5-2.2,0-2.2C112.6,88.1,112.6,90.4,114.1,90.4L114.1,90.4z"/>
			</g>
		</g>
		<g>
			<g>
				<path class="st1" d="M300.7,174.7c1.4,0,1.5-2.2,0-2.2C299.3,172.4,299.3,174.7,300.7,174.7L300.7,174.7z"/>
			</g>
		</g>
		<g>
			<g>
				<path class="st1" d="M109.4,163.7c1,0,1-1.5,0-1.5C108.5,162.2,108.5,163.7,109.4,163.7L109.4,163.7z"/>
			</g>
		</g>
		<g>
			<g>
				<path class="st1" d="M186.3,88.9c1,0,1-1.5,0-1.5C185.3,87.4,185.3,88.9,186.3,88.9L186.3,88.9z"/>
			</g>
		</g>
		<g>
			<g>
				<path class="st1" d="M224.2,232.7c0.1,0,0.2,0,0.4,0c1,0,1-1.5,0-1.5c-0.1,0-0.2,0-0.4,0C223.2,231.2,223.2,232.7,224.2,232.7
					L224.2,232.7z"/>
			</g>
		</g>
		<g>
			<g>
				<path class="st1" d="M260,159.8c1,0,1-1.5,0-1.5C259,158.3,259,159.8,260,159.8L260,159.8z"/>
			</g>
		</g>
		<g>
			<g>
				<path class="st1" d="M16.6,277.3c0.5,0,0.5-0.8,0-0.8C16.2,276.6,16.2,277.3,16.6,277.3L16.6,277.3z"/>
			</g>
		</g>
		<g>
			<g>
				<path class="st1" d="M0,60.6c0.5,0,0.5-0.8,0-0.8C-0.5,59.8-0.5,60.6,0,60.6L0,60.6z"/>
			</g>
		</g>
		<g>
			<g>
				<path class="st1" d="M287.3,34.4c0.5,0,0.5-0.8,0-0.8C286.8,33.6,286.8,34.4,287.3,34.4L287.3,34.4z"/>
			</g>
		</g>
		<g>
			<g>
				<path class="st1" d="M287.6,277.7c0.5,0,0.5-0.8,0-0.8C287.1,276.9,287.1,277.7,287.6,277.7L287.6,277.7z"/>
			</g>
		</g>
		<g>
			<g>
				<path class="st1" d="M138.1,260c0.5,0,0.5-0.8,0-0.8C137.7,259.2,137.7,260,138.1,260L138.1,260z"/>
			</g>
		</g>
		<g>
			<g>
				<path class="st1" d="M179.6,148.4c0.5,0,0.5-0.8,0-0.8C179.1,147.7,179.1,148.4,179.6,148.4L179.6,148.4z"/>
			</g>
		</g>
		<g>
			<g>
				<path class="st1" d="M295.4,126.8c0.5,0,0.5-0.8,0-0.8C294.9,126.1,294.9,126.8,295.4,126.8L295.4,126.8z"/>
			</g>
		</g>
		<g>
			<g>
				<path class="st1" d="M53.1,116.2c0.5,0,0.5-0.8,0-0.8C52.6,115.4,52.6,116.2,53.1,116.2L53.1,116.2z"/>
			</g>
		</g>
	</g>
	<g>
		<g>
			<g>
				<path class="st1" d="M699.9,90.5c1.9,0,1.9-3,0-3C697.9,87.5,697.9,90.5,699.9,90.5L699.9,90.5z"/>
			</g>
		</g>
		<g>
			<g>
				<path class="st1" d="M679,107.9c1.9,0,1.9-3,0-3C677,104.9,677,107.9,679,107.9L679,107.9z"/>
			</g>
		</g>
		<g>
			<g>
				<path class="st1" d="M620.5,68.9c1.9,0,1.9-3,0-3C618.6,65.9,618.6,68.9,620.5,68.9L620.5,68.9z"/>
			</g>
		</g>
		<g>
			<g>
				<path class="st1" d="M553.9,196.4c1.9,0,1.9-3,0-3C552,193.4,552,196.4,553.9,196.4L553.9,196.4z"/>
			</g>
		</g>
		<g>
			<g>
				<path class="st1" d="M694.5,261.6c1.9,0,1.9-3,0-3C692.6,258.6,692.6,261.6,694.5,261.6L694.5,261.6z"/>
			</g>
		</g>
		<g>
			<g>
				<path class="st1" d="M826.3,122.8c1.9,0,1.9-3,0-3C824.4,119.8,824.4,122.8,826.3,122.8L826.3,122.8z"/>
			</g>
		</g>
		<g>
			<g>
				<path class="st1" d="M731.4,184.7c1.4,0,1.5-2.2,0-2.2C729.9,182.5,729.9,184.7,731.4,184.7L731.4,184.7z"/>
			</g>
		</g>
		<g>
			<g>
				<path class="st1" d="M614.9,207.4c1.4,0,1.5-2.2,0-2.2C613.4,205.1,613.4,207.4,614.9,207.4L614.9,207.4z"/>
			</g>
		</g>
		<g>
			<g>
				<path class="st1" d="M699.2,20.7c1.4,0,1.5-2.2,0-2.2C697.7,18.5,697.7,20.7,699.2,20.7L699.2,20.7z"/>
			</g>
		</g>
		<g>
			<g>
				<path class="st1" d="M688.5,211.6c1,0,1-1.5,0-1.5C687.6,210.1,687.6,211.6,688.5,211.6L688.5,211.6z"/>
			</g>
		</g>
		<g>
			<g>
				<path class="st1" d="M613.8,134.8c1,0,1-1.5,0-1.5C612.8,133.3,612.8,134.8,613.8,134.8L613.8,134.8z"/>
			</g>
		</g>
		<g>
			<g>
				<path class="st1" d="M758.3,96.1c0-0.1,0-0.2,0-0.4c0-1-1.5-1-1.5,0c0,0.1,0,0.2,0,0.4C756.8,97.1,758.3,97.1,758.3,96.1
					L758.3,96.1z"/>
			</g>
		</g>
		<g>
			<g>
				<path class="st1" d="M684.6,61.1c1,0,1-1.5,0-1.5C683.7,59.6,683.7,61.1,684.6,61.1L684.6,61.1z"/>
			</g>
		</g>
		<g>
			<g>
				<path class="st1" d="M802.6,304.1c0.5,0,0.5-0.8,0-0.8C802.1,303.3,802.1,304.1,802.6,304.1L802.6,304.1z"/>
			</g>
		</g>
		<g>
			<g>
				<path class="st1" d="M585.8,320.7c0.5,0,0.5-0.8,0-0.8C585.3,319.9,585.3,320.7,585.8,320.7L585.8,320.7z"/>
			</g>
		</g>
		<g>
			<g>
				<path class="st1" d="M559.6,33.4c0.5,0,0.5-0.8,0-0.8C559.1,32.7,559.1,33.4,559.6,33.4L559.6,33.4z"/>
			</g>
		</g>
		<g>
			<g>
				<path class="st1" d="M802.9,33.1c0.5,0,0.5-0.8,0-0.8C802.4,32.3,802.4,33.1,802.9,33.1L802.9,33.1z"/>
			</g>
		</g>
		<g>
			<g>
				<path class="st1" d="M785.2,182.6c0.5,0,0.5-0.8,0-0.8C784.7,181.8,784.7,182.6,785.2,182.6L785.2,182.6z"/>
			</g>
		</g>
		<g>
			<g>
				<path class="st1" d="M673.6,141.1c0.5,0,0.5-0.8,0-0.8C673.2,140.4,673.2,141.1,673.6,141.1L673.6,141.1z"/>
			</g>
		</g>
		<g>
			<g>
				<path class="st1" d="M652,25.3c0.5,0,0.5-0.8,0-0.8C651.6,24.5,651.6,25.3,652,25.3L652,25.3z"/>
			</g>
		</g>
		<g>
			<g>
				<path class="st1" d="M641.4,267.6c0.5,0,0.5-0.8,0-0.8C640.9,266.8,640.9,267.6,641.4,267.6L641.4,267.6z"/>
			</g>
		</g>
	</g>
	<g>
		<g>
			<g>
				<path class="st1" d="M1220.1,258.7c1.9,0,1.9-3,0-3C1218.2,255.7,1218.2,258.7,1220.1,258.7L1220.1,258.7z"/>
			</g>
		</g>
		<g>
			<g>
				<path class="st1" d="M1241,241.3c1.9,0,1.9-3,0-3C1239.1,238.3,1239.1,241.3,1241,241.3L1241,241.3z"/>
			</g>
		</g>
		<g>
			<g>
				<path class="st1" d="M1299.5,280.3c1.9,0,1.9-3,0-3C1297.6,277.3,1297.5,280.3,1299.5,280.3L1299.5,280.3z"/>
			</g>
		</g>
		<g>
			<g>
				<path class="st1" d="M1366.1,152.8c1.9,0,1.9-3,0-3C1364.1,149.8,1364.1,152.8,1366.1,152.8L1366.1,152.8z"/>
			</g>
		</g>
		<g>
			<g>
				<path class="st1" d="M1225.5,87.6c1.9,0,1.9-3,0-3C1223.5,84.6,1223.5,87.6,1225.5,87.6L1225.5,87.6z"/>
			</g>
		</g>
		<g>
			<g>
				<path class="st1" d="M1093.7,226.5c1.9,0,1.9-3,0-3C1091.8,223.5,1091.8,226.5,1093.7,226.5L1093.7,226.5z"/>
			</g>
		</g>
		<g>
			<g>
				<path class="st1" d="M1188.6,163.8c1.4,0,1.5-2.2,0-2.2C1187.2,161.5,1187.2,163.8,1188.6,163.8L1188.6,163.8z"/>
			</g>
		</g>
		<g>
			<g>
				<path class="st1" d="M1305.1,141.1c1.4,0,1.5-2.2,0-2.2C1303.7,138.8,1303.7,141.1,1305.1,141.1L1305.1,141.1z"/>
			</g>
		</g>
		<g>
			<g>
				<path class="st1" d="M1220.8,327.8c1.4,0,1.5-2.2,0-2.2C1219.4,325.5,1219.4,327.8,1220.8,327.8L1220.8,327.8z"/>
			</g>
		</g>
		<g>
			<g>
				<path class="st1" d="M1231.5,136.1c1,0,1-1.5,0-1.5C1230.5,134.6,1230.5,136.1,1231.5,136.1L1231.5,136.1z"/>
			</g>
		</g>
		<g>
			<g>
				<path class="st1" d="M1306.2,213c1,0,1-1.5,0-1.5C1305.2,211.5,1305.2,213,1306.2,213L1306.2,213z"/>
			</g>
		</g>
		<g>
			<g>
				<path class="st1" d="M1161.7,250.1c0,0.1,0,0.2,0,0.4c0,1,1.5,1,1.5,0c0-0.1,0-0.2,0-0.4
					C1163.2,249.2,1161.7,249.2,1161.7,250.1L1161.7,250.1z"/>
			</g>
		</g>
		<g>
			<g>
				<path class="st1" d="M1235.4,286.6c1,0,1-1.5,0-1.5C1234.4,285.1,1234.4,286.6,1235.4,286.6L1235.4,286.6z"/>
			</g>
		</g>
		<g>
			<g>
				<path class="st1" d="M1117.4,42.9c0.5,0,0.5-0.8,0-0.8C1116.9,42.2,1116.9,42.9,1117.4,42.9L1117.4,42.9z"/>
			</g>
		</g>
		<g>
			<g>
				<path class="st1" d="M1334.2,26.3c0.5,0,0.5-0.8,0-0.8C1333.7,25.5,1333.7,26.3,1334.2,26.3L1334.2,26.3z"/>
			</g>
		</g>
		<g>
			<g>
				<path class="st1" d="M1360.4,313.5c0.5,0,0.5-0.8,0-0.8C1359.9,312.8,1359.9,313.5,1360.4,313.5L1360.4,313.5z"/>
			</g>
		</g>
		<g>
			<g>
				<path class="st1" d="M1117.1,313.9c0.5,0,0.5-0.8,0-0.8C1116.6,313.1,1116.6,313.9,1117.1,313.9L1117.1,313.9z"/>
			</g>
		</g>
		<g>
			<g>
				<path class="st1" d="M1134.8,164.4c0.5,0,0.5-0.8,0-0.8C1134.3,163.7,1134.3,164.4,1134.8,164.4L1134.8,164.4z"/>
			</g>
		</g>
		<g>
			<g>
				<path class="st1" d="M1246.4,205.9c0.5,0,0.5-0.8,0-0.8C1245.9,205.1,1245.9,205.9,1246.4,205.9L1246.4,205.9z"/>
			</g>
		</g>
		<g>
			<g>
				<path class="st1" d="M1268,321.7c0.5,0,0.5-0.8,0-0.8C1267.5,320.9,1267.5,321.7,1268,321.7L1268,321.7z"/>
			</g>
		</g>
		<g>
			<g>
				<path class="st1" d="M1278.6,79.4c0.5,0,0.5-0.8,0-0.8C1278.1,78.7,1278.1,79.4,1278.6,79.4L1278.6,79.4z"/>
			</g>
		</g>
	</g>
	<g>
		<g>
			<g>
				<path class="st1" d="M1850.6,193c1.9,0,1.9-3,0-3C1848.6,190,1848.6,193,1850.6,193L1850.6,193z"/>
			</g>
		</g>
		<g>
			<g>
				<path class="st1" d="M1833.2,172.1c1.9,0,1.9-3,0-3C1831.3,169.1,1831.3,172.1,1833.2,172.1L1833.2,172.1z"/>
			</g>
		</g>
		<g>
			<g>
				<path class="st1" d="M1872.2,113.6c1.9,0,1.9-3,0-3C1870.3,110.6,1870.2,113.6,1872.2,113.6L1872.2,113.6z"/>
			</g>
		</g>
		<g>
			<g>
				<path class="st1" d="M1744.7,47c1.9,0,1.9-3,0-3C1742.7,44,1742.7,47,1744.7,47L1744.7,47z"/>
			</g>
		</g>
		<g>
			<g>
				<path class="st1" d="M1679.5,187.7c1.9,0,1.9-3,0-3C1677.6,184.7,1677.6,187.7,1679.5,187.7L1679.5,187.7z"/>
			</g>
		</g>
		<g>
			<g>
				<path class="st1" d="M1818.3,319.4c1.9,0,1.9-3,0-3C1816.4,316.4,1816.4,319.4,1818.3,319.4L1818.3,319.4z"/>
			</g>
		</g>
		<g>
			<g>
				<path class="st1" d="M1756,224.1c1.4,0,1.5-2.2,0-2.2C1754.6,221.9,1754.6,224.1,1756,224.1L1756,224.1z"/>
			</g>
		</g>
		<g>
			<g>
				<path class="st1" d="M1733.3,107.6c1.4,0,1.5-2.2,0-2.2C1731.9,105.3,1731.9,107.6,1733.3,107.6L1733.3,107.6z"/>
			</g>
		</g>
		<g>
			<g>
				<path class="st1" d="M1920,191.9c1.4,0,1.5-2.2,0-2.2C1918.6,189.6,1918.5,191.9,1920,191.9L1920,191.9z"/>
			</g>
		</g>
		<g>
			<g>
				<path class="st1" d="M1728.7,180.9c1,0,1-1.5,0-1.5C1727.8,179.4,1727.8,180.9,1728.7,180.9L1728.7,180.9z"/>
			</g>
		</g>
		<g>
			<g>
				<path class="st1" d="M1805.6,106.1c1,0,1-1.5,0-1.5C1804.6,104.6,1804.6,106.1,1805.6,106.1L1805.6,106.1z"/>
			</g>
		</g>
		<g>
			<g>
				<path class="st1" d="M1843.5,249.9c0.1,0,0.2,0,0.4,0c1,0,1-1.5,0-1.5c-0.1,0-0.2,0-0.4,0
					C1842.5,248.4,1842.5,249.9,1843.5,249.9L1843.5,249.9z"/>
			</g>
		</g>
		<g>
			<g>
				<path class="st1" d="M1879.3,177c1,0,1-1.5,0-1.5C1878.3,175.5,1878.3,177,1879.3,177L1879.3,177z"/>
			</g>
		</g>
		<g>
			<g>
				<path class="st1" d="M1635.9,294.6c0.5,0,0.5-0.8,0-0.8C1635.4,293.8,1635.4,294.6,1635.9,294.6L1635.9,294.6z"/>
			</g>
		</g>
		<g>
			<g>
				<path class="st1" d="M1619.3,77.8c0.5,0,0.5-0.8,0-0.8C1618.8,77,1618.8,77.8,1619.3,77.8L1619.3,77.8z"/>
			</g>
		</g>
		<g>
			<g>
				<path class="st1" d="M1906.5,51.6c0.5,0,0.5-0.8,0-0.8C1906.1,50.8,1906.1,51.6,1906.5,51.6L1906.5,51.6z"/>
			</g>
		</g>
		<g>
			<g>
				<path class="st1" d="M1906.9,294.9c0.5,0,0.5-0.8,0-0.8C1906.4,294.2,1906.4,294.9,1906.9,294.9L1906.9,294.9z"/>
			</g>
		</g>
		<g>
			<g>
				<path class="st1" d="M1757.4,277.2c0.5,0,0.5-0.8,0-0.8C1756.9,276.5,1756.9,277.2,1757.4,277.2L1757.4,277.2z"/>
			</g>
		</g>
		<g>
			<g>
				<path class="st1" d="M1798.9,165.6c0.5,0,0.5-0.8,0-0.8C1798.4,164.9,1798.4,165.6,1798.9,165.6L1798.9,165.6z"/>
			</g>
		</g>
		<g>
			<g>
				<path class="st1" d="M1914.7,144c0.5,0,0.5-0.8,0-0.8C1914.2,143.3,1914.2,144,1914.7,144L1914.7,144z"/>
			</g>
		</g>
		<g>
			<g>
				<path class="st1" d="M1672.4,133.4c0.5,0,0.5-0.8,0-0.8C1671.9,132.6,1671.9,133.4,1672.4,133.4L1672.4,133.4z"/>
			</g>
		</g>
	</g>
	<g>
		<g>
			<g>
				<path class="st1" d="M1399,173.5c1.9,0,1.9-3,0-3C1397.1,170.5,1397.1,173.5,1399,173.5L1399,173.5z"/>
			</g>
		</g>
		<g>
			<g>
				<path class="st1" d="M1416.4,194.4c1.9,0,1.9-3,0-3C1414.4,191.4,1414.4,194.4,1416.4,194.4L1416.4,194.4z"/>
			</g>
		</g>
		<g>
			<g>
				<path class="st1" d="M1377.4,252.8c1.9,0,1.9-3,0-3C1375.5,249.8,1375.5,252.8,1377.4,252.8L1377.4,252.8z"/>
			</g>
		</g>
		<g>
			<g>
				<path class="st1" d="M1504.9,319.4c1.9,0,1.9-3,0-3C1503,316.4,1503,319.4,1504.9,319.4L1504.9,319.4z"/>
			</g>
		</g>
		<g>
			<g>
				<path class="st1" d="M1570.1,178.8c1.9,0,1.9-3,0-3C1568.2,175.8,1568.2,178.8,1570.1,178.8L1570.1,178.8z"/>
			</g>
		</g>
		<g>
			<g>
				<path class="st1" d="M1431.3,47c1.9,0,1.9-3,0-3C1429.3,44,1429.3,47,1431.3,47L1431.3,47z"/>
			</g>
		</g>
		<g>
			<g>
				<path class="st1" d="M1493.6,141.6c1.4,0,1.5-2.2,0-2.2C1492.1,139.3,1492.1,141.6,1493.6,141.6L1493.6,141.6z"/>
			</g>
		</g>
		<g>
			<g>
				<path class="st1" d="M1516.3,258.1c1.4,0,1.5-2.2,0-2.2C1514.8,255.9,1514.8,258.1,1516.3,258.1L1516.3,258.1z"/>
			</g>
		</g>
		<g>
			<g>
				<path class="st1" d="M1329.6,173.8c1.4,0,1.5-2.2,0-2.2C1328.1,171.6,1328.1,173.8,1329.6,173.8L1329.6,173.8z"/>
			</g>
		</g>
		<g>
			<g>
				<path class="st1" d="M1520.9,184.1c1,0,1-1.5,0-1.5C1519.9,182.6,1519.9,184.1,1520.9,184.1L1520.9,184.1z"/>
			</g>
		</g>
		<g>
			<g>
				<path class="st1" d="M1444,258.8c1,0,1-1.5,0-1.5C1443,257.3,1443,258.8,1444,258.8L1444,258.8z"/>
			</g>
		</g>
		<g>
			<g>
				<path class="st1" d="M1406.1,113.5c-0.1,0-0.2,0-0.4,0c-1,0-1,1.5,0,1.5c0.1,0,0.2,0,0.4,0
					C1407.1,115,1407.1,113.5,1406.1,113.5L1406.1,113.5z"/>
			</g>
		</g>
		<g>
			<g>
				<path class="st1" d="M1370.3,188c1,0,1-1.5,0-1.5C1369.4,186.5,1369.4,188,1370.3,188L1370.3,188z"/>
			</g>
		</g>
		<g>
			<g>
				<path class="st1" d="M1613.7,69.6c0.5,0,0.5-0.8,0-0.8C1613.2,68.9,1613.2,69.6,1613.7,69.6L1613.7,69.6z"/>
			</g>
		</g>
		<g>
			<g>
				<path class="st1" d="M1630.3,286.4c0.5,0,0.5-0.8,0-0.8C1629.8,285.7,1629.8,286.4,1630.3,286.4L1630.3,286.4z"/>
			</g>
		</g>
		<g>
			<g>
				<path class="st1" d="M1343.1,312.6c0.5,0,0.5-0.8,0-0.8C1342.6,311.9,1342.6,312.6,1343.1,312.6L1343.1,312.6z"/>
			</g>
		</g>
		<g>
			<g>
				<path class="st1" d="M1342.7,69.3c0.5,0,0.5-0.8,0-0.8C1342.2,68.5,1342.2,69.3,1342.7,69.3L1342.7,69.3z"/>
			</g>
		</g>
		<g>
			<g>
				<path class="st1" d="M1492.2,87c0.5,0,0.5-0.8,0-0.8C1491.7,86.2,1491.7,87,1492.2,87L1492.2,87z"/>
			</g>
		</g>
		<g>
			<g>
				<path class="st1" d="M1450.7,198.6c0.5,0,0.5-0.8,0-0.8C1450.3,197.8,1450.3,198.6,1450.7,198.6L1450.7,198.6z"/>
			</g>
		</g>
		<g>
			<g>
				<path class="st1" d="M1334.9,220.2c0.5,0,0.5-0.8,0-0.8C1334.4,219.4,1334.4,220.2,1334.9,220.2L1334.9,220.2z"/>
			</g>
		</g>
		<g>
			<g>
				<path class="st1" d="M1577.2,230.8c0.5,0,0.5-0.8,0-0.8C1576.7,230.1,1576.7,230.8,1577.2,230.8L1577.2,230.8z"/>
			</g>
		</g>
	</g>
	<g>
		<g>
			<g>
				<path class="st1" d="M409.6,173.5c1.9,0,1.9-3,0-3C407.6,170.5,407.6,173.5,409.6,173.5L409.6,173.5z"/>
			</g>
		</g>
		<g>
			<g>
				<path class="st1" d="M426.9,194.4c1.9,0,1.9-3,0-3C425,191.4,425,194.4,426.9,194.4L426.9,194.4z"/>
			</g>
		</g>
		<g>
			<g>
				<path class="st1" d="M387.9,252.8c1.9,0,1.9-3,0-3C386,249.8,386,252.8,387.9,252.8L387.9,252.8z"/>
			</g>
		</g>
		<g>
			<g>
				<path class="st1" d="M515.5,319.4c1.9,0,1.9-3,0-3C513.5,316.4,513.5,319.4,515.5,319.4L515.5,319.4z"/>
			</g>
		</g>
		<g>
			<g>
				<path class="st1" d="M580.6,178.8c1.9,0,1.9-3,0-3C578.7,175.8,578.7,178.8,580.6,178.8L580.6,178.8z"/>
			</g>
		</g>
		<g>
			<g>
				<path class="st1" d="M441.8,47c1.9,0,1.9-3,0-3C439.9,44,439.9,47,441.8,47L441.8,47z"/>
			</g>
		</g>
		<g>
			<g>
				<path class="st1" d="M504.1,141.6c1.4,0,1.5-2.2,0-2.2C502.7,139.3,502.7,141.6,504.1,141.6L504.1,141.6z"/>
			</g>
		</g>
		<g>
			<g>
				<path class="st1" d="M526.8,258.1c1.4,0,1.5-2.2,0-2.2C525.3,255.9,525.3,258.1,526.8,258.1L526.8,258.1z"/>
			</g>
		</g>
		<g>
			<g>
				<path class="st1" d="M340.1,173.8c1.4,0,1.5-2.2,0-2.2C338.7,171.6,338.7,173.8,340.1,173.8L340.1,173.8z"/>
			</g>
		</g>
		<g>
			<g>
				<path class="st1" d="M531.4,184.1c1,0,1-1.5,0-1.5C530.4,182.6,530.4,184.1,531.4,184.1L531.4,184.1z"/>
			</g>
		</g>
		<g>
			<g>
				<path class="st1" d="M454.5,258.8c1,0,1-1.5,0-1.5C453.6,257.3,453.6,258.8,454.5,258.8L454.5,258.8z"/>
			</g>
		</g>
		<g>
			<g>
				<path class="st1" d="M416.6,113.5c-0.1,0-0.2,0-0.4,0c-1,0-1,1.5,0,1.5c0.1,0,0.2,0,0.4,0C417.6,115,417.6,113.5,416.6,113.5
					L416.6,113.5z"/>
			</g>
		</g>
		<g>
			<g>
				<path class="st1" d="M380.9,188c1,0,1-1.5,0-1.5C379.9,186.5,379.9,188,380.9,188L380.9,188z"/>
			</g>
		</g>
		<g>
			<g>
				<path class="st1" d="M624.2,69.6c0.5,0,0.5-0.8,0-0.8C623.7,68.9,623.7,69.6,624.2,69.6L624.2,69.6z"/>
			</g>
		</g>
		<g>
			<g>
				<path class="st1" d="M640.8,286.4c0.5,0,0.5-0.8,0-0.8C640.4,285.7,640.4,286.4,640.8,286.4L640.8,286.4z"/>
			</g>
		</g>
		<g>
			<g>
				<path class="st1" d="M353.6,312.6c0.5,0,0.5-0.8,0-0.8C353.1,311.9,353.1,312.6,353.6,312.6L353.6,312.6z"/>
			</g>
		</g>
		<g>
			<g>
				<path class="st1" d="M353.2,69.3c0.5,0,0.5-0.8,0-0.8C352.8,68.5,352.8,69.3,353.2,69.3L353.2,69.3z"/>
			</g>
		</g>
		<g>
			<g>
				<path class="st1" d="M502.7,87c0.5,0,0.5-0.8,0-0.8C502.2,86.2,502.2,87,502.7,87L502.7,87z"/>
			</g>
		</g>
		<g>
			<g>
				<path class="st1" d="M461.3,198.6c0.5,0,0.5-0.8,0-0.8C460.8,197.8,460.8,198.6,461.3,198.6L461.3,198.6z"/>
			</g>
		</g>
		<g>
			<g>
				<path class="st1" d="M345.4,220.2c0.5,0,0.5-0.8,0-0.8C345,219.4,345,220.2,345.4,220.2L345.4,220.2z"/>
			</g>
		</g>
		<g>
			<g>
				<path class="st1" d="M587.7,230.8c0.5,0,0.5-0.8,0-0.8C587.2,230.1,587.2,230.8,587.7,230.8L587.7,230.8z"/>
			</g>
		</g>
	</g>
</g>
<g id="WHITE">
</g>
<g id="Mountains">
	<g>
		<g>
			<linearGradient id="SVGID_2_" gradientUnits="userSpaceOnUse" x1="996.6959" y1="938.6572" x2="1748.3164" y2="938.6572">
				<stop  offset="0" style="stop-color:#000020"/>
				<stop  offset="0.467" style="stop-color:#2E315E"/>
				<stop  offset="0.8182" style="stop-color:#4C5086"/>
				<stop  offset="1" style="stop-color:#575C95"/>
			</linearGradient>
			<polygon class="st2" points="996.7,1080 1148.4,974.7 1193.8,888.7 1221.7,952.6 1279.6,864.1 1295.7,909.7 1279.6,967.6 
				1231.4,1012.6 1289.1,972 1314.9,881.9 1324.6,841.8 1388.9,797.3 1458.6,872.5 1489.9,847.1 1611.9,926.5 1711.8,1019.2 
				1748.3,1080 			"/>
			<polygon class="st3" points="1193.8,888.7 1248.6,911.6 1221.7,952.6 			"/>
			<polyline class="st3" points="1484.6,1025.5 1474.8,1080 1748.3,1080 1711.8,1019.2 1611.9,926.5 1512.6,904.4 1458.6,872.5 
				1388.9,797.3 1361.9,893 1417.7,932 1413.3,982.7 			"/>
			<polyline class="st3" points="1289.1,972 1231.4,1012.6 1279.6,967.6 1295.7,909.7 1279.6,864.1 1314.9,881.9 			"/>
		</g>
		<g>
			
				<linearGradient id="SVGID_3_" gradientUnits="userSpaceOnUse" x1="1620.3226" y1="890.9733" x2="2625.512" y2="890.9733" gradientTransform="matrix(-1 0 0 1 3073.3477 0)">
				<stop  offset="0" style="stop-color:#000020"/>
				<stop  offset="0.467" style="stop-color:#2E315E"/>
				<stop  offset="0.8182" style="stop-color:#4C5086"/>
				<stop  offset="1" style="stop-color:#575C95"/>
			</linearGradient>
			<polygon class="st4" points="1453,1080 1250.2,939.2 1189.4,824.2 1152.1,909.7 1074.6,791.2 1053.2,852.3 1074.6,929.7 
				1139.2,989.8 1062,935.6 1027.4,815.1 1014.6,761.4 928.5,701.9 835.2,802.5 793.4,768.6 630.2,874.7 496.7,998.7 447.8,1080 			
				"/>
			<polygon class="st3" points="1189.4,824.2 1116.2,854.8 1152.1,909.7 			"/>
			<polyline class="st3" points="800.5,1007 813.6,1080 447.8,1080 496.7,998.7 630.2,874.7 763.1,845.1 835.2,802.5 928.5,701.9 
				964.7,829.9 889.9,882 895.8,949.9 			"/>
			<polyline class="st3" points="1062,935.6 1139.2,989.8 1074.6,929.7 1053.2,852.3 1074.6,791.2 1027.4,815.1 			"/>
		</g>
		<g>
			<linearGradient id="SVGID_4_" gradientUnits="userSpaceOnUse" x1="171.3811" y1="938.6572" x2="923.0016" y2="938.6572">
				<stop  offset="0" style="stop-color:#000020"/>
				<stop  offset="0.467" style="stop-color:#2E315E"/>
				<stop  offset="0.8182" style="stop-color:#4C5086"/>
				<stop  offset="1" style="stop-color:#575C95"/>
			</linearGradient>
			<polygon class="st5" points="171.4,1080 323.1,974.7 368.5,888.7 396.4,952.6 454.3,864.1 470.4,909.7 454.3,967.6 406,1012.6 
				463.8,972 489.6,881.9 499.2,841.8 563.6,797.3 633.3,872.5 664.6,847.1 786.6,926.5 886.4,1019.2 923,1080 			"/>
			<polygon class="st3" points="368.5,888.7 423.2,911.6 396.4,952.6 			"/>
			<polyline class="st3" points="659.3,1025.5 649.5,1080 923,1080 886.4,1019.2 786.6,926.5 687.2,904.4 633.3,872.5 563.6,797.3 
				536.5,893 592.4,932 588,982.7 			"/>
			<polyline class="st3" points="463.8,972 406,1012.6 454.3,967.6 470.4,909.7 454.3,864.1 489.6,881.9 			"/>
		</g>
	</g>
</g>
<g id="Beam01">
	<linearGradient id="SVGID_5_" gradientUnits="userSpaceOnUse" x1="1130" y1="169.9416" x2="1130" y2="1080.8557">
		<stop  offset="0" style="stop-color:#89FFCB;stop-opacity:0"/>
		<stop  offset="0.6195" style="stop-color:#ACFFF7;stop-opacity:0.4016"/>
		<stop  offset="1" style="stop-color:#00ABCB"/>
	</linearGradient>
	<polyline class="st6" points="1300.1,1080.9 1300.1,169.9 959.9,169.9 959.9,1080.9 	"/>
</g>
<g id="Beam02">
	<linearGradient id="SVGID_6_" gradientUnits="userSpaceOnUse" x1="1130" y1="-2.2644" x2="1130" y2="1080">
		<stop  offset="0" style="stop-color:#89FFCB;stop-opacity:0"/>
		<stop  offset="0.6195" style="stop-color:#ACFFF7;stop-opacity:0.4016"/>
		<stop  offset="1" style="stop-color:#00ABCB"/>
	</linearGradient>
	<rect x="1048.5" y="-2.3" class="st7" width="163" height="1082.3"/>
</g>
<g id="Beam03">
	<linearGradient id="SVGID_7_" gradientUnits="userSpaceOnUse" x1="1130" y1="0.5271" x2="1130" y2="1080">
		<stop  offset="0" style="stop-color:#89FFCB;stop-opacity:0"/>
		<stop  offset="0.6195" style="stop-color:#ACFFF7;stop-opacity:0.4016"/>
		<stop  offset="1" style="stop-color:#00ABCB"/>
	</linearGradient>
	<rect x="1115" y="0.5" class="st8" width="30" height="1079.5"/>
</g>
<g id="Whisps">
	<g>
		<g>
			<line class="st9" x1="995.5" y1="148.1" x2="995.5" y2="260"/>
			<circle class="st10" cx="995.5" cy="143.3" r="4.8"/>
		</g>
		<g>
			<line class="st9" x1="854.3" y1="153" x2="854.3" y2="207.3"/>
			<circle class="st10" cx="854.3" cy="148.1" r="4.8"/>
		</g>
		<g>
			<line class="st9" x1="731.5" y1="400.3" x2="731.5" y2="483.2"/>
			<circle class="st10" cx="731.5" cy="395.5" r="4.8"/>
		</g>
		<g>
			<line class="st9" x1="765.1" y1="645.5" x2="765.1" y2="832.8"/>
			<circle class="st10" cx="765.1" cy="640.7" r="4.8"/>
		</g>
		<g>
			<line class="st9" x1="918.1" y1="787.6" x2="918.1" y2="870.5"/>
			<circle class="st10" cx="918.1" cy="782.8" r="4.8"/>
		</g>
		<g>
			<line class="st9" x1="1087.3" y1="769.2" x2="1087.3" y2="914.5"/>
			<circle class="st10" cx="1087.3" cy="764.4" r="4.8"/>
		</g>
		<g>
			<line class="st9" x1="1087.3" y1="427.8" x2="1087.3" y2="464.7"/>
			<circle class="st10" cx="1087.3" cy="423" r="4.8"/>
		</g>
		<g>
			<line class="st9" x1="1175.1" y1="369.2" x2="1175.1" y2="473.9"/>
			<circle class="st10" cx="1175.1" cy="364.4" r="4.8"/>
		</g>
		<g>
			<line class="st9" x1="1152.9" y1="673.8" x2="1152.9" y2="756.7"/>
			<circle class="st10" cx="1152.9" cy="669" r="4.8"/>
		</g>
	</g>
</g>
<g id="Front">
</g>
<g id="Disc">
	<g>
		
			<linearGradient id="SVGID_8_" gradientUnits="userSpaceOnUse" x1="960.5731" y1="593.1226" x2="619.4269" y2="593.1226" gradientTransform="matrix(-1 0 0 -1 1920 1188.1841)">
			<stop  offset="0" style="stop-color:#00F78A"/>
			<stop  offset="0.2786" style="stop-color:#BAFFF8"/>
			<stop  offset="1" style="stop-color:#F3FDFF"/>
		</linearGradient>
		<path class="st11" d="M1130,591.6c68.5,0,127.6,10.4,154.7,25.4h15.9c0-24.2-76.4-43.8-170.6-43.8S959.4,592.8,959.4,617h15.9
			C1002.4,602,1061.5,591.6,1130,591.6z"/>
		
			<linearGradient id="SVGID_9_" gradientUnits="userSpaceOnUse" x1="619.4269" y1="570.0721" x2="960.5731" y2="570.0721" gradientTransform="matrix(-1 0 0 -1 1920 1188.1841)">
			<stop  offset="0" style="stop-color:#0DEE63"/>
			<stop  offset="0.5885" style="stop-color:#008978"/>
			<stop  offset="1" style="stop-color:#00424C"/>
		</linearGradient>
		<path class="st12" d="M1130,653.8c94.2,0,170.6-16,170.6-35.7c0-19.7-76.4-35.7-170.6-35.7s-170.6,16-170.6,35.7
			C959.4,637.8,1035.8,653.8,1130,653.8z M1130,603.1c73.8,0,133.7,9.8,133.7,21.9s-59.9,21.9-133.7,21.9s-133.7-9.8-133.7-21.9
			S1056.2,603.1,1130,603.1z"/>
		
			<linearGradient id="SVGID_10_" gradientUnits="userSpaceOnUse" x1="656.3076" y1="556.8182" x2="923.6924" y2="556.8182" gradientTransform="matrix(-1 0 0 -1 1920 1188.1841)">
			<stop  offset="0" style="stop-color:#00F78A"/>
			<stop  offset="7.484010e-02" style="stop-color:#BAFFF8"/>
			<stop  offset="0.8793" style="stop-color:#E3FEFF"/>
			<stop  offset="1" style="stop-color:#F3FDFF"/>
		</linearGradient>
		<path class="st13" d="M1251.3,615.8c-21.3,7.5-67.5,12.7-121.3,12.7s-100-5.2-121.3-12.7c-8,2.8-12.4,5.9-12.4,9.2
			c0,12.1,59.9,21.9,133.7,21.9s133.7-9.8,133.7-21.9C1263.7,621.7,1259.2,618.6,1251.3,615.8z"/>
		<g>
			<defs>
				<path id="SVGID_11_" d="M1130,653.8c94.2,0,170.6-16,170.6-35.7c0-19.7-76.4-35.7-170.6-35.7s-170.6,16-170.6,35.7
					C959.4,637.8,1035.8,653.8,1130,653.8z M1130,603.1c73.8,0,133.7,9.8,133.7,21.9s-59.9,21.9-133.7,21.9s-133.7-9.8-133.7-21.9
					S1056.2,603.1,1130,603.1z"/>
			</defs>
			<clipPath id="SVGID_12_">
				<use xlink:href="#SVGID_11_"  style="overflow:visible;"/>
			</clipPath>
			<g class="st14">
				
					<radialGradient id="SVGID_13_" cx="790" cy="2870.0728" r="170.5731" gradientTransform="matrix(-1 0 0 -0.2095 1920 1219.2759)" gradientUnits="userSpaceOnUse">
					<stop  offset="0" style="stop-color:#0DEE63"/>
					<stop  offset="0.5885" style="stop-color:#008978"/>
					<stop  offset="1" style="stop-color:#00424C"/>
				</radialGradient>
				<ellipse class="st15" cx="1130" cy="618.1" rx="170.6" ry="35.7"/>
				<g>
					<g>
						<g>
							<g>
								
									<radialGradient id="SVGID_14_" cx="718.9279" cy="2955.1094" r="78.864" gradientTransform="matrix(-1 0 0 -0.2095 1920 1219.2759)" gradientUnits="userSpaceOnUse">
									<stop  offset="0" style="stop-color:#0DEE63"/>
									<stop  offset="0.5885" style="stop-color:#008978"/>
									<stop  offset="1" style="stop-color:#00424C"/>
								</radialGradient>
								<path class="st16" d="M1130,618.1h142.1c0-16.5-63.6-29.8-142.1-29.8v-6"/>
							</g>
						</g>
					</g>
					<g>
						<g>
							<g>
								
									<radialGradient id="SVGID_15_" cx="1369.2612" cy="-2885.0364" r="78.864" gradientTransform="matrix(1 0 0 0.2095 -310.3333 1240.2218)" gradientUnits="userSpaceOnUse">
									<stop  offset="0" style="stop-color:#0DEE63"/>
									<stop  offset="0.5885" style="stop-color:#008978"/>
									<stop  offset="1" style="stop-color:#00424C"/>
								</radialGradient>
								<path class="st17" d="M1130,618.1H987.9c0,16.5,63.6,29.8,142.1,29.8v6"/>
							</g>
						</g>
					</g>
					<g>
						<g>
							<g>
								
									<radialGradient id="SVGID_16_" cx="4043.8459" cy="339.8221" r="65.7804" gradientTransform="matrix(0 -0.2095 1 0 861 1477.5394)" gradientUnits="userSpaceOnUse">
									<stop  offset="0" style="stop-color:#0DEE63"/>
									<stop  offset="0.5885" style="stop-color:#008978"/>
									<stop  offset="1" style="stop-color:#00424C"/>
								</radialGradient>
								<path class="st18" d="M1130,618.1v24.8c65.5,0,118.5-11.1,118.5-24.8h23.7"/>
							</g>
						</g>
					</g>
					<g>
						<g>
							<g>
								
									<radialGradient id="SVGID_17_" cx="-1931.9663" cy="-298.1779" r="65.7804" gradientTransform="matrix(0 0.2095 -1 0 761 1010.3749)" gradientUnits="userSpaceOnUse">
									<stop  offset="0" style="stop-color:#0DEE63"/>
									<stop  offset="0.5885" style="stop-color:#008978"/>
									<stop  offset="1" style="stop-color:#00424C"/>
								</radialGradient>
								<path class="st19" d="M1130,618.1v-24.8c-65.5,0-118.5,11.1-118.5,24.8h-23.7"/>
							</g>
						</g>
					</g>
					<g>
						<g>
							<g>
								
									<radialGradient id="SVGID_18_" cx="1452.6444" cy="-2985.0959" r="54.8775" gradientTransform="matrix(1 0 0 0.2095 -372 1255.7218)" gradientUnits="userSpaceOnUse">
									<stop  offset="0" style="stop-color:#0DEE63"/>
									<stop  offset="0.5885" style="stop-color:#008978"/>
									<stop  offset="1" style="stop-color:#00424C"/>
								</radialGradient>
								<path class="st20" d="M1130,618.1h-98.7c0,11.4,44.2,20.7,98.7,20.7v4.1"/>
							</g>
						</g>
					</g>
					<g>
						<g>
							<g>
								
									<radialGradient id="SVGID_19_" cx="678.9777" cy="3003.0496" r="54.8775" gradientTransform="matrix(-1 0 0 -0.2095 1858.3334 1234.7759)" gradientUnits="userSpaceOnUse">
									<stop  offset="0" style="stop-color:#0DEE63"/>
									<stop  offset="0.5885" style="stop-color:#008978"/>
									<stop  offset="1" style="stop-color:#00424C"/>
								</radialGradient>
								<path class="st21" d="M1130,618.1h98.7c0-11.4-44.2-20.7-98.7-20.7v-4.1"/>
							</g>
						</g>
					</g>
				</g>
			</g>
		</g>
	</g>
</g>
<g id="Right">
	<defs>
		<filter id="Adobe_OpacityMaskFilter" filterUnits="userSpaceOnUse">
			<feColorMatrix  type="matrix" values="1 0 0 0 0  0 1 0 0 0  0 0 1 0 0  0 0 0 1 0"/>
		</filter>
	</defs>
	<mask maskUnits="userSpaceOnUse" id="mask-3_1_">
		<g class="st22">
			<polygon id="path-2_1_" class="st23" points="298.4,-97.7 827,-97.7 827,248.7 298.4,248.7 			"/>
		</g>
	</mask>
	<g id="BG_1_" class="st24">
	</g>
	<g>
		<g>
			<polyline class="st25" points="1544.7,1080 1920,1080 1920,807.9 1240.7,778.1 1267.8,840.5 1299.9,861.8 1355.4,1080 
				1422.5,1079.8 			"/>
			<linearGradient id="SVGID_20_" gradientUnits="userSpaceOnUse" x1="1920" y1="923.4755" x2="1240.6515" y2="923.4755">
				<stop  offset="0" style="stop-color:#000020"/>
				<stop  offset="0.467" style="stop-color:#2E315E"/>
				<stop  offset="0.8182" style="stop-color:#4C5086"/>
				<stop  offset="1" style="stop-color:#575C95"/>
			</linearGradient>
			<polygon class="st26" points="1920,807.9 1536.2,767 1374.2,778.2 1268.4,768.6 1256.4,770.6 1240.7,778.1 1265.3,789.6 
				1281.9,804.8 1299.9,808.8 1330.5,833.2 1426.7,834.8 1464,864.2 1600.7,885 1491.3,889.8 1602.9,905.6 1495.8,918.5 
				1526.6,941.3 1701.3,980.6 1812.8,1080 1920,1080 			"/>
			<polygon class="st27" points="1526.6,941.3 1544.7,1080 1495.8,918.5 			"/>
			<polygon class="st27" points="1491.3,889.8 1514.2,916.3 1602.9,905.6 			"/>
			<polygon class="st27" points="1330.5,833.2 1355.4,1080 1299.9,808.8 			"/>
			<polygon class="st27" points="1265.3,789.6 1267.8,840.5 1281.9,804.8 			"/>
			<polygon class="st27" points="1426.7,834.8 1422.5,1079.8 1464,864.2 			"/>
		</g>
		<polygon class="st25" points="1373.5,805.5 1683.2,907.1 1586.9,836.7 1425.2,801.7 1408.6,804 1544.7,841.9 1392,805.5 		"/>
		<polygon class="st25" points="1424.6,793.3 1622.6,837.5 1659.2,821.1 1497,793.3 1467.3,793.3 1584.9,814.4 1561.9,815.1 
			1453.4,792.7 		"/>
		<polygon class="st25" points="1587.5,853.8 1920,1080 1920,874.9 1743.8,846.3 1612.5,839.8 		"/>
	</g>
</g>
<g id="Man">
	<g>
		<polygon class="st28" points="1450.9,775 1453.4,789.8 1424.6,790.5 1442.8,783.6 1443.3,775 		"/>
		<polygon class="st28" points="1481.7,773.8 1484.8,782.7 1467.3,790.5 1497,790.5 1491.2,772 		"/>
		<g>
			<polygon class="st29" points="1417,572.8 1428.2,575.6 1424.3,614.8 1412.6,606.1 			"/>
			<polygon class="st29" points="1412.6,606.1 1441.6,630.8 1446.6,612.1 1414.2,593.3 			"/>
			<polygon class="st28" points="1455.8,572.8 1453.5,578.4 1408,563.5 1414,546.1 			"/>
			<polygon class="st29" points="1426.2,575.1 1426.6,572 1431,565.3 1426.6,556.5 1419.6,555.4 1415.5,567 1419.1,571.7 
				1419,573.3 			"/>
			<polygon class="st29" points="1440.4,580.1 1449.2,580.7 1451.6,610.8 1440.9,609.5 			"/>
			<polygon class="st29" points="1447.6,580.6 1447.5,578.2 1449.9,572.6 1445.4,566.5 1440,566.6 1438.5,575.9 1441.8,579 
				1442,580.2 			"/>
			<polygon class="st30" points="1438,675.1 1428.2,723.5 1439.8,779.7 1453.4,777.1 1449.8,727 1470.1,670.8 			"/>
			<polygon class="st25" points="1455.8,729 1480.5,777.8 1495,774 1472.4,726.1 1474.9,685.6 1449.7,688.8 			"/>
			<path class="st28" d="M1467,599.7c1.4-0.4,2.9-0.8,4.2-1.3c6.3-2.6,8.2-8.2,9-14.2c0.7-5.8-1.8-10.2-6.9-13.2
				c-1.3-0.8-2.7-1.3-4.2-1.1c-2.3,0.2-4.4-0.6-5.7-2.2c-1.2-1.4-2.3-1.4-3.6-0.7c-1.3,0.7-2.4,1.6-2.4,3.4c0,2.1,1.4,3.5,2.1,5.2
				c5,2.5,5.1,2.5,3.2,7.5c-0.7,1.9-1.5,3.7,0,5.6c1.2-1.9,3.2-2.6,4.7-1.5c1.8,1.4,0.2,3-1,4.3c-1.3,1.4-1.7,3.4-2.6,5
				c-1.3,2.1-1,3.1,1.7,3C1466,599.5,1466.5,599.6,1467,599.7z"/>
			<path class="st28" d="M1467,599.7c-0.5-0.1-1-0.3-1.6-0.2c-2.6,0.1-3-0.9-1.7-3c1-1.6,1.3-3.5,2.6-5c1.2-1.2,2.8-2.9,1-4.3
				c-1.5-1.2-3.5-0.4-4.7,1.5c-1.6-1.9-0.8-3.7,0-5.6c1.9-5,1.8-5-3.2-7.5c-1.6,2.9-3.2,5.8-4.7,8.8c-0.9,1.8-1.7,3.6-2.3,5.5
				c-0.9,2.8-1,5.4,2.1,7.4c2.2,1.5,0.6,4.4,1.1,6.6c4.3,0.5,8.5,1.4,12.5,3C1468.4,604.4,1466.7,602.2,1467,599.7z"/>
			<polyline class="st28" points="1440.9,609.5 1457,601.5 1481.7,609.3 1477.1,646.2 1470.5,649.6 1480,690.1 1463.8,692.3 
				1459.4,674.2 1454.9,693.8 1432.3,689.1 1439.9,646 			"/>
			<g>
				<polygon class="st25" points="1469.1,691.6 1465.1,651 1448.6,646 1468.4,646 1479.7,610 1452.3,603.9 1457,601.5 1481.7,609.3 
					1477.1,646.2 1470.5,649.6 1480,690.1 				"/>
			</g>
			<path class="st1" d="M1408,563.5c0,0-11.6-15.1,6-17.5L1408,563.5z"/>
			
				<ellipse transform="matrix(0.3951 -0.9187 0.9187 0.3951 351.1988 1684.4513)" class="st1" cx="1454.6" cy="575.6" rx="3" ry="1.1"/>
		</g>
	</g>
</g>
<g id="Woman">
	<g>
		<polygon class="st25" points="1381.3,751.1 1384.8,791.4 1373.5,802.6 1383.9,802.6 1387.5,797.9 1388.6,802.6 1392,802.6 
			1389,790.8 1393,758 1386.7,735.2 		"/>
		<polygon class="st25" points="1402.6,747.1 1417.5,789 1408.6,801.1 1416.9,801.7 1419.6,795 1421.9,799.7 1425.2,798.9 
			1421.3,787.2 1415.8,751.4 1403.2,728.9 		"/>
	</g>
</g>
<g id="Skirt">
	<polygon class="st25" points="1380.4,751.9 1414.1,746 1410.7,739.3 1408.1,673.8 1388.7,668.1 1368.2,680.7 	"/>
</g>
<g id="Woman-Torso">
	<g>
		<polygon class="st28" points="1373.5,608.1 1393.4,602.5 1415.9,611.6 1414.1,642 1403.4,651.7 1414.1,689.7 1398.1,692.7 
			1393.8,672.4 1389,695.9 1363.3,685.6 1376.1,650.8 		"/>
		<polygon class="st25" points="1406.2,691.1 1398,653.4 1381.9,649.2 1401.3,646.9 1415.9,611.6 1414.1,642 1403.4,651.7 
			1414.1,689.7 		"/>
		<polygon class="st25" points="1376.1,650.8 1373.5,608.1 1378.3,606.8 		"/>
		<polygon class="st31" points="1363.3,685.6 1376.1,650.8 1366.6,686.9 		"/>
	</g>
</g>
<g id="Woman_x5F_Arm">
	<polyline class="st28" points="1330.7,615.6 1333.2,619.3 1336.6,621.1 1341.1,623.5 1370.4,646.6 1375.3,638 1344.5,620.5 
		1343.4,614.2 1340.6,613.2 1340.3,616.5 1335.7,611.2 	"/>
	<linearGradient id="SVGID_21_" gradientUnits="userSpaceOnUse" x1="1320.2086" y1="599.5883" x2="1361.8745" y2="599.5883">
		<stop  offset="1.685078e-03" style="stop-color:#F33502"/>
		<stop  offset="1" style="stop-color:#FFA084"/>
	</linearGradient>
	<path class="st32" d="M1321.7,615.6l-1.4-31.8c-0.1-1.8,1.4-3.3,3.3-3.2l35.5,2.3c1.6,0.1,2.9,1.5,2.9,3.1l-0.3,24.3
		c0,1.5-1.1,2.8-2.6,3l-33.7,5.1C1323.4,618.8,1321.7,617.4,1321.7,615.6z"/>
	<polygon class="st29" points="1340.3,618.5 1339.3,611.2 1342.8,610.8 1344.2,619 	"/>
	<linearGradient id="SVGID_22_" gradientUnits="userSpaceOnUse" x1="1332.4253" y1="588.8165" x2="1324.6858" y2="588.8165">
		<stop  offset="1.685078e-03" style="stop-color:#F33502"/>
		<stop  offset="1" style="stop-color:#FFA084"/>
	</linearGradient>
	<polygon class="st33" points="1324.7,585.1 1325.2,592.5 1332.4,592.1 1332.4,585.3 	"/>
	<linearGradient id="SVGID_23_" gradientUnits="userSpaceOnUse" x1="1325.9974" y1="587.212" x2="1334.2546" y2="587.212">
		<stop  offset="1.685078e-03" style="stop-color:#F33502"/>
		<stop  offset="1" style="stop-color:#FFA084"/>
	</linearGradient>
	<polygon class="st34" points="1326.3,583.5 1326.8,590.9 1334,590.5 1334,583.7 	"/>
	<linearGradient id="SVGID_24_" gradientUnits="userSpaceOnUse" x1="1359.3761" y1="605.7935" x2="1343.6022" y2="605.7935">
		<stop  offset="1.685078e-03" style="stop-color:#F33502"/>
		<stop  offset="1" style="stop-color:#FFA084"/>
	</linearGradient>
	<polygon class="st35" points="1343.6,602.8 1344,609.3 1359.4,607.7 1359,602.3 	"/>
	<linearGradient id="SVGID_25_" gradientUnits="userSpaceOnUse" x1="1357.8467" y1="588.6705" x2="1353.248" y2="588.6705">
		<stop  offset="1.685078e-03" style="stop-color:#F33502"/>
		<stop  offset="1" style="stop-color:#FFA084"/>
	</linearGradient>
	<polygon class="st36" points="1353.2,586.4 1353.2,591.1 1357.8,590.9 1357.8,586.2 	"/>
	<linearGradient id="SVGID_26_" gradientUnits="userSpaceOnUse" x1="1350.1924" y1="588.8035" x2="1345.0912" y2="588.8035">
		<stop  offset="1.685078e-03" style="stop-color:#F33502"/>
		<stop  offset="1" style="stop-color:#FFA084"/>
	</linearGradient>
	<polygon class="st37" points="1345.1,586 1345.1,591.7 1350.2,591.4 1350.2,586.2 	"/>
	<linearGradient id="SVGID_27_" gradientUnits="userSpaceOnUse" x1="1354.3344" y1="586.8913" x2="1359.433" y2="586.8913">
		<stop  offset="1.685078e-03" style="stop-color:#F33502"/>
		<stop  offset="1" style="stop-color:#FFA084"/>
	</linearGradient>
	<polygon class="st38" points="1354.6,584.6 1354.6,589.3 1359.2,589.1 1359.2,584.4 	"/>
	<linearGradient id="SVGID_28_" gradientUnits="userSpaceOnUse" x1="1346.1775" y1="587.0223" x2="1351.7788" y2="587.0223">
		<stop  offset="1.685078e-03" style="stop-color:#F33502"/>
		<stop  offset="1" style="stop-color:#FFA084"/>
	</linearGradient>
	<polygon class="st39" points="1346.4,584.2 1346.4,589.9 1351.5,589.6 1351.5,584.4 	"/>
	<linearGradient id="SVGID_29_" gradientUnits="userSpaceOnUse" x1="1345.0957" y1="604.1425" x2="1361.4022" y2="604.1425">
		<stop  offset="1.685078e-03" style="stop-color:#F33502"/>
		<stop  offset="1" style="stop-color:#FFA084"/>
	</linearGradient>
	<polygon class="st40" points="1345.4,601.1 1345.8,607.6 1361.1,606 1360.7,600.6 	"/>
</g>
<g id="Forearm">
	<polygon class="st28" points="1370.4,646.6 1363,640.7 1373.5,608.1 1376.9,635.1 	"/>
	<polygon class="st30" points="1370.4,646.6 1373.5,608.1 1376.9,635.1 	"/>
</g>
<g id="Head">
	<g>
		<path class="st31" d="M1380.5,586.6l1.9-16.1c0,0,4.1-12.2,15.1-2.4c0,0,6.9-3.2,5.2,8.4l1.3,22.9c0,0,10.9,1.3,6.3,8.5l-3.6,2.6
			c0,0,8.9,3.3,3.3,8.2c0,0-0.9,3.2-8.2,1.9c0,0,7,12.1-11,12.5c0,0,6.9-7-0.7-9.4c0,0-13.4-0.2-9.6-11c0,0-11.5-4.9-1-10.1
			L1380.5,586.6z"/>
		<path class="st27" d="M1406.6,610.6l3.6-2.6c4.6-7.2-6.3-8.5-6.3-8.5l-0.7-12.2c-3.3,3.4-7.7,5.4-12.5,5.4
			c-3.9,0-7.5-1.3-10.5-3.6l-1,13.7c-10.5,5.2,1,10.1,1,10.1c-3.8,10.7,9.6,11,9.6,11c7.7,2.4,0.7,9.4,0.7,9.4
			c18-0.3,11-12.5,11-12.5c7.4,1.3,8.2-1.9,8.2-1.9C1415.5,613.9,1406.6,610.6,1406.6,610.6z"/>
	</g>
</g>
<g id="tree">
	<g>
		<polygon class="st25" points="1831.7,560.1 1829.2,559.9 1813.5,607.9 1791.9,606.1 1802.7,563.1 1797.7,562.7 1773.1,632.4 
			1723.3,628.3 1722.6,577 1711.4,583.6 1705.8,626.9 1705.8,626.9 1705.8,626.9 1701.3,662.4 1655.1,667.2 1630.3,600.9 
			1621.2,600.9 1646.2,682.4 1691.5,686 1634.4,740.5 1626.8,838.2 1712.3,858.8 1670.8,750.5 1724.1,682.6 1723.6,647.2 
			1782.7,642.8 1789.6,615.2 1818.3,613.1 		"/>
		<polygon class="st27" points="1635.3,843.7 1637.9,741.1 1691.5,686 1634.4,740.5 1626.8,838.2 		"/>
		<polygon class="st31" points="1701.3,662.4 1722.6,577 1711.4,583.6 		"/>
		<polygon class="st31" points="1646.2,682.4 1630.3,600.9 1621.2,600.9 		"/>
		<polygon class="st31" points="1773.1,632.4 1802.7,563.1 1797.7,562.7 		"/>
		<polygon class="st31" points="1813.5,607.9 1831.7,560.1 1829.2,559.9 		"/>
		<path class="st28" d="M1890.7,516.3c-3.5,0-6.7,1-9.5,2.7c-4-3.6-8.9-6-14.4-7c19-13.6,31.5-35.9,31.5-61c0-41.4-33.6-75-75-75
			c-10.2,0-19.9,2-28.8,5.7c-4.7-9.3-14.3-15.6-25.5-15.6c-6.1,0-11.8,1.9-16.4,5.2c-22.2-29.8-57.6-49-97.6-49
			c-67.2,0-121.6,54.4-121.6,121.6c0,7.3,0.7,14.4,1.9,21.3c-9.5,4.4-17.2,11.8-22,21c-14.3,1.6-25.4,13.7-25.4,28.4
			c0,9.4,4.6,17.7,11.6,22.9c-2.3,4.1-3.6,8.9-3.6,13.9c0,15.8,12.8,28.6,28.6,28.6c2.2,0,4.3-0.3,6.4-0.7c1.8,2.9,4,5.5,6.4,7.9
			c-7.2,1.4-13.4,5.4-17.6,11c-1-0.2-2-0.3-3-0.3c-10.1,0-18.3,8.2-18.3,18.3c0,10.1,8.2,18.3,18.3,18.3c1.5,0,3-0.2,4.3-0.5
			c5.2,6,12.9,9.8,21.6,9.8c5.2,0,10.1-1.4,14.3-3.9c8.4,8.1,19.8,13,32.3,13c16.7,0,31.3-8.7,39.5-21.9c2.8,0.3,5.6,0.5,8.5,0.5
			c8.6,0,16.9-1.5,24.7-4.2c6.7,3.7,14.3,5.8,22.5,5.8c19.2,0,35.6-11.6,42.8-28.1c7.7,2.7,16.1,4.2,24.7,4.2
			c21.4,0,40.8-9,54.4-23.4c5.7,2.4,11.9,3.8,18.4,3.8c16.4,0,30.8-8.5,39.1-21.2c10.5-0.7,19.5-7,23.8-16c0.9,0.2,1.9,0.3,2.9,0.3
			c10.1,0,18.3-8.2,18.3-18.3C1909,524.5,1900.8,516.3,1890.7,516.3z"/>
		<polygon class="st31" points="1655.1,667.2 1701.3,662.4 1708.4,664.5 		"/>
		<polygon class="st31" points="1723.3,628.3 1723.3,630.8 1773.1,632.4 		"/>
		<polygon class="st31" points="1791.9,606.1 1791.2,608.1 1813.5,607.9 		"/>
		<g>
			<path class="st25" d="M1890.7,516.3c-3.5,0-6.7,1-9.5,2.7c-4-3.6-8.9-6-14.4-7c19-13.6,31.5-35.9,31.5-61c0-41.4-33.6-75-75-75
				c-10.2,0-19.9,2-28.8,5.7c-4.7-9.3-14.3-15.6-25.5-15.6c-6.1,0-11.8,1.9-16.4,5.2c-22.2-29.8-57.6-49-97.6-49
				c-13.2,0-25.9,2.1-37.7,6c115.2-3.9,109.1,72.7,109.1,72.7c49.4-31.4,57.1,8.1,57.1,8.1c132.3-1.7,52.6,98.4,52.6,98.4
				c39.8,7.7,9.8,36.1,9.8,36.1c-14.2,30.1-36.1,2.2-36.1,2.2c-1.3,23.4-22,8.9-22,8.9c-20.7,32.2-61.5,1.7-61.5,1.7
				c3.6,53.9-67.3,32.2-67.3,32.2c-10.8,28.4-50.3,17.6-50.3,17.6c6.8,35-51.8,34-51.8,34c8.4,8.1,19.8,13,32.3,13
				c16.7,0,31.3-8.7,39.5-21.9c2.8,0.3,5.6,0.5,8.5,0.5c8.6,0,16.9-1.5,24.7-4.2c6.7,3.7,14.3,5.8,22.5,5.8
				c19.2,0,35.6-11.6,42.8-28.1c7.7,2.7,16.1,4.2,24.7,4.2c21.4,0,40.8-9,54.4-23.4c5.7,2.4,11.9,3.8,18.4,3.8
				c16.4,0,30.8-8.5,39.1-21.2c10.5-0.7,19.5-7,23.8-16c0.9,0.2,1.9,0.3,2.9,0.3c10.1,0,18.3-8.2,18.3-18.3
				C1909,524.5,1900.8,516.3,1890.7,516.3z"/>
		</g>
		<path class="st28" d="M1531,579.4c0,0-32.5-19.3-18.4-41.4c0,0-18.9-30.2,9.7-41.3c0,0,7-29.2,42.2-23.1c0,0-33.5-59.7,30.8-135.5
			"/>
		<g>
			<path class="st31" d="M1533.5,444c0,7.3,0.7,14.4,1.9,21.3c-9.5,4.4-17.2,11.8-22,21c-14.3,1.6-25.4,13.7-25.4,28.4
				c0,9.4,4.6,17.7,11.6,22.9c-2.3,4.1-3.6,8.9-3.6,13.9c0,15.8,12.8,28.6,28.6,28.6c2.2,0,4.3-0.3,6.4-0.7c0,0-32.5-19.3-18.4-41.4
				c0,0-18.9-30.2,9.7-41.3c0,0,6.4-26.3,37.1-23.8c1.6,0.1,3.3,0.3,5.1,0.6c0,0-1.5-2.7-3.3-7.6c-6.5-18.3-16.7-68.1,34-127.8
				C1558.4,359,1533.5,398.6,1533.5,444z"/>
			<path class="st41" d="M1595.3,338.1C1595.3,338.1,1595.3,338.1,1595.3,338.1L1595.3,338.1
				C1595.3,338.1,1595.3,338.1,1595.3,338.1z"/>
		</g>
		<path class="st42" d="M1578,546.1c-3.7,11.1-0.5,20.3-2.4,24.8c-2.5,5.9-11.6,6-18.5,6c-17.4,0-31.5-14.1-31.5-31.5
			s14.1-31.5,31.5-31.5c14.7,0,27,10,30.5,23.6C1588.2,540.2,1578.8,543.6,1578,546.1z"/>
		<g>
			<linearGradient id="SVGID_30_" gradientUnits="userSpaceOnUse" x1="1548.3969" y1="564.4905" x2="1573.877" y2="564.4905">
				<stop  offset="1.685078e-03" style="stop-color:#F33502"/>
				<stop  offset="1" style="stop-color:#FFA084"/>
			</linearGradient>
			<path class="st43" d="M1573,555.7c-2.8-5.6-11.9-2.3-11.9-2.3s-9.1-3.2-11.9,2.4c-2.8,5.6,1.3,23.1,11.9,20.5
				C1571.8,578.9,1575.8,561.3,1573,555.7z"/>
			
				<ellipse transform="matrix(1 -3.191250e-03 3.191250e-03 1 -1.7644 4.9848)" class="st44" cx="1561.1" cy="555.4" rx="4.2" ry="1.4"/>
			<path class="st44" d="M1561.1,555.9c-0.2,0-0.4-0.2-0.5-0.4c0-0.1-0.5-3.6,1.8-5.4c0.2-0.2,0.5-0.1,0.7,0.1
				c0.2,0.2,0.1,0.5-0.1,0.7c-1.9,1.5-1.5,4.5-1.4,4.5C1561.6,555.6,1561.5,555.8,1561.1,555.9
				C1561.2,555.9,1561.1,555.9,1561.1,555.9z"/>
		</g>
		<path class="st31" d="M1521.2,634.2c0,0-17.2-7.7-13.1-20.2c4.1-12.5,24.1-3.9,24.1-3.9s-9.3-14.8,12.7-16.9c0,0,4.9-30,38.2-7.2
			c0,0-24.5-59.7,33.1-49.3c0,0-51.3-17.9-44.4,36.2c0,0-22.8-9.1-34.5,14.4c0,0-8.6-3.1-17.6,11c0,0-16.8-4-21.2,11.4
			C1494.3,625.1,1504.3,638.2,1521.2,634.2z"/>
		<g>
			<circle class="st42" cx="1742.2" cy="485.7" r="31.5"/>
			<g>
				<linearGradient id="SVGID_31_" gradientUnits="userSpaceOnUse" x1="1734.0687" y1="497.7519" x2="1763.8345" y2="497.7519">
					<stop  offset="1.685078e-03" style="stop-color:#F33502"/>
					<stop  offset="1" style="stop-color:#FFA084"/>
				</linearGradient>
				<path class="st45" d="M1759.8,484.6c-5.1-5-13.7,1.9-13.7,1.9s-11-0.1-12,7c-1,7.1,9.9,24.6,20.4,17.8
					C1767.1,510.1,1764.9,489.6,1759.8,484.6z"/>
				
					<ellipse transform="matrix(0.9459 -0.3244 0.3244 0.9459 -64.035 593.1612)" class="st44" cx="1746.8" cy="488.6" rx="4.8" ry="1.6"/>
				<path class="st44" d="M1747,489.1c-0.3,0.1-0.5,0-0.7-0.3c-0.1-0.1-1.9-3.7,0-6.5c0.2-0.3,0.5-0.3,0.8-0.2
					c0.3,0.2,0.3,0.5,0.2,0.8c-1.5,2.3,0.1,5.4,0.1,5.4C1747.5,488.6,1747.4,489,1747,489.1C1747.1,489.1,1747,489.1,1747,489.1z"/>
			</g>
			<path class="st25" d="M1701.3,536.4c0,0,32.7-34.5,64.4-6c0,0-9.6-52.4,59.5-50.5c0,0-62.3-18.2-69.7,29.4
				C1755.5,509.2,1720.5,490.8,1701.3,536.4z"/>
			<linearGradient id="SVGID_32_" gradientUnits="userSpaceOnUse" x1="1754.9907" y1="492.5978" x2="1825.3561" y2="492.5978">
				<stop  offset="1.685078e-03" style="stop-color:#F33502"/>
				<stop  offset="1" style="stop-color:#FFA084;stop-opacity:0"/>
			</linearGradient>
			<path class="st46" d="M1825.2,479.8c0,0-62.3-18.2-69.7,29.4"/>
			<linearGradient id="SVGID_33_" gradientUnits="userSpaceOnUse" x1="1700.859" y1="520.7939" x2="1755.7173" y2="520.7939">
				<stop  offset="0" style="stop-color:#FFA084;stop-opacity:0"/>
				<stop  offset="1" style="stop-color:#F33502"/>
			</linearGradient>
			<path class="st47" d="M1755.5,509.2c0,0-35-18.4-54.2,27.2"/>
		</g>
		<linearGradient id="SVGID_34_" gradientUnits="userSpaceOnUse" x1="1536.9331" y1="579.0989" x2="1572.041" y2="579.0989">
			<stop  offset="0" style="stop-color:#FFA084;stop-opacity:0"/>
			<stop  offset="1" style="stop-color:#F33502"/>
		</linearGradient>
		<path class="st48" d="M1571.9,572.9c0,0-22.8-9.1-34.5,14.4"/>
		<linearGradient id="SVGID_35_" gradientUnits="userSpaceOnUse" x1="1570.7189" y1="553.1793" x2="1616.4661" y2="553.1793">
			<stop  offset="1.685078e-03" style="stop-color:#F33502"/>
			<stop  offset="1" style="stop-color:#FFA084;stop-opacity:0"/>
		</linearGradient>
		<path class="st49" d="M1616.3,536.7c0,0-51.3-17.9-44.4,36.2"/>
		<g>
			<circle class="st42" cx="1630.4" cy="437.8" r="26.8"/>
			<g>
				<linearGradient id="SVGID_36_" gradientUnits="userSpaceOnUse" x1="1619.7699" y1="451.5664" x2="1640.9612" y2="451.5664">
					<stop  offset="1.685078e-03" style="stop-color:#F33502"/>
					<stop  offset="1" style="stop-color:#FFA084"/>
				</linearGradient>
				<path class="st50" d="M1640.9,447.7c-1-5-8.8-4.5-8.8-4.5s-6.4-4.6-9.9-0.8s-4.2,18.5,4.8,18.8
					C1634.7,465.7,1641.8,452.8,1640.9,447.7z"/>
				
					<ellipse transform="matrix(0.2719 -0.9623 0.9623 0.2719 759.9248 1894.0046)" class="st44" cx="1631.6" cy="444.8" rx="1.1" ry="3.4"/>
				<path class="st44" d="M1631.5,445.2c-0.2-0.1-0.3-0.2-0.3-0.4c0-0.1,0.4-2.9,2.6-3.8c0.2-0.1,0.4,0,0.5,0.2
					c0.1,0.2,0,0.4-0.2,0.5c-1.8,0.7-2.1,3.2-2.2,3.2C1632,445.1,1631.8,445.2,1631.5,445.2C1631.5,445.2,1631.5,445.2,1631.5,445.2
					z"/>
			</g>
			<path class="st25" d="M1577.2,453.4c0,0,39.6-8.3,48,27c0,0,18.7-41.4,66.2-6.5c0,0-34.8-43-63.1-13.3
				C1628.3,460.6,1612.7,430.8,1577.2,453.4z"/>
			
				<linearGradient id="SVGID_37_" gradientUnits="userSpaceOnUse" x1="1359.3627" y1="1197.9438" x2="1419.4008" y2="1197.9438" gradientTransform="matrix(0.8221 0.5694 -0.5694 0.8221 1200.5463 -1310.1067)">
				<stop  offset="1.685078e-03" style="stop-color:#F33502"/>
				<stop  offset="1" style="stop-color:#FFA084;stop-opacity:0"/>
			</linearGradient>
			<path class="st51" d="M1691.3,473.9c0,0-34.8-43-63.1-13.3"/>
			
				<linearGradient id="SVGID_38_" gradientUnits="userSpaceOnUse" x1="1313.2531" y1="1221.9727" x2="1360.0894" y2="1221.9727" gradientTransform="matrix(0.8221 0.5694 -0.5694 0.8221 1200.5463 -1310.1067)">
				<stop  offset="0" style="stop-color:#FFA084;stop-opacity:0"/>
				<stop  offset="1" style="stop-color:#F33502"/>
			</linearGradient>
			<path class="st52" d="M1628.3,460.6c0,0-15.6-29.9-51.1-7.3"/>
		</g>
	</g>
</g>
<g id="bush_x5F_Guide">
	<g>
		<circle class="st25" cx="1690" cy="837" r="11.9"/>
		<circle class="st25" cx="1705.8" cy="829.2" r="18.1"/>
		<circle class="st28" cx="1689.1" cy="836.1" r="10.5"/>
		<g>
			<ellipse class="st28" cx="1705.8" cy="828.7" rx="17.6" ry="16.6"/>
			<circle class="st25" cx="1731.4" cy="835.2" r="18.1"/>
			<circle class="st28" cx="1730.2" cy="834.6" r="16.4"/>
		</g>
		<path class="st31" d="M1688.1,828.6c1.8-7.1,9-12.5,17.7-12.5c6.7,0,12.5,3.2,15.7,7.9c2.9-1.6,6.3-2.6,9.9-2.6
			c9.6,0,17.5,6.6,18.1,14.9c0-0.4,0.1-0.8,0.1-1.2c0-10-8.1-18.1-18.1-18.1c-3.7,0-7.1,1.1-9.9,3c-3.1-5.4-9-9-15.7-9
			c-8.7,0-15.9,6.1-17.7,14.2c-5.7,0.9-10,5.8-10,11.8c0,0.3,0,0.7,0.1,1C1678.6,833.2,1682.8,829.4,1688.1,828.6z"/>
	</g>
	<g>
		<g>
			<g>
				<path class="st31" d="M1718.6,788.8c0,0,3.1-18.5,28.7-19.5C1747.3,769.4,1743,789.8,1718.6,788.8z"/>
				<path class="st28" d="M1718.6,788.8c0,0,2.7-15.7,24.4-16.6C1743,772.2,1739.3,789.6,1718.6,788.8z"/>
			</g>
			<g>
				<path class="st31" d="M1705.8,793.8c0,0-24.9-0.5-31.2-33.9C1674.6,759.9,1702.4,761.6,1705.8,793.8z"/>
				<path class="st28" d="M1705.8,793.9c0,0-21.2-0.5-26.5-28.9C1679.2,765,1702.8,766.4,1705.8,793.9z"/>
			</g>
			<g>
				<path class="st31" d="M1718,771.4c0,0-29.5-21.1-9.5-66.3C1708.6,705.1,1740.4,730,1718,771.4z"/>
				<path class="st28" d="M1717.9,771.4c0,0-25.1-18-8.1-56.4C1709.9,715,1737,736.1,1717.9,771.4z"/>
			</g>
			<path class="st25" d="M1716.8,790c12.5-2.7,26.4-16.5,27-17.1c0.4-0.4,0.4-1.1,0-1.5c-0.4-0.4-1.1-0.4-1.5,0
				c-0.1,0.1-13.4,13.3-25.1,16.3c6.6-40.4-5.1-73.1-5.3-73.6c-0.4-1.1-1.6-1.6-2.7-1.2c-1.1,0.4-1.6,1.6-1.2,2.7
				c0.2,0.5,14.6,40.6,1.8,86.4c-1.5-7.1-5.8-14.8-12.8-22.7c-8.1-9-16.9-15.2-17-15.3c-0.5-0.3-1.1-0.2-1.5,0.3
				c-0.3,0.5-0.2,1.1,0.3,1.5c0.3,0.2,29.4,20.7,29.5,41.4c-3,9.4-7.2,19-13,28.5c-0.6,0.9-0.3,2.2,0.6,2.8c0,0,0.1,0.1,0.1,0.1
				c1,0.6,2.3,0.3,2.9-0.7C1708.5,821.8,1714,805.4,1716.8,790z"/>
		</g>
		<g>
			<g>
				<path class="st31" d="M1727.9,812.3c0,0,7-5.3,15.9,2.6C1743.8,814.9,1735.8,820.4,1727.9,812.3z"/>
				<path class="st28" d="M1727.9,812.3c0,0,5.9-4.5,13.5,2.2C1741.5,814.5,1734.7,819.2,1727.9,812.3z"/>
			</g>
			<g>
				<path class="st31" d="M1722,809.9c0,0-8.3-8.1,0.3-21.4C1722.2,788.5,1731.1,797.9,1722,809.9z"/>
				<path class="st28" d="M1721.9,809.9c0,0-7-6.9,0.2-18.2C1722.2,791.7,1729.7,799.7,1721.9,809.9z"/>
			</g>
			<g>
				<path class="st31" d="M1733.3,806.3c0,0-3.2-16.6,17.9-25.5C1751.2,780.8,1754.1,799.4,1733.3,806.3z"/>
				<path class="st28" d="M1733.2,806.2c0,0-2.8-14.1,15.3-21.7C1748.5,784.5,1750.9,800.4,1733.2,806.2z"/>
			</g>
			<path class="st25" d="M1726.9,812.2c5.1,3.1,14.2,2.8,14.6,2.8c0.3,0,0.5-0.2,0.5-0.5c0-0.3-0.2-0.5-0.5-0.5
				c-0.1,0-8.8,0.2-13.7-2.5c15.1-11.6,21.6-26.4,21.7-26.6c0.2-0.5,0-1.1-0.5-1.3c-0.5-0.2-1.1,0-1.3,0.5c-0.1,0.2-8,18.4-27,29.8
				c1.8-2.9,2.8-6.9,2.9-11.8c0.1-5.6-0.9-10.6-0.9-10.6c-0.1-0.3-0.3-0.4-0.6-0.4c-0.3,0.1-0.4,0.3-0.4,0.6
				c0,0.2,3.4,16.4-3.2,23.4c-4,2.2-8.5,4.1-13.5,5.5c-0.5,0.1-0.8,0.6-0.7,1.1c0,0,0,0.1,0,0.1c0.1,0.5,0.7,0.8,1.2,0.7
				C1714,820.3,1721,816.5,1726.9,812.2z"/>
		</g>
		<g>
			<g>
				<path class="st31" d="M1690.1,806.8c0,0-6.4-5.9-0.3-16.1C1689.8,790.6,1696.7,797.5,1690.1,806.8z"/>
				<path class="st28" d="M1690.1,806.8c0,0-5.5-5-0.3-13.7C1689.8,793,1695.7,798.9,1690.1,806.8z"/>
			</g>
			<g>
				<path class="st31" d="M1688.8,813c0,0-6.5,9.6-21.1,3.6C1667.7,816.6,1675.4,806.2,1688.8,813z"/>
				<path class="st28" d="M1688.8,813c0,0-5.6,8.2-18,3C1670.8,816.1,1677.4,807.2,1688.8,813z"/>
			</g>
			<g>
				<path class="st31" d="M1683.2,802.6c0,0-15.7,6.1-28.3-13.1C1654.9,789.4,1672.7,783.3,1683.2,802.6z"/>
				<path class="st28" d="M1683.1,802.6c0,0-13.4,5.2-24.1-11.2C1659.1,791.4,1674.2,786.2,1683.1,802.6z"/>
			</g>
			<path class="st25" d="M1690.1,807.8c2.1-5.6,0.3-14.5,0.2-14.8c-0.1-0.3-0.3-0.4-0.6-0.4c-0.3,0.1-0.4,0.3-0.4,0.6
				c0,0.1,1.8,8.6,0,13.9c-14.1-12.8-29.8-16.5-30-16.6c-0.5-0.1-1.1,0.2-1.2,0.7c-0.1,0.5,0.2,1.1,0.7,1.2
				c0.2,0.1,19.5,4.6,34.1,21.2c-3.2-1.2-7.2-1.5-12.1-0.8c-5.6,0.9-10.2,2.8-10.3,2.8c-0.3,0.1-0.4,0.4-0.3,0.6
				c0.1,0.3,0.4,0.4,0.6,0.3c0.2-0.1,15.5-6.2,23.6-1c2.9,3.6,5.6,7.7,7.8,12.3c0.2,0.5,0.8,0.7,1.2,0.5c0,0,0.1,0,0.1,0
				c0.5-0.2,0.7-0.8,0.5-1.3C1700.4,819.1,1695.4,812.8,1690.1,807.8z"/>
		</g>
	</g>
	<g>
		<g>
			<g>
				<path class="st31" d="M1609.8,783.2c0,0-8.3-16.8,11.7-32.6C1621.5,750.6,1630,769.7,1609.8,783.2z"/>
				<path class="st28" d="M1609.7,783.2c0,0-7.1-14.3,10-27.8C1619.7,755.4,1627,771.7,1609.7,783.2z"/>
			</g>
			<g>
				<path class="st31" d="M1602.4,794.8c0,0-20.5,14.3-45.2-9.1C1557.2,785.7,1580.6,770.8,1602.4,794.8z"/>
				<path class="st28" d="M1602.4,794.8c0,0-17.4,12.1-38.4-7.7C1563.9,787.1,1583.8,774.4,1602.4,794.8z"/>
			</g>
			<g>
				<path class="st31" d="M1599.1,769.5c0,0-36.3,0.3-46.7-48C1552.3,721.4,1592.7,722.8,1599.1,769.5z"/>
				<path class="st28" d="M1599,769.5c0,0-30.9,0.2-39.8-40.9C1559.2,728.6,1593.6,729.8,1599,769.5z"/>
			</g>
			<path class="st25" d="M1609,785.3c8.5-9.5,11.6-28.8,11.7-29.7c0.1-0.6-0.3-1.1-0.9-1.2c-0.6-0.1-1.1,0.3-1.2,0.9
				c0,0.2-3,18.7-10.7,27.9c-18.4-36.6-47.2-56.1-47.6-56.3c-1-0.6-2.3-0.4-2.9,0.6c-0.6,1-0.4,2.3,0.6,2.9
				c0.4,0.3,35.7,24.2,52.3,68.8c-5.4-4.9-13.4-8.6-23.7-10.8c-11.8-2.5-22.7-2.3-22.8-2.3c-0.6,0-1,0.5-1,1.1c0,0.6,0.5,1,1.1,1
				c0.4,0,36-0.6,48.2,16.1c3.1,9.4,5.3,19.7,6.3,30.7c0.1,1.1,1,1.9,2.1,1.9c0.1,0,0.1,0,0.2,0c1.2-0.1,2-1.1,1.9-2.3
				C1621.1,815.8,1615.8,799.3,1609,785.3z"/>
		</g>
		<g>
			<g>
				<path class="st31" d="M1631.1,796.7c0,0,2.5-8.4,14.4-7.3C1645.5,789.4,1642.3,798.6,1631.1,796.7z"/>
				<path class="st28" d="M1631.1,796.7c0,0,2.2-7.1,12.2-6.2C1643.4,790.5,1640.6,798.3,1631.1,796.7z"/>
			</g>
			<g>
				<path class="st31" d="M1624.9,798.3c0,0-11.5-1.7-12.4-17.5C1612.5,780.8,1625.2,783.2,1624.9,798.3z"/>
				<path class="st28" d="M1624.9,798.3c0,0-9.8-1.4-10.6-14.9C1614.4,783.4,1625.2,785.5,1624.9,798.3z"/>
			</g>
			<g>
				<path class="st31" d="M1631.9,788.7c0,0-12.4-11.5-0.5-31.2C1631.4,757.5,1644.6,770.8,1631.9,788.7z"/>
				<path class="st28" d="M1631.8,788.7c0,0-10.5-9.8-0.4-26.5C1631.4,762.1,1642.7,773.5,1631.8,788.7z"/>
			</g>
			<path class="st25" d="M1630.2,797.2c5.9-0.5,13.1-6.1,13.4-6.3c0.2-0.2,0.3-0.5,0.1-0.7c-0.2-0.2-0.5-0.3-0.7-0.1
				c-0.1,0.1-7,5.4-12.5,6.1c5.4-18.3,1.9-34,1.8-34.3c-0.1-0.5-0.7-0.9-1.2-0.7c-0.5,0.1-0.9,0.7-0.7,1.2c0.1,0.2,4.4,19.6-4.2,40
				c-0.3-3.4-1.8-7.2-4.6-11.2c-3.2-4.6-6.9-8-7-8c-0.2-0.2-0.5-0.2-0.7,0c-0.2,0.2-0.2,0.5,0,0.7c0.1,0.1,12.4,11.3,11.2,20.8
				c-2,4.2-4.5,8.4-7.7,12.4c-0.3,0.4-0.3,1,0.1,1.3c0,0,0,0,0.1,0.1c0.4,0.3,1,0.3,1.4-0.2C1624.5,811.4,1628,804.1,1630.2,797.2z"
				/>
		</g>
		<g>
			<g>
				<path class="st31" d="M1597.3,814.5c0,0-8.7-1-9.7-12.8C1587.5,801.6,1597.2,803.2,1597.3,814.5z"/>
				<path class="st28" d="M1597.3,814.5c0,0-7.4-0.9-8.3-10.9C1589,803.6,1597.2,804.9,1597.3,814.5z"/>
			</g>
			<g>
				<path class="st31" d="M1599.9,820.3c0,0,0.4,11.6-15,15.3C1584.9,835.6,1585,822.7,1599.9,820.3z"/>
				<path class="st28" d="M1599.9,820.3c0,0,0.3,9.9-12.8,13C1587.2,833.4,1587.3,822.4,1599.9,820.3z"/>
			</g>
			<g>
				<path class="st31" d="M1589.2,815.2c0,0-9.1,14.2-30.6,6C1558.6,821.2,1569.4,805.8,1589.2,815.2z"/>
				<path class="st28" d="M1589.2,815.2c0,0-7.7,12.1-26,5.1C1563.2,820.4,1572.4,807.3,1589.2,815.2z"/>
			</g>
			<path class="st25" d="M1597.9,815.3c-1.5-5.7-8.3-11.8-8.6-12.1c-0.2-0.2-0.5-0.2-0.7,0c-0.2,0.2-0.2,0.5,0,0.7
				c0.1,0.1,6.5,5.9,8.2,11.3c-18.9-2.1-33.8,4.2-34,4.3c-0.5,0.2-0.7,0.8-0.5,1.3c0.2,0.5,0.8,0.7,1.3,0.5c0.2-0.1,18.5-7.8,40.1-3
				c-3.3,0.9-6.7,3-10.2,6.5c-4,4-6.7,8.2-6.7,8.3c-0.1,0.2-0.1,0.5,0.2,0.7c0.2,0.1,0.5,0.1,0.7-0.2c0.1-0.2,8.9-14.2,18.5-14.7
				c4.5,1.2,9,2.9,13.6,5.4c0.5,0.2,1,0.1,1.3-0.3c0,0,0,0,0-0.1c0.3-0.5,0.1-1.1-0.4-1.3C1612.9,818.4,1605.1,816.2,1597.9,815.3z"
				/>
		</g>
	</g>
	<g>
		<circle class="st25" cx="1594.9" cy="836.7" r="16"/>
		<circle class="st25" cx="1616" cy="826.3" r="24.3"/>
		<circle class="st28" cx="1593.7" cy="835.5" r="14"/>
		<g>
			<ellipse class="st28" cx="1616" cy="825.6" rx="23.6" ry="22.2"/>
			<circle class="st25" cx="1650.3" cy="834.4" r="24.3"/>
			<circle class="st28" cx="1648.7" cy="833.5" r="21.9"/>
		</g>
		<path class="st31" d="M1592.3,825.5c2.4-9.6,12.1-16.7,23.7-16.7c9,0,16.8,4.3,21,10.6c3.8-2.2,8.4-3.5,13.3-3.5
			c12.9,0,23.4,8.8,24.2,20c0-0.5,0.1-1,0.1-1.6c0-13.4-10.9-24.3-24.3-24.3c-4.9,0-9.5,1.5-13.3,4c-4.2-7.2-12-12.1-21-12.1
			c-11.6,0-21.3,8.1-23.7,19c-7.6,1.2-13.4,7.8-13.4,15.8c0,0.5,0,0.9,0.1,1.3C1579.6,831.7,1585.2,826.5,1592.3,825.5z"/>
	</g>
</g>
<g id="Left">
	<g>
		<g>
			<polygon class="st25" points="744.9,828.4 682.3,890.9 615.2,943.5 549.5,968.9 468.1,1049.7 386.1,1055.5 375.3,1080 0,1080 
				0,858.2 			"/>
			
				<linearGradient id="SVGID_39_" gradientUnits="userSpaceOnUse" x1="3359.5972" y1="948.6644" x2="2614.7361" y2="948.6644" gradientTransform="matrix(-1 0 0 1 3359.5972 0)">
				<stop  offset="0" style="stop-color:#000020"/>
				<stop  offset="0.467" style="stop-color:#2E315E"/>
				<stop  offset="0.8182" style="stop-color:#4C5086"/>
				<stop  offset="1" style="stop-color:#575C95"/>
			</linearGradient>
			<polygon class="st53" points="0,858.2 383.8,817.3 545.8,828.6 681.7,819 729.1,821 744.9,828.4 684.8,840 668.1,855.2 
				620.1,859.1 589.5,883.6 493.3,885.2 456,914.6 319.3,935.4 428.7,940.2 317.1,956 424.2,968.9 393.4,991.7 165.7,1012.2 
				107.2,1080 0,1080 			"/>
			<polygon class="st27" points="393.4,991.7 375.3,1080 424.2,968.9 			"/>
			<polygon class="st27" points="428.7,940.2 405.8,966.7 317.1,956 			"/>
			<polygon class="st27" points="589.5,883.6 615.2,943.5 620.1,859.1 			"/>
			<polygon class="st27" points="684.8,840 682.3,890.9 668.1,855.2 			"/>
			<polygon class="st27" points="493.3,885.2 468.1,1049.7 456,914.6 			"/>
		</g>
		<polygon class="st25" points="523.3,868.1 0,1024.4 0,902.6 401,854.2 507.4,848.9 		"/>
	</g>
</g>
<g id="Tree">
</g>
<g id="Bush_x5F_Guide">
	<g>
		<circle class="st25" cx="444.6" cy="846.2" r="9.7"/>
		<circle class="st25" cx="431.8" cy="839.9" r="14.7"/>
		<circle class="st28" cx="445.3" cy="845.4" r="8.5"/>
		<g>
			<ellipse class="st28" cx="431.8" cy="839.5" rx="14.2" ry="13.4"/>
			<circle class="st25" cx="411.1" cy="844.8" r="14.7"/>
			<circle class="st28" cx="412.1" cy="844.2" r="13.3"/>
		</g>
		<path class="st31" d="M446.1,839.4c-1.5-5.8-7.3-10.1-14.3-10.1c-5.4,0-10.1,2.6-12.7,6.4c-2.3-1.3-5.1-2.1-8-2.1
			c-7.8,0-14.2,5.3-14.6,12.1c0-0.3,0-0.6,0-0.9c0-8.1,6.6-14.7,14.7-14.7c3,0,5.7,0.9,8,2.4c2.5-4.4,7.3-7.3,12.7-7.3
			c7,0,12.9,4.9,14.3,11.5c4.6,0.7,8.1,4.7,8.1,9.5c0,0.3,0,0.5,0,0.8C453.8,843.1,450.4,840,446.1,839.4z"/>
	</g>
	<g>
		<g>
			<g>
				<path class="st31" d="M402.7,821c0,0-9.5-11.9-27.9-2.6C374.7,818.4,385.8,831.2,402.7,821z"/>
				<path class="st28" d="M402.7,821c0,0-8.1-10.1-23.8-2.2C378.9,818.8,388.3,829.7,402.7,821z"/>
			</g>
			<g>
				<path class="st31" d="M413.7,819.5c0,0,17.5-10.1,8.8-36.3C422.5,783.3,403.5,795.3,413.7,819.5z"/>
				<path class="st28" d="M413.8,819.5c0,0,14.9-8.6,7.5-30.9C421.3,788.7,405.1,799,413.8,819.5z"/>
			</g>
			<g>
				<path class="st31" d="M396.3,808.4c0,0,12.6-26.5-19.2-50.7C377,757.7,364.2,787.8,396.3,808.4z"/>
				<path class="st28" d="M396.3,808.4c0,0,10.7-22.6-16.4-43.2C380,765.2,369,790.8,396.3,808.4z"/>
			</g>
			<path class="st25" d="M404.5,821.1c-9.9,3-25.1-1.3-25.8-1.5c-0.5-0.1-0.7-0.6-0.6-1.1c0.1-0.4,0.6-0.7,1.1-0.6
				c0.2,0,14.7,4.2,24.2,1.7c-20.5-26.1-25-53.9-25-54.2c-0.1-0.9,0.5-1.8,1.4-1.9c0.9-0.1,1.8,0.5,1.9,1.4
				c0.1,0.4,5.5,34.5,32.6,62c-1.8-5.6-1.7-12.8,0.2-21.1c2.2-9.5,6.1-17.4,6.1-17.5c0.2-0.4,0.7-0.6,1.1-0.4
				c0.4,0.2,0.6,0.7,0.4,1.1c-0.1,0.3-12.7,26.2-4.7,40.9c5.8,5.5,12.6,10.7,20.4,15.1c0.8,0.4,1.1,1.4,0.7,2.2c0,0,0,0.1-0.1,0.1
				c-0.5,0.8-1.5,1.1-2.3,0.6C422.8,840.5,412.4,831,404.5,821.1z"/>
		</g>
		<g>
			<g>
				<path class="st31" d="M405.3,841.3c0,0-7-1-10.3,8C395,849.4,402.9,850.2,405.3,841.3z"/>
				<path class="st28" d="M405.3,841.3c0,0-6-0.9-8.8,6.8C396.5,848.1,403.2,848.8,405.3,841.3z"/>
			</g>
			<g>
				<path class="st31" d="M408.6,837.3c0,0,2.7-9-8.6-15.1C400,822.2,397.4,832.4,408.6,837.3z"/>
				<path class="st28" d="M408.6,837.3c0,0,2.3-7.7-7.3-12.8C401.3,824.4,399.1,833.1,408.6,837.3z"/>
			</g>
			<g>
				<path class="st31" d="M399.1,839.1c0,0-4.2-13-22.7-11C376.4,828.1,381.7,842.4,399.1,839.1z"/>
				<path class="st28" d="M399.1,839.1c0,0-3.6-11.1-19.3-9.4C379.8,829.7,384.3,841.8,399.1,839.1z"/>
			</g>
			<path class="st25" d="M405.9,840.8c-2.4,4.2-8.9,7.6-9.2,7.7c-0.2,0.1-0.4,0-0.5-0.2c-0.1-0.2,0-0.4,0.2-0.5
				c0.1,0,6.3-3.3,8.7-7.1c-15.3-2.3-25.6-10.3-25.8-10.4c-0.3-0.3-0.4-0.8-0.1-1.1c0.3-0.3,0.8-0.4,1.1-0.1
				c0.2,0.1,12.9,9.9,30.8,10.6c-2.4-1.3-4.7-3.8-6.7-7.2c-2.3-3.9-3.5-7.8-3.5-7.9c-0.1-0.2,0.1-0.4,0.3-0.5
				c0.2-0.1,0.4,0.1,0.5,0.3c0,0.1,4,12.9,11.5,15.4c3.7,0,7.7-0.4,11.7-1.4c0.4-0.1,0.8,0.1,0.9,0.5c0,0,0,0,0,0.1
				c0.1,0.4-0.2,0.9-0.6,1C418.3,841.5,411.8,841.6,405.9,840.8z"/>
		</g>
		<g>
			<g>
				<path class="st31" d="M429.9,822.6c0,0,2.2-6.7-6.1-11.6C423.8,811,421.6,818.6,429.9,822.6z"/>
				<path class="st28" d="M429.9,822.5c0,0,1.9-5.7-5.2-9.8C424.8,812.7,422.9,819.2,429.9,822.5z"/>
			</g>
			<g>
				<path class="st31" d="M433.3,826.5c0,0,8.4,4.2,16.4-5.8C449.7,820.7,440.1,816.4,433.3,826.5z"/>
				<path class="st28" d="M433.3,826.5c0,0,7.1,3.6,13.9-4.9C447.2,821.6,439.1,817.9,433.3,826.5z"/>
			</g>
			<g>
				<path class="st31" d="M433.2,816.9c0,0,13.5-1.8,14.9-20.4C448.1,796.5,433.1,799.1,433.2,816.9z"/>
				<path class="st28" d="M433.2,816.9c0,0,11.5-1.5,12.7-17.3C445.9,799.5,433.1,801.8,433.2,816.9z"/>
			</g>
			<path class="st25" d="M430.3,823.3c-3.7-3.1-5.8-10.1-5.9-10.5c-0.1-0.2,0.1-0.4,0.3-0.5c0.2-0.1,0.4,0.1,0.5,0.3
				c0,0.1,2.1,6.8,5.5,9.9c5-14.6,14.7-23.4,14.8-23.5c0.3-0.3,0.8-0.3,1.1,0.1c0.3,0.3,0.3,0.8-0.1,1.1c-0.1,0.1-12,10.9-15.9,28.4
				c1.7-2.1,4.5-3.9,8.3-5.3c4.3-1.6,8.3-2.1,8.4-2.1c0.2,0,0.4,0.1,0.4,0.3c0,0.2-0.1,0.4-0.3,0.4c-0.1,0-13.5,1.7-17.1,8.5
				c-0.7,3.7-1,7.6-0.7,11.8c0,0.4-0.3,0.8-0.7,0.8c0,0,0,0-0.1,0c-0.4,0-0.8-0.3-0.8-0.7C427.4,835.3,428.5,828.9,430.3,823.3z"/>
		</g>
	</g>
	<g>
		<g>
			<g>
				<path class="st31" d="M466,805.3c0,0-0.9-15.2-21.4-18.2C444.6,787.1,446.3,803.9,466,805.3z"/>
				<path class="st28" d="M466,805.2c0,0-0.8-12.9-18.2-15.5C447.8,789.7,449.3,804.1,466,805.2z"/>
			</g>
			<g>
				<path class="st31" d="M475.9,810.4c0,0,20.1,1.8,28.1-24.6C504,785.8,481.5,784.8,475.9,810.4z"/>
				<path class="st28" d="M475.9,810.4c0,0,17.1,1.5,23.9-20.9C499.8,789.5,480.7,788.6,475.9,810.4z"/>
			</g>
			<g>
				<path class="st31" d="M468,791.3c0,0,25.6-14.4,13.5-52.6C481.5,738.7,453.7,755.9,468,791.3z"/>
				<path class="st28" d="M468.1,791.3c0,0,21.8-12.3,11.5-44.7C479.6,746.6,455.9,761.2,468.1,791.3z"/>
			</g>
			<path class="st25" d="M467.4,806.4c-9.8-3.2-19.8-15.6-20.2-16.1c-0.3-0.4-0.2-0.9,0.1-1.2c0.4-0.3,0.9-0.2,1.2,0.1
				c0.1,0.1,9.6,11.9,18.8,15.3c-1.8-33.1,10.6-58.4,10.8-58.8c0.4-0.8,1.4-1.2,2.3-0.8c0.8,0.4,1.2,1.4,0.8,2.3
				c-0.2,0.4-15.3,31.4-9.1,69.4c1.8-5.6,5.9-11.4,12.3-17.1c7.3-6.5,15-10.8,15.1-10.8c0.4-0.2,0.9-0.1,1.2,0.3
				c0.2,0.4,0.1,0.9-0.3,1.2c-0.3,0.1-25.5,14.1-27.4,30.7c1.6,7.9,4.2,16,8,24.1c0.4,0.8,0.1,1.8-0.7,2.2c0,0-0.1,0-0.1,0.1
				c-0.9,0.4-1.9,0-2.3-0.8C471.2,832.7,468.3,819,467.4,806.4z"/>
		</g>
		<g>
			<g>
				<path class="st31" d="M456.4,823.4c0,0-5.1-4.9-13,0.7C443.4,824,449.4,829.2,456.4,823.4z"/>
				<path class="st28" d="M456.4,823.3c0,0-4.4-4.1-11.1,0.6C445.3,823.9,450.4,828.3,456.4,823.3z"/>
			</g>
			<g>
				<path class="st31" d="M461.4,822c0,0,7.4-5.8,1.7-17.3C463.1,804.7,455.2,811.5,461.4,822z"/>
				<path class="st28" d="M461.5,822c0,0,6.3-5,1.4-14.7C462.9,807.3,456.1,813,461.5,822z"/>
			</g>
			<g>
				<path class="st31" d="M452.7,818c0,0,4.1-13-12.2-22.1C440.5,795.9,436.5,810.6,452.7,818z"/>
				<path class="st28" d="M452.7,818c0,0,3.5-11.1-10.4-18.8C442.3,799.2,439,811.7,452.7,818z"/>
			</g>
			<path class="st25" d="M457.3,823.3c-4.4,2-11.7,1-12,1c-0.2,0-0.4-0.2-0.3-0.4c0-0.2,0.2-0.4,0.4-0.3c0.1,0,7.1,1,11.2-0.8
				c-11.2-10.7-15-23.2-15.1-23.3c-0.1-0.4,0.1-0.9,0.5-1c0.4-0.1,0.9,0.1,1,0.5c0.1,0.2,4.8,15.5,19.1,26.4
				c-1.2-2.5-1.6-5.8-1.3-9.7c0.4-4.5,1.6-8.4,1.7-8.5c0.1-0.2,0.3-0.3,0.5-0.3c0.2,0.1,0.3,0.3,0.3,0.5c0,0.1-4.1,12.9,0.5,19.1
				c3.1,2.1,6.5,4.1,10.4,5.6c0.4,0.2,0.6,0.6,0.5,1c0,0,0,0,0,0.1c-0.2,0.4-0.6,0.6-1,0.4C467,831,461.6,827.3,457.3,823.3z"/>
		</g>
		<g>
			<g>
				<path class="st31" d="M487.4,822.2c0,0,5.7-4.2,1.7-12.9C489.1,809.3,482.9,814.2,487.4,822.2z"/>
				<path class="st28" d="M487.4,822.2c0,0,4.8-3.6,1.4-11C488.8,811.2,483.6,815.4,487.4,822.2z"/>
			</g>
			<g>
				<path class="st31" d="M487.9,827.4c0,0,4.4,8.3,16.7,4.7C504.6,832.1,499.3,823,487.9,827.4z"/>
				<path class="st28" d="M487.9,827.4c0,0,3.8,7.1,14.2,4C502.1,831.4,497.6,823.7,487.9,827.4z"/>
			</g>
			<g>
				<path class="st31" d="M493.3,819.4c0,0,12.1,6.3,23.9-8.1C517.3,811.4,503.5,804.9,493.3,819.4z"/>
				<path class="st28" d="M493.4,819.5c0,0,10.3,5.4,20.4-6.9C513.7,812.6,502,807.1,493.4,819.5z"/>
			</g>
			<path class="st25" d="M487.3,823c-1.2-4.7,1.1-11.7,1.2-12c0.1-0.2,0.3-0.3,0.5-0.3c0.2,0.1,0.3,0.3,0.3,0.5
				c0,0.1-2.2,6.8-1.2,11.2c12.5-9.1,25.5-10.7,25.6-10.7c0.4,0,0.8,0.3,0.9,0.7c0,0.4-0.3,0.8-0.7,0.9c-0.2,0-16.1,2-29.4,14.1
				c2.6-0.7,6-0.6,9.8,0.5c4.4,1.2,8,3.1,8,3.1c0.2,0.1,0.3,0.3,0.2,0.5c-0.1,0.2-0.3,0.3-0.5,0.2c-0.1-0.1-12-6.4-18.9-2.9
				c-2.7,2.6-5.2,5.7-7.4,9.2c-0.2,0.4-0.7,0.5-1,0.3c0,0,0,0-0.1,0c-0.4-0.2-0.5-0.7-0.3-1.1C478,831.2,482.6,826.6,487.3,823z"/>
		</g>
	</g>
	<g>
		<circle class="st25" cx="518.2" cy="851" r="15.2"/>
		<circle class="st25" cx="498.1" cy="841" r="23.2"/>
		<circle class="st28" cx="519.4" cy="849.8" r="13.4"/>
		<g>
			<ellipse class="st28" cx="498.1" cy="840.3" rx="22.5" ry="21.2"/>
			<circle class="st25" cx="465.4" cy="848.7" r="23.2"/>
			<circle class="st28" cx="466.9" cy="847.8" r="20.9"/>
		</g>
		<path class="st31" d="M520.6,840.3c-2.3-9.1-11.5-15.9-22.6-15.9c-8.5,0-16,4.1-20,10.1c-3.6-2.1-8-3.3-12.7-3.3
			c-12.3,0-22.3,8.4-23.1,19.1c0-0.5-0.1-1-0.1-1.5c0-12.8,10.4-23.2,23.2-23.2c4.7,0,9,1.4,12.7,3.8c4-6.9,11.5-11.5,20-11.5
			c11,0,20.3,7.7,22.6,18.1c7.3,1.2,12.8,7.4,12.8,15c0,0.4,0,0.9-0.1,1.3C532.7,846.1,527.4,841.2,520.6,840.3z"/>
	</g>
	<g>
		<circle class="st25" cx="125.6" cy="887.2" r="13.9"/>
		<circle class="st25" cx="107.2" cy="878.1" r="21.2"/>
		<circle class="st28" cx="126.7" cy="886.1" r="12.2"/>
		<g>
			<ellipse class="st28" cx="107.2" cy="877.5" rx="20.5" ry="19.3"/>
			<circle class="st25" cx="77.3" cy="885.1" r="21.2"/>
			<circle class="st28" cx="78.7" cy="884.3" r="19.1"/>
		</g>
		<path class="st31" d="M127.8,877.4c-2.1-8.3-10.5-14.5-20.6-14.5c-7.8,0-14.6,3.7-18.3,9.2c-3.3-1.9-7.3-3.1-11.6-3.1
			c-11.2,0-20.4,7.7-21.1,17.4c0-0.5-0.1-0.9-0.1-1.4c0-11.7,9.5-21.2,21.2-21.2c4.3,0,8.3,1.3,11.6,3.5
			c3.7-6.3,10.5-10.5,18.3-10.5c10.1,0,18.5,7.1,20.6,16.5c6.6,1.1,11.7,6.8,11.7,13.7c0,0.4,0,0.8-0.1,1.2
			C138.9,882.8,134,878.3,127.8,877.4z"/>
	</g>
	<g>
		<g>
			<g>
				<path class="st31" d="M70.3,861.6c0,0-13.6-17.1-40.3-3.7C30.1,858,46,876.4,70.3,861.6z"/>
				<path class="st28" d="M70.3,861.6c0,0-11.6-14.6-34.3-3.1C36.1,858.4,49.6,874.1,70.3,861.6z"/>
			</g>
			<g>
				<path class="st31" d="M86.2,859.5c0,0,25.2-14.6,12.7-52.2C98.9,807.3,71.6,824.7,86.2,859.5z"/>
				<path class="st28" d="M86.3,859.5c0,0,21.4-12.4,10.8-44.5C97.1,815.1,73.8,829.9,86.3,859.5z"/>
			</g>
			<g>
				<path class="st31" d="M61.1,843.5c0,0,18.2-38.2-27.7-73.1C33.3,770.4,14.8,813.8,61.1,843.5z"/>
				<path class="st28" d="M61.2,843.5c0,0,15.5-32.5-23.6-62.2C37.6,781.2,21.8,818.2,61.2,843.5z"/>
			</g>
			<path class="st25" d="M72.9,861.8c-14.3,4.3-36.2-1.9-37.2-2.2c-0.7-0.2-1-0.9-0.8-1.5c0.2-0.6,0.9-1,1.5-0.8
				c0.2,0.1,21.2,6.1,34.8,2.5c-29.6-37.6-36-77.6-36.1-78.2c-0.2-1.3,0.7-2.6,2.1-2.8c1.3-0.2,2.6,0.7,2.8,2.1
				c0.1,0.6,8,49.7,46.9,89.3c-2.5-8.1-2.5-18.4,0.3-30.4c3.2-13.7,8.7-25.1,8.8-25.2c0.3-0.6,1-0.9,1.6-0.6c0.6,0.3,0.8,1,0.6,1.6
				c-0.2,0.4-18.4,37.8-6.8,58.9c8.4,7.9,18.1,15.4,29.4,21.8c1.1,0.6,1.5,2,1,3.2c0,0.1-0.1,0.1-0.1,0.2c-0.7,1.2-2.2,1.6-3.4,0.9
				C99.3,889.7,84.4,876,72.9,861.8z"/>
		</g>
		<g>
			<g>
				<path class="st31" d="M74.1,890.9c0,0-10.1-1.4-14.8,11.6C59.3,902.5,70.6,903.7,74.1,890.9z"/>
				<path class="st28" d="M74.1,890.9c0,0-8.6-1.2-12.6,9.9C61.5,900.8,71.1,901.7,74.1,890.9z"/>
			</g>
			<g>
				<path class="st31" d="M78.8,885.1c0,0,3.9-13-12.4-21.7C66.4,863.4,62.7,878,78.8,885.1z"/>
				<path class="st28" d="M78.8,885.1c0,0,3.3-11-10.5-18.5C68.3,866.6,65.1,879,78.8,885.1z"/>
			</g>
			<g>
				<path class="st31" d="M65.2,887.7c0,0-6-18.7-32.7-15.9C32.5,871.8,40,892.4,65.2,887.7z"/>
				<path class="st28" d="M65.2,887.7c0,0-5.1-16-27.8-13.5C37.4,874.1,43.8,891.7,65.2,887.7z"/>
			</g>
			<path class="st25" d="M75,890.2c-3.5,6-12.9,10.9-13.3,11.1c-0.3,0.1-0.6,0-0.8-0.2c-0.1-0.3,0-0.6,0.2-0.8
				c0.1,0,9.1-4.7,12.6-10.3c-22-3.3-36.9-14.8-37.1-15c-0.5-0.4-0.6-1.1-0.2-1.6c0.4-0.5,1.1-0.6,1.6-0.2
				c0.2,0.2,18.5,14.3,44.4,15.3c-3.4-1.9-6.7-5.4-9.6-10.4c-3.3-5.7-5.1-11.3-5.1-11.3c-0.1-0.3,0.1-0.6,0.4-0.7
				c0.3-0.1,0.6,0.1,0.7,0.4c0.1,0.2,5.8,18.7,16.5,22.1c5.4,0,11-0.6,16.9-2c0.6-0.1,1.2,0.2,1.4,0.8c0,0,0,0.1,0,0.1
				c0.1,0.6-0.2,1.2-0.8,1.4C92.8,891.2,83.4,891.3,75,890.2z"/>
		</g>
		<g>
			<g>
				<path class="st31" d="M109.6,863.9c0,0,3.2-9.7-8.8-16.6C100.8,847.2,97.7,858.1,109.6,863.9z"/>
				<path class="st28" d="M109.6,863.9c0,0,2.7-8.2-7.5-14.2C102.1,849.7,99.5,859,109.6,863.9z"/>
			</g>
			<g>
				<path class="st31" d="M114.4,869.5c0,0,12.1,6.1,23.6-8.3C138,861.2,124.3,855,114.4,869.5z"/>
				<path class="st28" d="M114.5,869.6c0,0,10.3,5.2,20.1-7.1C134.5,862.5,122.9,857.2,114.5,869.6z"/>
			</g>
			<g>
				<path class="st31" d="M114.3,855.7c0,0,19.5-2.6,21.5-29.4C135.8,826.3,114.2,830.1,114.3,855.7z"/>
				<path class="st28" d="M114.3,855.7c0,0,16.6-2.2,18.3-25C132.6,830.7,114.2,833.9,114.3,855.7z"/>
			</g>
			<path class="st25" d="M110.2,864.9c-5.3-4.5-8.4-14.6-8.6-15.1c-0.1-0.3,0.1-0.6,0.4-0.7c0.3-0.1,0.6,0.1,0.7,0.4
				c0,0.1,3,9.8,7.9,14.2c7.1-21.1,21.1-33.7,21.3-33.9c0.5-0.4,1.2-0.4,1.6,0.1c0.4,0.5,0.4,1.2-0.1,1.6
				c-0.2,0.2-17.4,15.7-22.9,40.9c2.5-3,6.5-5.6,11.9-7.6c6.2-2.3,12-3,12.1-3c0.3,0,0.6,0.2,0.6,0.5c0,0.3-0.2,0.6-0.5,0.6
				c-0.2,0-19.4,2.4-24.7,12.3c-1,5.3-1.4,11-1,17c0,0.6-0.4,1.1-1,1.2c0,0-0.1,0-0.1,0c-0.6,0-1.2-0.4-1.2-1.1
				C106,882.3,107.6,873,110.2,864.9z"/>
		</g>
	</g>
	<g>
		<g>
			<g>
				<path class="st31" d="M156.5,828.2c0,0-1.3-21.9-30.8-26.2C125.7,802,128.1,826.2,156.5,828.2z"/>
				<path class="st28" d="M156.5,828.1c0,0-1.1-18.6-26.2-22.3C130.3,805.8,132.3,826.5,156.5,828.1z"/>
			</g>
			<g>
				<path class="st31" d="M170.7,835.6c0,0,29,2.6,40.5-35.4C211.2,800.2,178.8,798.7,170.7,835.6z"/>
				<path class="st28" d="M170.7,835.6c0,0,24.7,2.2,34.5-30.1C205.2,805.5,177.6,804.2,170.7,835.6z"/>
			</g>
			<g>
				<path class="st31" d="M159.3,808c0,0,36.9-20.8,19.4-75.7C178.8,732.3,138.7,757.1,159.3,808z"/>
				<path class="st28" d="M159.4,808.1c0,0,31.4-17.7,16.6-64.5C176,743.6,141.9,764.7,159.4,808.1z"/>
			</g>
			<path class="st25" d="M158.4,829.8c-14.2-4.7-28.5-22.4-29.1-23.2c-0.4-0.5-0.3-1.3,0.2-1.7c0.5-0.4,1.3-0.3,1.7,0.2
				c0.1,0.2,13.8,17.2,27,22.1c-2.6-47.8,15.3-84.2,15.5-84.7c0.6-1.2,2.1-1.7,3.3-1.1c1.2,0.6,1.7,2.1,1.1,3.3
				c-0.3,0.6-22.1,45.2-13.1,100c2.6-8.1,8.6-16.5,17.8-24.7c10.5-9.4,21.6-15.5,21.7-15.6c0.6-0.3,1.3-0.1,1.7,0.5
				c0.3,0.6,0.1,1.3-0.5,1.7c-0.4,0.2-36.8,20.3-39.5,44.3c2.3,11.3,6,23,11.5,34.8c0.5,1.2,0.1,2.5-1,3.2c-0.1,0-0.1,0.1-0.2,0.1
				c-1.2,0.6-2.7,0-3.3-1.2C164,867.8,159.7,848,158.4,829.8z"/>
		</g>
		<g>
			<g>
				<path class="st31" d="M142.7,854.3c0,0-7.4-7-18.8,0.9C123.9,855.2,132.5,862.7,142.7,854.3z"/>
				<path class="st28" d="M142.7,854.3c0,0-6.3-5.9-16,0.8C126.7,855.1,134,861.4,142.7,854.3z"/>
			</g>
			<g>
				<path class="st31" d="M149.9,852.3c0,0,10.6-8.4,2.4-24.9C152.3,827.4,140.8,837.2,149.9,852.3z"/>
				<path class="st28" d="M149.9,852.3c0,0,9.1-7.1,2.1-21.2C152,831.1,142.2,839.4,149.9,852.3z"/>
			</g>
			<g>
				<path class="st31" d="M137.2,846.5c0,0,5.9-18.8-17.6-31.8C119.7,814.7,114,835.9,137.2,846.5z"/>
				<path class="st28" d="M137.3,846.5c0,0,5-16-15-27.1C122.3,819.4,117.5,837.4,137.3,846.5z"/>
			</g>
			<path class="st25" d="M143.9,854.2c-6.3,2.9-16.8,1.5-17.3,1.4c-0.3,0-0.5-0.3-0.5-0.6c0-0.3,0.3-0.5,0.6-0.5
				c0.1,0,10.2,1.4,16.2-1.1c-16.1-15.4-21.7-33.4-21.7-33.6c-0.2-0.6,0.2-1.2,0.8-1.4c0.6-0.2,1.2,0.2,1.4,0.8
				c0.1,0.3,6.9,22.4,27.5,38c-1.7-3.6-2.3-8.3-1.9-14c0.5-6.5,2.4-12.1,2.4-12.2c0.1-0.3,0.4-0.5,0.7-0.4c0.3,0.1,0.5,0.4,0.4,0.7
				c-0.1,0.2-6,18.6,0.7,27.6c4.4,3.1,9.4,5.9,15,8.1c0.6,0.2,0.8,0.8,0.7,1.4c0,0,0,0.1,0,0.1c-0.2,0.6-0.9,0.9-1.5,0.6
				C157.8,865.3,150.1,860,143.9,854.2z"/>
		</g>
		<g>
			<g>
				<path class="st31" d="M187.3,852.6c0,0,8.2-6,2.4-18.7C189.7,834,180.8,841.1,187.3,852.6z"/>
				<path class="st28" d="M187.3,852.6c0,0,7-5.1,2.1-15.9C189.3,836.7,181.8,842.8,187.3,852.6z"/>
			</g>
			<g>
				<path class="st31" d="M188,860c0,0,6.4,12,24.1,6.8C212,866.9,204.4,853.8,188,860z"/>
				<path class="st28" d="M188,860.1c0,0,5.4,10.2,20.5,5.8C208.4,865.9,202,854.8,188,860.1z"/>
			</g>
			<g>
				<path class="st31" d="M195.8,848.6c0,0,17.5,9.1,34.5-11.6C230.3,837,210.5,827.7,195.8,848.6z"/>
				<path class="st28" d="M195.9,848.7c0,0,14.9,7.8,29.3-9.9C225.2,838.8,208.3,830.8,195.9,848.7z"/>
			</g>
			<path class="st25" d="M187.1,853.8c-1.8-6.7,1.5-16.8,1.7-17.2c0.1-0.3,0.4-0.5,0.7-0.4c0.3,0.1,0.5,0.4,0.4,0.7
				c0,0.1-3.2,9.7-1.8,16.1c18-13.1,36.7-15.4,37-15.4c0.6-0.1,1.2,0.4,1.3,1c0.1,0.6-0.4,1.2-1,1.3c-0.3,0-23.2,2.8-42.3,20.3
				c3.8-1,8.6-0.8,14.1,0.7c6.3,1.7,11.5,4.5,11.6,4.5c0.3,0.2,0.4,0.5,0.2,0.8c-0.2,0.3-0.5,0.4-0.8,0.2
				c-0.2-0.1-17.2-9.2-27.3-4.2c-3.8,3.8-7.5,8.2-10.7,13.3c-0.3,0.5-1,0.7-1.5,0.4c0,0-0.1,0-0.1,0c-0.5-0.3-0.7-1-0.4-1.6
				C173.7,865.6,180.3,858.9,187.1,853.8z"/>
		</g>
	</g>
	<g>
		<circle class="st25" cx="231.7" cy="894" r="21.9"/>
		<circle class="st25" cx="202.6" cy="879.7" r="33.4"/>
		<circle class="st28" cx="233.4" cy="892.3" r="19.3"/>
		<g>
			<ellipse class="st28" cx="202.6" cy="878.7" rx="32.4" ry="30.5"/>
			<circle class="st25" cx="155.5" cy="890.8" r="33.4"/>
			<circle class="st28" cx="157.8" cy="889.5" r="30.1"/>
		</g>
		<path class="st31" d="M235.2,878.6c-3.3-13.1-16.6-22.9-32.6-22.9c-12.3,0-23,5.9-28.8,14.6c-5.3-3-11.5-4.8-18.3-4.8
			c-17.7,0-32.2,12.1-33.3,27.5c0-0.7-0.1-1.4-0.1-2.1c0-18.4,14.9-33.4,33.4-33.4c6.8,0,13,2,18.3,5.5c5.8-9.9,16.5-16.6,28.8-16.6
			c15.9,0,29.2,11.2,32.6,26.1c10.4,1.7,18.4,10.7,18.4,21.6c0,0.6,0,1.2-0.1,1.9C252.6,887.1,245,880,235.2,878.6z"/>
	</g>
</g>
<g id="Bush" class="st54">
	<g class="st55">
		<circle class="st25" cx="985.6" cy="679" r="21.9"/>
		<circle class="st25" cx="956.6" cy="664.6" r="33.4"/>
		<circle class="st28" cx="987.3" cy="677.3" r="19.3"/>
		<g>
			<ellipse class="st28" cx="956.6" cy="663.7" rx="32.4" ry="30.5"/>
			<circle class="st25" cx="909.5" cy="675.7" r="33.4"/>
			<circle class="st28" cx="911.7" cy="674.5" r="30.1"/>
		</g>
		<path class="st31" d="M989.1,663.6c-3.3-13.1-16.6-22.9-32.6-22.9c-12.3,0-23,5.9-28.8,14.6c-5.3-3-11.5-4.8-18.3-4.8
			c-17.7,0-32.2,12.1-33.3,27.5c0-0.7-0.1-1.4-0.1-2.1c0-18.4,14.9-33.4,33.4-33.4c6.8,0,13,2,18.3,5.5c5.8-9.9,16.5-16.6,28.8-16.6
			c15.9,0,29.2,11.2,32.6,26.1c10.4,1.7,18.4,10.7,18.4,21.6c0,0.6,0,1.2-0.1,1.9C1006.5,672,998.9,665,989.1,663.6z"/>
	</g>
</g>
<g id="Plant" class="st54">
	<g class="st55">
		<g>
			<g>
				<path class="st31" d="M941.8,554.9c0,0-1.3-21.9-30.8-26.2C911,528.7,913.4,553,941.8,554.9z"/>
				<path class="st28" d="M941.8,554.9c0,0-1.1-18.6-26.2-22.3C915.6,532.6,917.7,553.2,941.8,554.9z"/>
			</g>
			<g>
				<path class="st31" d="M956,562.3c0,0,29,2.6,40.5-35.4C996.5,526.9,964.1,525.4,956,562.3z"/>
				<path class="st28" d="M956,562.4c0,0,24.7,2.2,34.5-30.1C990.5,532.3,962.9,531,956,562.4z"/>
			</g>
			<g>
				<path class="st31" d="M944.7,534.8c0,0,36.9-20.8,19.4-75.7C964.1,459,924,483.8,944.7,534.8z"/>
				<path class="st28" d="M944.8,534.8c0,0,31.4-17.7,16.6-64.5C961.3,470.3,927.2,491.4,944.8,534.8z"/>
			</g>
			<path class="st25" d="M943.8,556.6c-14.2-4.7-28.5-22.4-29.1-23.2c-0.4-0.5-0.3-1.3,0.2-1.7c0.5-0.4,1.3-0.3,1.7,0.2
				c0.1,0.2,13.8,17.2,27,22.1c-2.6-47.8,15.3-84.2,15.5-84.7c0.6-1.2,2.1-1.7,3.3-1.1c1.2,0.6,1.7,2.1,1.1,3.3
				c-0.3,0.6-22.1,45.2-13.1,100c2.6-8.1,8.6-16.5,17.8-24.7c10.5-9.4,21.6-15.5,21.7-15.6c0.6-0.3,1.3-0.1,1.7,0.5
				c0.3,0.6,0.1,1.3-0.5,1.7c-0.4,0.2-36.8,20.3-39.5,44.3c2.3,11.3,6,23,11.5,34.8c0.5,1.2,0.1,2.5-1,3.2c-0.1,0-0.1,0.1-0.2,0.1
				c-1.2,0.6-2.7,0-3.3-1.2C949.3,594.5,945,574.8,943.8,556.6z"/>
		</g>
	</g>
</g>
<g id="NULS">
	<g>
		<path class="st1" d="M1130.4,493.1l-71.4-31V315.7c0-8.9,7.2-16.1,16-16.1h3.5v0l68,94.7l35,21.3V299l-31.6-13.8v76.3l-19.5-27
			v-78.3l70.7,31.1v135.3c0,8.9-7.2,16.1-16,16.1h-3.5v0l-50.7-31.4l-52.3-72.7v115.8l32.4,14.1v-50.9l19.5,26.8V493.1z"/>
	</g>
</g>
</svg>
