<svg height="864" viewBox="0 0 1008 648" width="1344"><defs><style>*{stroke-linecap:butt;stroke-linejoin:round}</style></defs><g id="figure_1"><path d="M0 648h1008V0H0z" fill="#fff" id="patch_1"/><g id="axes_1"><path d="M126 583.2h781.2V77.76H126z" fill="#fff" id="patch_2"/><g id="matplotlib.axis_1"><g id="xtick_1"><path clip-path="url(#p0e62de996f)" d="M126 583.2V77.76" fill="none" stroke="#b0b0b0" stroke-linecap="square" stroke-width=".8" id="line2d_1"/><g id="line2d_2"><defs><path d="M0 0v3.5" id="me722141058" stroke="#000" stroke-width=".8"/></defs><use x="126" xlink:href="#me722141058" y="583.2" stroke="#000" stroke-width=".8"/></g><g id="text_1"><defs><path d="M31.781 66.406q-7.61 0-11.453-7.5Q16.5 51.422 16.5 36.375q0-14.984 3.828-22.484 3.844-7.5 11.453-7.5 7.672 0 11.5 7.5 3.844 7.5 3.844 22.484 0 15.047-3.844 22.531-3.828 7.5-11.5 7.5zm0 7.813q12.266 0 18.735-9.703 6.468-9.688 6.468-28.141 0-18.406-6.468-28.11-6.47-9.687-18.735-9.687-12.25 0-18.718 9.688-6.47 9.703-6.47 28.109 0 18.453 6.47 28.14Q19.53 74.22 31.78 74.22z" id="DejaVuSans-48"/></defs><use xlink:href="#DejaVuSans-48" transform="matrix(.12 0 0 -.12 122.183 599.318)"/></g></g><g id="xtick_2"><path clip-path="url(#p0e62de996f)" d="M204.91 583.2V77.76" fill="none" stroke="#b0b0b0" stroke-linecap="square" stroke-width=".8" id="line2d_3"/><use x="204.909" xlink:href="#me722141058" y="583.2" stroke="#000" stroke-width=".8" id="line2d_4"/><g id="text_2"><defs><path d="M12.406 8.297h16.11v55.625l-17.532-3.516v8.985l17.438 3.515h9.86V8.296H54.39V0H12.406z" id="DejaVuSans-49"/></defs><g transform="matrix(.12 0 0 -.12 193.457 599.318)"><use xlink:href="#DejaVuSans-49"/><use x="63.623" xlink:href="#DejaVuSans-48"/><use x="127.246" xlink:href="#DejaVuSans-48"/></g></g></g><g id="xtick_3"><path clip-path="url(#p0e62de996f)" d="M283.818 583.2V77.76" fill="none" stroke="#b0b0b0" stroke-linecap="square" stroke-width=".8" id="line2d_5"/><use x="283.818" xlink:href="#me722141058" y="583.2" stroke="#000" stroke-width=".8" id="line2d_6"/><g id="text_3"><defs><path d="M19.188 8.297h34.421V0H7.33v8.297q5.609 5.812 15.296 15.594 9.703 9.797 12.188 12.64 4.734 5.313 6.609 9 1.89 3.688 1.89 7.25 0 5.813-4.078 9.469-4.078 3.672-10.625 3.672-4.64 0-9.797-1.61-5.14-1.609-11-4.89v9.969Q13.767 71.78 18.938 73q5.188 1.219 9.485 1.219 11.328 0 18.062-5.672 6.735-5.656 6.735-15.125 0-4.5-1.688-8.531-1.672-4.016-6.125-9.485-1.218-1.422-7.765-8.187-6.532-6.766-18.453-18.922z" id="DejaVuSans-50"/></defs><g transform="matrix(.12 0 0 -.12 272.366 599.318)"><use xlink:href="#DejaVuSans-50"/><use x="63.623" xlink:href="#DejaVuSans-48"/><use x="127.246" xlink:href="#DejaVuSans-48"/></g></g></g><g id="xtick_4"><path clip-path="url(#p0e62de996f)" d="M362.727 583.2V77.76" fill="none" stroke="#b0b0b0" stroke-linecap="square" stroke-width=".8" id="line2d_7"/><use x="362.727" xlink:href="#me722141058" y="583.2" stroke="#000" stroke-width=".8" id="line2d_8"/><g id="text_4"><defs><path d="M40.578 39.313Q47.656 37.797 51.625 33q3.984-4.781 3.984-11.813 0-10.78-7.422-16.703-7.421-5.906-21.093-5.906-4.578 0-9.438.906-4.86.907-10.031 2.72v9.515q4.094-2.39 8.969-3.61 4.89-1.218 10.218-1.218 9.266 0 14.125 3.656 4.86 3.656 4.86 10.64 0 6.454-4.516 10.079-4.515 3.64-12.562 3.64h-8.5v8.11h8.89q7.266 0 11.125 2.906 3.86 2.906 3.86 8.375 0 5.61-3.985 8.61-3.968 3.015-11.39 3.015-4.063 0-8.703-.89-4.641-.876-10.203-2.72v8.782q5.624 1.562 10.53 2.344 4.907.78 9.25.78 11.235 0 17.766-5.109 6.547-5.093 6.547-13.78 0-6.063-3.468-10.235-3.47-4.172-9.86-5.782z" id="DejaVuSans-51"/></defs><g transform="matrix(.12 0 0 -.12 351.275 599.318)"><use xlink:href="#DejaVuSans-51"/><use x="63.623" xlink:href="#DejaVuSans-48"/><use x="127.246" xlink:href="#DejaVuSans-48"/></g></g></g><g id="xtick_5"><path clip-path="url(#p0e62de996f)" d="M441.636 583.2V77.76" fill="none" stroke="#b0b0b0" stroke-linecap="square" stroke-width=".8" id="line2d_9"/><use x="441.636" xlink:href="#me722141058" y="583.2" stroke="#000" stroke-width=".8" id="line2d_10"/><g id="text_5"><defs><path d="M37.797 64.313L12.89 25.39h24.906zm-2.594 8.593H47.61V25.391h10.407v-8.203H47.609V0h-9.812v17.188H4.89v9.515z" id="DejaVuSans-52"/></defs><g transform="matrix(.12 0 0 -.12 430.184 599.318)"><use xlink:href="#DejaVuSans-52"/><use x="63.623" xlink:href="#DejaVuSans-48"/><use x="127.246" xlink:href="#DejaVuSans-48"/></g></g></g><g id="xtick_6"><path clip-path="url(#p0e62de996f)" d="M520.545 583.2V77.76" fill="none" stroke="#b0b0b0" stroke-linecap="square" stroke-width=".8" id="line2d_11"/><use x="520.545" xlink:href="#me722141058" y="583.2" stroke="#000" stroke-width=".8" id="line2d_12"/><g id="text_6"><defs><path d="M10.797 72.906h38.719v-8.312H19.828v-17.86q2.14.735 4.281 1.094 2.157.36 4.313.36 12.203 0 19.328-6.688 7.14-6.688 7.14-18.11 0-11.765-7.328-18.296-7.328-6.516-20.656-6.516-4.593 0-9.36.781-4.75.782-9.827 2.344v9.922q4.39-2.39 9.078-3.563 4.687-1.171 9.906-1.171 8.453 0 13.375 4.437 4.938 4.438 4.938 12.063 0 7.609-4.938 12.047-4.922 4.453-13.375 4.453-3.953 0-7.89-.875-3.922-.875-8.016-2.735z" id="DejaVuSans-53"/></defs><g transform="matrix(.12 0 0 -.12 509.093 599.318)"><use xlink:href="#DejaVuSans-53"/><use x="63.623" xlink:href="#DejaVuSans-48"/><use x="127.246" xlink:href="#DejaVuSans-48"/></g></g></g><g id="xtick_7"><path clip-path="url(#p0e62de996f)" d="M599.455 583.2V77.76" fill="none" stroke="#b0b0b0" stroke-linecap="square" stroke-width=".8" id="line2d_13"/><use x="599.455" xlink:href="#me722141058" y="583.2" stroke="#000" stroke-width=".8" id="line2d_14"/><g id="text_7"><defs><path d="M33.016 40.375q-6.641 0-10.532-4.547-3.875-4.531-3.875-12.437 0-7.86 3.875-12.438 3.891-4.562 10.532-4.562 6.64 0 10.515 4.562 3.875 4.578 3.875 12.438 0 7.906-3.875 12.437-3.875 4.547-10.515 4.547zm19.578 30.922v-8.984q-3.719 1.75-7.5 2.671-3.782.938-7.5.938-9.766 0-14.922-6.594-5.14-6.594-5.875-19.922 2.875 4.25 7.219 6.516 4.359 2.266 9.578 2.266 10.984 0 17.36-6.672 6.374-6.657 6.374-18.125 0-11.235-6.64-18.032-6.641-6.78-17.672-6.78-12.657 0-19.344 9.687-6.688 9.703-6.688 28.109 0 17.281 8.204 27.563 8.203 10.28 22.015 10.28 3.719 0 7.5-.734t7.89-2.187z" id="DejaVuSans-54"/></defs><g transform="matrix(.12 0 0 -.12 588.002 599.318)"><use xlink:href="#DejaVuSans-54"/><use x="63.623" xlink:href="#DejaVuSans-48"/><use x="127.246" xlink:href="#DejaVuSans-48"/></g></g></g><g id="xtick_8"><path clip-path="url(#p0e62de996f)" d="M678.364 583.2V77.76" fill="none" stroke="#b0b0b0" stroke-linecap="square" stroke-width=".8" id="line2d_15"/><use x="678.364" xlink:href="#me722141058" y="583.2" stroke="#000" stroke-width=".8" id="line2d_16"/><g id="text_8"><defs><path d="M8.203 72.906h46.875v-4.203L28.61 0H18.312L43.22 64.594H8.203z" id="DejaVuSans-55"/></defs><g transform="matrix(.12 0 0 -.12 666.911 599.318)"><use xlink:href="#DejaVuSans-55"/><use x="63.623" xlink:href="#DejaVuSans-48"/><use x="127.246" xlink:href="#DejaVuSans-48"/></g></g></g><g id="xtick_9"><path clip-path="url(#p0e62de996f)" d="M757.273 583.2V77.76" fill="none" stroke="#b0b0b0" stroke-linecap="square" stroke-width=".8" id="line2d_17"/><use x="757.273" xlink:href="#me722141058" y="583.2" stroke="#000" stroke-width=".8" id="line2d_18"/><g id="text_9"><defs><path d="M31.781 34.625q-7.031 0-11.062-3.766-4.016-3.765-4.016-10.343 0-6.594 4.016-10.36Q24.75 6.391 31.78 6.391q7.032 0 11.078 3.78 4.063 3.798 4.063 10.345 0 6.578-4.031 10.343-4.016 3.766-11.11 3.766zm-9.86 4.188q-6.343 1.562-9.89 5.906Q8.5 49.079 8.5 55.329q0 8.733 6.219 13.812 6.234 5.078 17.062 5.078 10.89 0 17.094-5.078 6.203-5.079 6.203-13.813 0-6.25-3.547-10.61-3.531-4.343-9.828-5.906 7.125-1.656 11.094-6.5 3.984-4.828 3.984-11.796 0-10.61-6.468-16.282-6.47-5.656-18.532-5.656-12.047 0-18.531 5.656-6.469 5.672-6.469 16.282 0 6.968 4 11.797 4.016 4.843 11.14 6.5zM18.314 54.39q0-5.657 3.53-8.828 3.548-3.172 9.938-3.172 6.36 0 9.938 3.172 3.593 3.171 3.593 8.828 0 5.672-3.593 8.843-3.578 3.172-9.938 3.172-6.39 0-9.937-3.172-3.532-3.172-3.532-8.843z" id="DejaVuSans-56"/></defs><g transform="matrix(.12 0 0 -.12 745.82 599.318)"><use xlink:href="#DejaVuSans-56"/><use x="63.623" xlink:href="#DejaVuSans-48"/><use x="127.246" xlink:href="#DejaVuSans-48"/></g></g></g><g id="text_10"><defs><path d="M46.578 39.313q7.375-1.907 11.203-6.626 3.844-4.703 3.844-11.984 0-10.844-8.313-16.484-8.296-5.64-24.203-5.64-5.625 0-11.265.905-5.64.907-11.157 2.72v14.5q5.282-2.642 10.47-3.985 5.202-1.344 10.234-1.344 7.468 0 11.453 2.578 3.984 2.594 3.984 7.438 0 4.984-4.078 7.547Q34.672 31.5 26.703 31.5h-7.515v12.11h7.906q7.093 0 10.547 2.218 3.468 2.219 3.468 6.766 0 4.187-3.375 6.484-3.359 2.297-9.515 2.297-4.532 0-9.172-1.031-4.64-1.016-9.235-3.016v13.766q5.563 1.562 11.032 2.344 5.468.78 10.75.78 14.203 0 21.25-4.671 7.062-4.656 7.062-14.031 0-6.391-3.375-10.47-3.36-4.077-9.953-5.733z" id="DejaVuSans-Bold-51"/><path d="M46 36.531q0 13.672-2.563 19.25-2.562 5.594-8.624 5.594-6.047 0-8.641-5.594-2.594-5.578-2.594-19.25 0-13.828 2.594-19.5 2.594-5.656 8.64-5.656 6.016 0 8.594 5.656Q46 22.703 46 36.531zm18.797-.156q0-18.11-7.813-27.953-7.812-9.844-22.172-9.844-14.406 0-22.218 9.844Q4.78 18.266 4.78 36.375q0 18.172 7.813 28 7.812 9.844 22.218 9.844 14.36 0 22.172-9.844 7.813-9.828 7.813-28z" id="DejaVuSans-Bold-48"/><path d="M45.61 46.688v29.296h17.578V0H45.608v7.906Q42 3.078 37.641.828q-4.344-2.25-10.047-2.25-10.11 0-16.61 8.031Q4.5 14.656 4.5 27.297q0 12.64 6.484 20.672Q17.484 56 27.594 56q5.656 0 10.031-2.266Q42 51.47 45.609 46.687zM34.077 11.28q5.625 0 8.578 4.094 2.953 4.11 2.953 11.922t-2.953 11.906q-2.953 4.11-8.578 4.11-5.562 0-8.516-4.11-2.953-4.094-2.953-11.906 0-7.813 2.953-11.922 2.954-4.094 8.516-4.094z" id="DejaVuSans-Bold-100"/><path d="M32.906 24.61q-5.468 0-8.234-1.86-2.75-1.844-2.75-5.469 0-3.312 2.219-5.203 2.234-1.875 6.187-1.875 4.922 0 8.297 3.531Q42 17.281 42 22.61v2zm26.719 6.593V0H42v8.11Q38.484 3.124 34.078.843q-4.39-2.266-10.687-2.266-8.5 0-13.797 4.953Q4.297 8.5 4.297 16.406q0 9.625 6.61 14.11 6.624 4.5 20.78 4.5H42v1.359q0 4.156-3.281 6.078-3.266 1.938-10.203 1.938-5.61 0-10.453-1.125-4.829-1.125-8.985-3.375v13.328q5.625 1.375 11.281 2.078Q26.031 56 31.687 56q14.797 0 21.36-5.828 6.578-5.828 6.578-18.969z" id="DejaVuSans-Bold-97"/><path d="M1.219 54.688h17.484l14.703-37.11 12.5 37.11h17.469l-23-59.86q-3.453-9.14-8.078-12.765-4.61-3.641-12.172-3.641h-10.11v11.469h5.47q4.437 0 6.453 1.421 2.03 1.407 3.156 5.079l.5 1.515z" id="DejaVuSans-Bold-121"/><path d="M9.188 72.906h18.796V0H9.187z" id="DejaVuSans-Bold-73"/><path d="M63.375 33.297V0H45.797v25.484q0 7.078-.313 9.766-.312 2.688-1.093 3.953-1.032 1.719-2.797 2.672-1.75.953-4 .953-5.469 0-8.594-4.234-3.125-4.219-3.125-11.688V0H8.406v54.688h17.469v-8q3.953 4.78 8.39 7.046Q38.72 56 44.095 56q9.468 0 14.375-5.813 4.906-5.796 4.906-16.89z" id="DejaVuSans-Bold-110"/><path d="M27.484 70.219V54.688h18.032v-12.5H27.484V19q0-3.813 1.516-5.156 1.516-1.344 6.016-1.344H44V0H29Q18.656 0 14.328 4.313 10.016 8.64 10.016 19v23.188H1.312v12.5h8.704v15.53z" id="DejaVuSans-Bold-116"/><path d="M62.984 27.484v-4.968H22.125q.625-6.157 4.438-9.235 3.812-3.078 10.64-3.078 5.516 0 11.297 1.64 5.797 1.641 11.906 4.954V3.328Q54.203.984 48-.219q-6.203-1.203-12.406-1.203-14.844 0-23.078 7.547-8.22 7.547-8.22 21.172 0 13.375 8.079 21.031Q20.453 56 34.625 56q12.89 0 20.625-7.766 7.734-7.75 7.734-20.75zm-17.968 5.813q0 4.984-2.907 8.031-2.906 3.063-7.593 3.063-5.078 0-8.25-2.86-3.172-2.86-3.953-8.234z" id="DejaVuSans-Bold-101"/><path d="M49.031 39.797q-2.297 1.078-4.578 1.578-2.266.516-4.562.516-6.735 0-10.375-4.328-3.641-4.313-3.641-12.36V0H8.406v54.688h17.469v-8.985q3.375 5.375 7.734 7.828Q37.984 56 44.094 56q.875 0 1.89-.078 1.032-.063 2.985-.313z" id="DejaVuSans-Bold-114"/><path d="M1.516 54.688H19L32.625 16.89l13.563 37.797h17.53L42.189 0H23z" id="DejaVuSans-Bold-118"/><path d="M8.406 75.984h17.469V0H8.406z" id="DejaVuSans-Bold-108"/><path d="M51.125 52.984v-13.28q-5.61 2.343-10.844 3.515-5.218 1.172-9.86 1.172-4.983 0-7.405-1.25-2.407-1.25-2.407-3.828 0-2.11 1.828-3.235 1.829-1.11 6.563-1.656l3.078-.438q13.438-1.703 18.063-5.609 4.64-3.906 4.64-12.266 0-8.734-6.453-13.14-6.437-4.39-19.219-4.39-5.422 0-11.218.859Q12.109.296 6 2v13.281q5.234-2.531 10.719-3.812 5.5-1.266 11.156-1.266 5.14 0 7.719 1.406 2.593 1.422 2.593 4.22 0 2.343-1.78 3.483-1.782 1.141-7.11 1.782l-3.078.39q-11.672 1.47-16.36 5.422-4.687 3.953-4.687 12.016 0 8.687 5.953 12.875Q17.094 56 29.391 56q4.843 0 10.156-.734 5.328-.72 11.578-2.282z" id="DejaVuSans-Bold-115"/><path d="M10.203 18.89h17.578V4L15.72-14.203H5.329L10.202 4z" id="DejaVuSans-Bold-44"/><path d="M11.719 12.984h16.61V60.11L11.28 56.594V69.39l16.938 3.515h17.875V12.984h16.61V0H11.718z" id="DejaVuSans-Bold-49"/><path d="M36.188 35.984q-4.938 0-7.407-3.203-2.468-3.187-2.468-9.593 0-6.391 2.468-9.594 2.469-3.188 7.407-3.188 4.968 0 7.437 3.188 2.469 3.203 2.469 9.594 0 6.406-2.469 9.593-2.469 3.203-7.438 3.203zM59.422 71V57.516q-4.64 2.203-8.75 3.25-4.094 1.047-8 1.047-8.39 0-13.078-4.672-4.688-4.657-5.469-13.828 3.219 2.39 6.969 3.578 3.765 1.203 8.218 1.203 11.172 0 18.032-6.547 6.86-6.531 6.86-17.125 0-11.719-7.673-18.781-7.656-7.063-20.547-7.063-14.203 0-22 9.594-7.78 9.61-7.78 27.234 0 18.063 9.108 28.39 9.11 10.329 24.97 10.329 5.03 0 9.765-.781 4.734-.781 9.375-2.344z" id="DejaVuSans-Bold-54"/><path d="M6.688 72.906h54.937V62.312L33.203 0H14.891l26.906 59.078H6.687z" id="DejaVuSans-Bold-55"/><path d="M44.39 75.984V64.5H34.72q-3.719 0-5.188-1.344-1.453-1.343-1.453-4.656v-3.813h14.938v-12.5H28.078V0H10.594v42.188H1.906v12.5h8.688V58.5q0 8.938 4.984 13.203Q20.563 75.984 31 75.984z" id="DejaVuSans-Bold-102"/><path d="M8.406 54.688h17.469V0H8.406zm0 21.296h17.469V61.72H8.406z" id="DejaVuSans-Bold-105"/><path d="M34.422 43.5q-5.813 0-8.86-4.172-3.046-4.172-3.046-12.031 0-7.86 3.047-12.047 3.046-4.172 8.859-4.172 5.719 0 8.734 4.172 3.032 4.188 3.032 12.047 0 7.86-3.032 12.031-3.015 4.172-8.734 4.172zm0 12.5q14.11 0 22.047-7.625 7.937-7.61 7.937-21.078 0-13.485-7.937-21.11-7.938-7.609-22.047-7.609-14.156 0-22.14 7.61-7.985 7.625-7.985 21.109 0 13.469 7.984 21.078Q20.266 56 34.421 56z" id="DejaVuSans-Bold-111"/><path d="M27.984 58.688V14.203h6.735q11.515 0 17.593 5.719 6.094 5.719 6.094 16.61 0 10.827-6.062 16.484-6.047 5.672-17.625 5.672zM9.187 72.906H29q16.61 0 24.734-2.375 8.125-2.36 13.938-8.031 5.125-4.938 7.61-11.39 2.5-6.438 2.5-14.579 0-8.265-2.5-14.734-2.485-6.469-7.61-11.39-5.86-5.673-14.063-8.048Q45.406 0 29 0H9.187z" id="DejaVuSans-Bold-68"/><path d="M35.89 40.578q5.907 0 8.47 2.188 2.562 2.203 2.562 7.234 0 4.984-2.563 7.125-2.562 2.156-8.468 2.156h-7.907V40.578zm-7.906-12.984V0H9.187v72.906h28.704q14.406 0 21.109-4.844 6.719-4.828 6.719-15.28 0-7.22-3.5-11.86-3.485-4.64-10.516-6.844 3.86-.875 6.906-3.984 3.063-3.094 6.188-9.39L75 0H54.984l-8.89 18.11q-2.688 5.468-5.453 7.468-2.75 2.016-7.344 2.016z" id="DejaVuSans-Bold-82"/><path d="M11.188 54.688h17.624V35.797H11.188zm0-35.797h17.624V0H11.188z" id="DejaVuSans-Bold-58"/><path d="M10.203 18.89h17.578V0H10.203z" id="DejaVuSans-Bold-46"/><path d="M36.813 57.422L16.218 26.906h20.593zm-3.126 15.484h20.907v-46h10.39V13.281h-10.39V0H36.812v13.281H4.5v16.11z" id="DejaVuSans-Bold-52"/><path d="M77.484 30.078q-3.453 0-5.359-3-1.906-3-1.906-8.578 0-5.61 1.875-8.61 1.875-3 5.39-3 3.516 0 5.375 3 1.86 3 1.86 8.61 0 5.578-1.89 8.578-1.876 3-5.345 3zm0 8.203q9.094 0 14.313-5.281 5.219-5.266 5.219-14.5 0-9.219-5.22-14.578-5.218-5.344-14.312-5.344-9.078 0-14.328 5.344-5.25 5.36-5.25 14.578 0 9.188 5.25 14.484 5.25 5.297 14.328 5.297zM32.72-1.422H21.922l45.562 75.64h10.844zm-10.016 75.64q9.078 0 14.281-5.296 5.203-5.297 5.203-14.531 0-9.22-5.203-14.547-5.203-5.328-14.28-5.328-9.079 0-14.282 5.328-5.203 5.328-5.203 14.547 0 9.234 5.203 14.53 5.203 5.298 14.281 5.298zm0-8.202q-3.515 0-5.422-3.032-1.906-3.015-1.906-8.593 0-5.61 1.906-8.672 1.907-3.047 5.422-3.047 3.516 0 5.39 3.047 1.891 3.062 1.891 8.672 0 5.578-1.906 8.593-1.906 3.032-5.375 3.032z" id="DejaVuSans-Bold-37"/></defs><g transform="matrix(.18 0 0 -.18 192.504 635.49)" fill="#00f"><use xlink:href="#DejaVuSans-Bold-51"/><use x="69.58" xlink:href="#DejaVuSans-Bold-48"/><use x="139.16" xlink:href="#DejaVuSans-Bold-32"/><use x="173.975" xlink:href="#DejaVuSans-Bold-100"/><use x="245.557" xlink:href="#DejaVuSans-Bold-97"/><use x="312.99" xlink:href="#DejaVuSans-Bold-121"/><use x="378.176" xlink:href="#DejaVuSans-Bold-32"/><use x="412.99" xlink:href="#DejaVuSans-Bold-73"/><use x="450.197" xlink:href="#DejaVuSans-Bold-110"/><use x="521.389" xlink:href="#DejaVuSans-Bold-116"/><use x="569.191" xlink:href="#DejaVuSans-Bold-101"/><use x="637.014" xlink:href="#DejaVuSans-Bold-114"/><use x="686.33" xlink:href="#DejaVuSans-Bold-118"/><use x="751.516" xlink:href="#DejaVuSans-Bold-97"/><use x="818.996" xlink:href="#DejaVuSans-Bold-108"/><use x="853.273" xlink:href="#DejaVuSans-Bold-115"/><use x="912.795" xlink:href="#DejaVuSans-Bold-44"/><use x="950.783" xlink:href="#DejaVuSans-Bold-32"/><use x="985.598" xlink:href="#DejaVuSans-Bold-49"/><use x="1055.178" xlink:href="#DejaVuSans-Bold-54"/><use x="1124.758" xlink:href="#DejaVuSans-Bold-54"/><use x="1194.338" xlink:href="#DejaVuSans-Bold-44"/><use x="1232.326" xlink:href="#DejaVuSans-Bold-54"/><use x="1301.906" xlink:href="#DejaVuSans-Bold-54"/><use x="1371.486" xlink:href="#DejaVuSans-Bold-55"/><use x="1441.066" xlink:href="#DejaVuSans-Bold-32"/><use x="1475.881" xlink:href="#DejaVuSans-Bold-73"/><use x="1513.088" xlink:href="#DejaVuSans-Bold-110"/><use x="1584.279" xlink:href="#DejaVuSans-Bold-102"/><use x="1627.785" xlink:href="#DejaVuSans-Bold-108"/><use x="1662.063" xlink:href="#DejaVuSans-Bold-97"/><use x="1729.543" xlink:href="#DejaVuSans-Bold-116"/><use x="1777.346" xlink:href="#DejaVuSans-Bold-105"/><use x="1811.623" xlink:href="#DejaVuSans-Bold-111"/><use x="1880.324" xlink:href="#DejaVuSans-Bold-110"/><use x="1951.516" xlink:href="#DejaVuSans-Bold-44"/><use x="1989.504" xlink:href="#DejaVuSans-Bold-32"/><use x="2024.318" xlink:href="#DejaVuSans-Bold-97"/><use x="2091.799" xlink:href="#DejaVuSans-Bold-110"/><use x="2162.99" xlink:href="#DejaVuSans-Bold-100"/><use x="2234.572" xlink:href="#DejaVuSans-Bold-32"/><use x="2269.387" xlink:href="#DejaVuSans-Bold-68"/><use x="2352.395" xlink:href="#DejaVuSans-Bold-105"/><use x="2386.672" xlink:href="#DejaVuSans-Bold-115"/><use x="2446.193" xlink:href="#DejaVuSans-Bold-105"/><use x="2480.471" xlink:href="#DejaVuSans-Bold-110"/><use x="2551.662" xlink:href="#DejaVuSans-Bold-102"/><use x="2595.168" xlink:href="#DejaVuSans-Bold-108"/><use x="2629.445" xlink:href="#DejaVuSans-Bold-97"/><use x="2696.926" xlink:href="#DejaVuSans-Bold-116"/><use x="2744.729" xlink:href="#DejaVuSans-Bold-105"/><use x="2779.006" xlink:href="#DejaVuSans-Bold-111"/><use x="2847.707" xlink:href="#DejaVuSans-Bold-110"/><use x="2918.898" xlink:href="#DejaVuSans-Bold-32"/><use x="2953.713" xlink:href="#DejaVuSans-Bold-82"/><use x="3030.715" xlink:href="#DejaVuSans-Bold-97"/><use x="3098.195" xlink:href="#DejaVuSans-Bold-116"/><use x="3145.998" xlink:href="#DejaVuSans-Bold-105"/><use x="3180.275" xlink:href="#DejaVuSans-Bold-111"/><use x="3248.977" xlink:href="#DejaVuSans-Bold-58"/><use x="3288.967" xlink:href="#DejaVuSans-Bold-32"/><use x="3323.781" xlink:href="#DejaVuSans-Bold-48"/><use x="3393.361" xlink:href="#DejaVuSans-Bold-46"/><use x="3431.35" xlink:href="#DejaVuSans-Bold-52"/><use x="3500.93" xlink:href="#DejaVuSans-Bold-37"/></g></g></g><g id="matplotlib.axis_2"><g id="ytick_1"><path clip-path="url(#p0e62de996f)" d="M126 583.2h781.2" fill="none" stroke="#b0b0b0" stroke-linecap="square" stroke-width=".8" id="line2d_19"/><g id="line2d_20"><defs><path d="M0 0h-3.5" id="m32495f0c46" stroke="#000" stroke-width=".8"/></defs><use x="126" xlink:href="#m32495f0c46" y="583.2" stroke="#000" stroke-width=".8"/></g><g id="text_11"><defs><path d="M11.719 12.406h10.297V4l-8-15.625H7.719l4 15.625z" id="DejaVuSans-44"/></defs><g transform="matrix(.12 0 0 -.12 42.657 587.76)"><use xlink:href="#DejaVuSans-50"/><use x="63.623" xlink:href="#DejaVuSans-54"/><use x="127.246" xlink:href="#DejaVuSans-48"/><use x="190.869" xlink:href="#DejaVuSans-44"/><use x="222.656" xlink:href="#DejaVuSans-48"/><use x="286.279" xlink:href="#DejaVuSans-48"/><use x="349.902" xlink:href="#DejaVuSans-48"/><use x="413.525" xlink:href="#DejaVuSans-44"/><use x="445.313" xlink:href="#DejaVuSans-48"/><use x="508.936" xlink:href="#DejaVuSans-48"/><use x="572.559" xlink:href="#DejaVuSans-48"/></g></g></g><g id="ytick_2"><path clip-path="url(#p0e62de996f)" d="M126 486.414h781.2" fill="none" stroke="#b0b0b0" stroke-linecap="square" stroke-width=".8" id="line2d_21"/><use x="126" xlink:href="#m32495f0c46" y="486.414" stroke="#000" stroke-width=".8" id="line2d_22"/><g transform="matrix(.12 0 0 -.12 42.657 490.973)" id="text_12"><use xlink:href="#DejaVuSans-51"/><use x="63.623" xlink:href="#DejaVuSans-48"/><use x="127.246" xlink:href="#DejaVuSans-53"/><use x="190.869" xlink:href="#DejaVuSans-44"/><use x="222.656" xlink:href="#DejaVuSans-48"/><use x="286.279" xlink:href="#DejaVuSans-48"/><use x="349.902" xlink:href="#DejaVuSans-48"/><use x="413.525" xlink:href="#DejaVuSans-44"/><use x="445.313" xlink:href="#DejaVuSans-48"/><use x="508.936" xlink:href="#DejaVuSans-48"/><use x="572.559" xlink:href="#DejaVuSans-48"/></g></g><g id="ytick_3"><path clip-path="url(#p0e62de996f)" d="M126 389.627h781.2" fill="none" stroke="#b0b0b0" stroke-linecap="square" stroke-width=".8" id="line2d_23"/><use x="126" xlink:href="#m32495f0c46" y="389.627" stroke="#000" stroke-width=".8" id="line2d_24"/><g transform="matrix(.12 0 0 -.12 42.657 394.186)" id="text_13"><use xlink:href="#DejaVuSans-51"/><use x="63.623" xlink:href="#DejaVuSans-53"/><use x="127.246" xlink:href="#DejaVuSans-48"/><use x="190.869" xlink:href="#DejaVuSans-44"/><use x="222.656" xlink:href="#DejaVuSans-48"/><use x="286.279" xlink:href="#DejaVuSans-48"/><use x="349.902" xlink:href="#DejaVuSans-48"/><use x="413.525" xlink:href="#DejaVuSans-44"/><use x="445.313" xlink:href="#DejaVuSans-48"/><use x="508.936" xlink:href="#DejaVuSans-48"/><use x="572.559" xlink:href="#DejaVuSans-48"/></g></g><g id="ytick_4"><path clip-path="url(#p0e62de996f)" d="M126 292.84h781.2" fill="none" stroke="#b0b0b0" stroke-linecap="square" stroke-width=".8" id="line2d_25"/><use x="126" xlink:href="#m32495f0c46" y="292.841" stroke="#000" stroke-width=".8" id="line2d_26"/><g id="text_14"><defs><path d="M10.984 1.516V10.5q3.72-1.766 7.516-2.688 3.813-.921 7.484-.921 9.766 0 14.907 6.562 5.156 6.563 5.89 19.953-2.828-4.203-7.187-6.453-4.344-2.25-9.61-2.25-10.937 0-17.312 6.61-6.375 6.625-6.375 18.109 0 11.219 6.64 18 6.641 6.797 17.672 6.797 12.657 0 19.313-9.703 6.672-9.688 6.672-28.141 0-17.234-8.188-27.516Q40.234-1.42 26.422-1.42q-3.719 0-7.531.734-3.797.734-7.907 2.203zM30.61 32.422q6.641 0 10.516 4.531 3.89 4.547 3.89 12.469 0 7.86-3.89 12.422-3.875 4.562-10.516 4.562-6.64 0-10.515-4.562-3.875-4.563-3.875-12.422 0-7.922 3.875-12.469 3.875-4.531 10.515-4.531z" id="DejaVuSans-57"/></defs><g transform="matrix(.12 0 0 -.12 42.657 297.4)"><use xlink:href="#DejaVuSans-51"/><use x="63.623" xlink:href="#DejaVuSans-57"/><use x="127.246" xlink:href="#DejaVuSans-53"/><use x="190.869" xlink:href="#DejaVuSans-44"/><use x="222.656" xlink:href="#DejaVuSans-48"/><use x="286.279" xlink:href="#DejaVuSans-48"/><use x="349.902" xlink:href="#DejaVuSans-48"/><use x="413.525" xlink:href="#DejaVuSans-44"/><use x="445.313" xlink:href="#DejaVuSans-48"/><use x="508.936" xlink:href="#DejaVuSans-48"/><use x="572.559" xlink:href="#DejaVuSans-48"/></g></g></g><g id="ytick_5"><path clip-path="url(#p0e62de996f)" d="M126 196.054h781.2" fill="none" stroke="#b0b0b0" stroke-linecap="square" stroke-width=".8" id="line2d_27"/><use x="126" xlink:href="#m32495f0c46" y="196.054" stroke="#000" stroke-width=".8" id="line2d_28"/><g transform="matrix(.12 0 0 -.12 42.657 200.614)" id="text_15"><use xlink:href="#DejaVuSans-52"/><use x="63.623" xlink:href="#DejaVuSans-52"/><use x="127.246" xlink:href="#DejaVuSans-48"/><use x="190.869" xlink:href="#DejaVuSans-44"/><use x="222.656" xlink:href="#DejaVuSans-48"/><use x="286.279" xlink:href="#DejaVuSans-48"/><use x="349.902" xlink:href="#DejaVuSans-48"/><use x="413.525" xlink:href="#DejaVuSans-44"/><use x="445.313" xlink:href="#DejaVuSans-48"/><use x="508.936" xlink:href="#DejaVuSans-48"/><use x="572.559" xlink:href="#DejaVuSans-48"/></g></g><g id="text_16"><defs><path d="M-.297 72.906h61.672v-8.312H35.5V0h-9.906v64.594H-.296z" id="DejaVuSans-84"/><path d="M30.61 48.39q-7.22 0-11.422-5.64-4.204-5.64-4.204-15.453 0-9.813 4.172-15.453 4.188-5.64 11.453-5.64 7.188 0 11.375 5.655 4.203 5.672 4.203 15.438 0 9.719-4.203 15.406-4.187 5.688-11.375 5.688zm0 7.61q11.718 0 18.406-7.625 6.703-7.61 6.703-21.078 0-13.422-6.703-21.078-6.688-7.64-18.407-7.64-11.765 0-18.437 7.64-6.656 7.656-6.656 21.078 0 13.469 6.656 21.078Q18.844 56 30.609 56z" id="DejaVuSans-111"/><path d="M18.313 70.219V54.688h18.5v-6.985h-18.5V18.016q0-6.688 1.828-8.594 1.828-1.906 7.453-1.906h9.218V0h-9.218q-10.407 0-14.36 3.875-3.953 3.89-3.953 14.14v29.688H2.687v6.984h6.594V70.22z" id="DejaVuSans-116"/><path d="M34.281 27.484q-10.89 0-15.093-2.484-4.204-2.484-4.204-8.5 0-4.781 3.157-7.594 3.156-2.797 8.562-2.797 7.485 0 12 5.297 4.516 5.297 4.516 14.078v2zm17.922 3.72V0H43.22v8.297Q40.14 3.328 35.547.953q-4.594-2.375-11.234-2.375-8.391 0-13.36 4.719Q6 8.016 6 15.922q0 9.219 6.172 13.906 6.187 4.688 18.437 4.688h12.61v.89q0 6.203-4.078 9.594-4.078 3.39-11.453 3.39-4.688 0-9.141-1.124-4.438-1.125-8.531-3.375v8.312q4.921 1.906 9.562 2.844 4.64.953 9.031.953 11.875 0 17.735-6.156 5.86-6.14 5.86-18.64z" id="DejaVuSans-97"/><path d="M9.422 75.984h8.984V0H9.422z" id="DejaVuSans-108"/><path d="M53.516 70.516V60.89q-5.61 2.687-10.594 4-4.984 1.328-9.625 1.328-8.047 0-12.422-3.125t-4.375-8.89q0-4.845 2.906-7.313 2.907-2.453 11.016-3.97l5.953-1.218q11.031-2.11 16.281-7.406 5.25-5.297 5.25-14.172 0-10.61-7.11-16.078-7.093-5.469-20.812-5.469-5.172 0-11.015 1.172Q13.14.922 6.89 3.219v10.156q6-3.36 11.765-5.078 5.766-1.703 11.328-1.703 8.438 0 13.032 3.312 4.593 3.328 4.593 9.485 0 5.359-3.297 8.39-3.296 3.032-10.812 4.547L27.484 33.5q-11.03 2.188-15.968 6.875-4.922 4.688-4.922 13.047 0 9.672 6.812 15.234 6.813 5.563 18.766 5.563 5.14 0 10.453-.938 5.328-.922 10.89-2.765z" id="DejaVuSans-83"/><path d="M8.5 21.578v33.11h8.984V21.922q0-7.766 3.016-11.656 3.031-3.875 9.094-3.875 7.265 0 11.484 4.64 4.234 4.64 4.234 12.656v31h8.985V0h-8.984v8.406Q42.047 3.422 37.718 1q-4.313-2.422-10.032-2.422-9.421 0-14.312 5.86Q8.5 10.296 8.5 21.578zM31.11 56z" id="DejaVuSans-117"/><path d="M18.11 8.203v-29H9.077v75.484h9.031v-8.296q2.844 4.875 7.157 7.234Q29.594 56 35.594 56q9.968 0 16.187-7.906 6.235-7.907 6.235-20.797T51.78 6.484q-6.218-7.906-16.187-7.906-6 0-10.328 2.375-4.313 2.375-7.157 7.25zm30.578 19.094q0 9.906-4.079 15.547-4.078 5.64-11.203 5.64-7.14 0-11.218-5.64-4.079-5.64-4.079-15.547 0-9.906 4.078-15.547 4.079-5.64 11.22-5.64 7.124 0 11.202 5.64t4.078 15.547z" id="DejaVuSans-112"/><path d="M32.172-5.078q-3.797-9.766-7.422-12.735-3.61-2.984-9.656-2.984H7.906v7.516h5.282q3.703 0 5.75 1.765Q21-9.766 23.483-3.219l1.61 4.094-22.11 53.813H12.5l17.094-42.766 17.093 42.766h9.516z" id="DejaVuSans-121"/></defs><g transform="matrix(0 -.18 -.18 0 31.914 386.536)" fill="green"><use xlink:href="#DejaVuSans-84"/><use x="60.818" xlink:href="#DejaVuSans-111"/><use x="122" xlink:href="#DejaVuSans-116"/><use x="161.209" xlink:href="#DejaVuSans-97"/><use x="222.488" xlink:href="#DejaVuSans-108"/><use x="250.271" xlink:href="#DejaVuSans-32"/><use x="282.059" xlink:href="#DejaVuSans-83"/><use x="345.535" xlink:href="#DejaVuSans-117"/><use x="408.914" xlink:href="#DejaVuSans-112"/><use x="472.391" xlink:href="#DejaVuSans-112"/><use x="535.867" xlink:href="#DejaVuSans-108"/><use x="563.65" xlink:href="#DejaVuSans-121"/></g></g></g><path clip-path="url(#p0e62de996f)" d="M126 174.546h883" fill="none" stroke="red" stroke-dasharray="12.8,3.2,2,3.2" stroke-width="2" id="line2d_29"/><path clip-path="url(#p0e62de996f)" d="M126 582.843l10.258-4.514 10.258-4.284 11.048-4.371 11.047-4.132 11.047-3.907 11.837-3.95 11.836-3.72 12.625-3.728 12.626-3.497 13.414-3.478 13.415-3.248 14.204-3.207 14.203-2.984 14.993-2.924 15.782-2.847 16.57-2.753 16.572-2.532 17.36-2.433 18.149-2.324 18.938-2.207 20.516-2.164 21.306-2.02 22.883-1.94 23.673-1.783 25.25-1.68 26.83-1.563 29.196-1.477 31.564-1.368 33.93-1.245 37.088-1.137 41.033-1.032 45.767-.923 51.291-.81 22.884-.298h0" fill="none" stroke="purple" stroke-linecap="square" stroke-width="3" id="line2d_30"/><path d="M126 583.2V77.76" fill="none" stroke="#000" stroke-linecap="square" stroke-width=".8" id="patch_3"/><path d="M907.2 583.2V77.76" fill="none" stroke="#000" stroke-linecap="square" stroke-width=".8" id="patch_4"/><path d="M126 583.2h781.2" fill="none" stroke="#000" stroke-linecap="square" stroke-width=".8" id="patch_5"/><path d="M126 77.76h781.2" fill="none" stroke="#000" stroke-linecap="square" stroke-width=".8" id="patch_6"/><g id="text_17"><defs><path d="M9.188 72.906h23.921l16.594-39.015 16.703 39.015h23.875V0H72.516v53.328L55.719 14.016H43.797L27 53.328V0H9.187z" id="DejaVuSans-Bold-77"/><path d="M22.219 27.984L2.484 54.687H21l11.172-16.203L43.5 54.687h18.516L42.28 28.078 62.984 0h-18.5L32.172 17.281 20.016 0h-18.5z" id="DejaVuSans-Bold-120"/><path d="M59.906 70.61V55.171q-6 2.687-11.718 4.047-5.704 1.375-10.782 1.375-6.734 0-9.968-1.86-3.22-1.843-3.22-5.75 0-2.937 2.173-4.578 2.172-1.625 7.89-2.797l8-1.609q12.157-2.453 17.282-7.438 5.14-4.968 5.14-14.156 0-12.047-7.156-17.937-7.156-5.89-21.86-5.89-6.921 0-13.906 1.327Q14.797 1.22 7.813 3.812v15.86q6.984-3.703 13.5-5.594 6.515-1.875 12.578-1.875 6.156 0 9.422 2.047 3.265 2.063 3.265 5.875 0 3.406-2.219 5.266-2.218 1.859-8.859 3.328l-7.281 1.61q-10.938 2.343-16 7.468-5.047 5.125-5.047 13.812 0 10.891 7.031 16.75 7.031 5.86 20.219 5.86 6.016 0 12.36-.906 6.343-.907 13.124-2.704z" id="DejaVuSans-Bold-83"/><path d="M7.813 21.297v33.39H25.39V49.22q0-4.438-.047-11.157-.047-6.718-.047-8.953 0-6.593.344-9.5.343-2.906 1.172-4.234 1.062-1.703 2.796-2.64 1.735-.922 3.985-.922 5.468 0 8.593 4.203 3.126 4.203 3.126 11.672v27h17.484V0H45.313v7.906Q41.358 3.125 36.937.844q-4.421-2.266-9.734-2.266-9.484 0-14.437 5.813-4.954 5.812-4.954 16.906z" id="DejaVuSans-Bold-117"/><path d="M25.875 7.906v-28.703H8.406v75.484h17.469v-8q3.625 4.782 8.016 7.047Q38.28 56 44 56q10.11 0 16.594-8.031 6.5-8.032 6.5-20.672t-6.5-20.688Q54.109-1.42 44-1.42q-5.719 0-10.11 2.265-4.39 2.281-8.015 7.062zM37.5 43.313q-5.61 0-8.625-4.126-3-4.124-3-11.89 0-7.766 3-11.89 3.016-4.126 8.625-4.126 5.61 0 8.563 4.094 2.968 4.11 2.968 11.922t-2.968 11.906q-2.954 4.11-8.563 4.11z" id="DejaVuSans-Bold-112"/><path d="M10.594 48.188h62.593v-11.47H10.594zm0-22.204h62.593V14.406H10.594z" id="DejaVuSans-Bold-61"/><path d="M10.594 72.906h46.734V59.078H25.594V47.797q2.14.594 4.312.906 2.172.328 4.516.328 13.328 0 20.75-6.672 7.422-6.672 7.422-18.578 0-11.812-8.078-18.515-8.078-6.688-22.438-6.688-6.203 0-12.281 1.203T7.719 3.421V18.22q5.953-3.422 11.297-5.14 5.343-1.704 10.093-1.704 6.828 0 10.75 3.344 3.938 3.344 3.938 9.062 0 5.766-3.938 9.078-3.922 3.328-10.75 3.328-4.062 0-8.656-1.062-4.578-1.047-9.86-3.234z" id="DejaVuSans-Bold-53"/></defs><g transform="matrix(.144 0 0 -.144 204.91 165.748)" fill="red"><use xlink:href="#DejaVuSans-Bold-77"/><use x="99.512" xlink:href="#DejaVuSans-Bold-97"/><use x="166.992" xlink:href="#DejaVuSans-Bold-120"/><use x="231.494" xlink:href="#DejaVuSans-Bold-32"/><use x="266.309" xlink:href="#DejaVuSans-Bold-83"/><use x="338.33" xlink:href="#DejaVuSans-Bold-117"/><use x="409.521" xlink:href="#DejaVuSans-Bold-112"/><use x="481.104" xlink:href="#DejaVuSans-Bold-112"/><use x="552.686" xlink:href="#DejaVuSans-Bold-108"/><use x="586.963" xlink:href="#DejaVuSans-Bold-121"/><use x="652.148" xlink:href="#DejaVuSans-Bold-32"/><use x="686.963" xlink:href="#DejaVuSans-Bold-61"/><use x="770.752" xlink:href="#DejaVuSans-Bold-32"/><use x="805.566" xlink:href="#DejaVuSans-Bold-52"/><use x="875.146" xlink:href="#DejaVuSans-Bold-53"/><use x="944.727" xlink:href="#DejaVuSans-Bold-48"/><use x="1014.307" xlink:href="#DejaVuSans-Bold-44"/><use x="1052.295" xlink:href="#DejaVuSans-Bold-48"/><use x="1121.875" xlink:href="#DejaVuSans-Bold-48"/><use x="1191.455" xlink:href="#DejaVuSans-Bold-48"/><use x="1261.035" xlink:href="#DejaVuSans-Bold-44"/><use x="1299.023" xlink:href="#DejaVuSans-Bold-48"/><use x="1368.604" xlink:href="#DejaVuSans-Bold-48"/><use x="1438.184" xlink:href="#DejaVuSans-Bold-48"/></g></g><g id="text_18"><defs><path d="M5.422 35.89h30.656V21.688H5.422z" id="DejaVuSans-Bold-45"/><path d="M.484 72.906h67.188V58.687H43.5V0H24.703v58.688H.484z" id="DejaVuSans-Bold-84"/><path d="M8.406 75.984h17.469V34.625L46 54.688h20.313l-26.72-25.094L68.407 0H47.22L25.875 22.797V0H8.406z" id="DejaVuSans-Bold-107"/><path d="M74.703 5.422Q67.672 2 60.11.282q-7.562-1.704-15.625-1.704-18.218 0-28.859 10.188-10.64 10.187-10.64 27.609 0 17.625 10.828 27.734 10.843 10.11 29.703 10.11 7.265 0 13.922-1.375 6.671-1.36 12.578-4.047V53.719q-6.094 3.453-12.125 5.156-6.032 1.719-12.094 1.719-11.219 0-17.297-6.282-6.078-6.265-6.078-17.937 0-11.563 5.86-17.875 5.859-6.297 16.64-6.297 2.937 0 5.453.36 2.516.374 4.516 1.156v14.156H45.406v12.61h29.297z" id="DejaVuSans-Bold-71"/><path d="M3.516 54.688h17L29.688 17l9.234 37.688h14.594l9.187-37.297 9.219 37.297h17L74.516 0H55.422l-9.234 37.594L37.016 0H17.922z" id="DejaVuSans-Bold-119"/><path d="M63.375 33.297V0H45.797V25.391q0 7.172-.313 9.859-.312 2.688-1.093 3.953-1.032 1.719-2.797 2.672-1.75.953-4 .953-5.469 0-8.594-4.234-3.125-4.219-3.125-11.688V0H8.406v75.984h17.469V46.688q3.953 4.78 8.39 7.046Q38.72 56 44.095 56q9.468 0 14.375-5.813 4.906-5.796 4.906-16.89z" id="DejaVuSans-Bold-104"/><path d="M42.484 60.594q-8.593 0-13.328-6.344-4.734-6.344-4.734-17.875 0-11.469 4.734-17.828 4.735-6.344 13.328-6.344 8.641 0 13.375 6.344 4.735 6.36 4.735 17.828 0 11.531-4.735 17.875-4.734 6.344-13.375 6.344zm0 13.625q17.578 0 27.532-10.063 9.968-10.047 9.968-27.781 0-17.672-9.968-27.734Q60.062-1.422 42.484-1.422q-17.53 0-27.515 10.063-9.985 10.062-9.985 27.734 0 17.734 9.985 27.781Q24.953 74.22 42.484 74.22z" id="DejaVuSans-Bold-79"/><path d="M59.078 45.61q3.328 5.078 7.89 7.734Q71.532 56 77 56q9.422 0 14.36-5.813 4.937-5.796 4.937-16.89V0H78.719v28.516q.047.64.062 1.312.031.688.031 1.953 0 5.813-1.718 8.422-1.703 2.625-5.516 2.625-4.969 0-7.687-4.11-2.703-4.093-2.813-11.859V0H43.5v28.516q0 9.078-1.563 11.687-1.562 2.625-5.562 2.625-5.031 0-7.766-4.125-2.734-4.125-2.734-11.797V0H8.297v54.688h17.578v-8q3.234 4.624 7.406 6.968Q37.453 56 42.484 56q5.657 0 10-2.734 4.36-2.735 6.594-7.657z" id="DejaVuSans-Bold-109"/></defs><g transform="matrix(.1728 0 0 -.1728 204.91 539.206)" fill="purple"><use xlink:href="#DejaVuSans-Bold-45"/><use x="41.504" xlink:href="#DejaVuSans-Bold-45"/><use x="83.008" xlink:href="#DejaVuSans-Bold-45"/><use x="124.512" xlink:href="#DejaVuSans-Bold-45"/><use x="166.016" xlink:href="#DejaVuSans-Bold-45"/><use x="207.52" xlink:href="#DejaVuSans-Bold-32"/><use x="242.334" xlink:href="#DejaVuSans-Bold-32"/><use x="277.148" xlink:href="#DejaVuSans-Bold-84"/><use x="345.158" xlink:href="#DejaVuSans-Bold-111"/><use x="413.859" xlink:href="#DejaVuSans-Bold-107"/><use x="480.332" xlink:href="#DejaVuSans-Bold-101"/><use x="548.154" xlink:href="#DejaVuSans-Bold-110"/><use x="619.346" xlink:href="#DejaVuSans-Bold-32"/><use x="654.16" xlink:href="#DejaVuSans-Bold-71"/><use x="736.24" xlink:href="#DejaVuSans-Bold-114"/><use x="785.557" xlink:href="#DejaVuSans-Bold-111"/><use x="854.258" xlink:href="#DejaVuSans-Bold-119"/><use x="946.641" xlink:href="#DejaVuSans-Bold-116"/><use x="994.443" xlink:href="#DejaVuSans-Bold-104"/><use x="1065.635" xlink:href="#DejaVuSans-Bold-32"/><use x="1100.449" xlink:href="#DejaVuSans-Bold-79"/><use x="1185.459" xlink:href="#DejaVuSans-Bold-118"/><use x="1250.645" xlink:href="#DejaVuSans-Bold-101"/><use x="1318.467" xlink:href="#DejaVuSans-Bold-114"/><use x="1367.783" xlink:href="#DejaVuSans-Bold-32"/><use x="1402.598" xlink:href="#DejaVuSans-Bold-84"/><use x="1470.811" xlink:href="#DejaVuSans-Bold-105"/><use x="1505.088" xlink:href="#DejaVuSans-Bold-109"/><use x="1609.287" xlink:href="#DejaVuSans-Bold-101"/></g></g><g id="text_19"><defs><path d="M9.813 72.906h9.859V8.296h35.5V0H9.812z" id="DejaVuSans-76"/><path d="M9.422 54.688h8.984V0H9.422zm0 21.296h8.984v-11.39H9.422z" id="DejaVuSans-105"/><path d="M37.11 75.984V68.5h-8.594q-4.828 0-6.72-1.953-1.874-1.953-1.874-7.031v-4.828h14.797v-6.985H19.922V0H10.89v47.703H2.297v6.984h8.594V58.5q0 9.125 4.25 13.297 4.25 4.187 13.468 4.187z" id="DejaVuSans-102"/><path d="M56.203 29.594v-4.39H14.891q.593-9.282 5.593-14.142 5-4.859 13.938-4.859 5.172 0 10.031 1.266 4.86 1.265 9.656 3.812v-8.5Q49.266.734 44.187-.344 39.11-1.422 33.892-1.422q-13.094 0-20.735 7.61-7.64 7.625-7.64 20.625 0 13.421 7.25 21.296Q20.016 56 32.328 56q11.031 0 17.453-7.11 6.422-7.093 6.422-19.296zm-8.984 2.64q-.094 7.36-4.125 11.75-4.032 4.407-10.672 4.407-7.516 0-12.031-4.25-4.516-4.25-5.203-11.97z" id="DejaVuSans-101"/><path d="M54.89 33.016V0h-8.984v32.719q0 7.765-3.031 11.61-3.031 3.858-9.078 3.858-7.281 0-11.484-4.64-4.204-4.625-4.204-12.64V0H9.08v54.688h9.03v-8.5q3.235 4.937 7.594 7.374Q30.078 56 35.797 56q9.422 0 14.25-5.828 4.844-5.828 4.844-17.156z" id="DejaVuSans-110"/><path d="M41.11 46.297q-1.516.875-3.297 1.281Q36.03 48 33.89 48q-7.625 0-11.703-4.953-4.079-4.953-4.079-14.234V0H9.08v54.688h9.03v-8.5q2.844 4.984 7.375 7.39Q30.031 56 36.531 56q.922 0 2.047-.125 1.125-.11 2.484-.36z" id="DejaVuSans-114"/><path d="M9.078 75.984h9.031V31.11l26.813 23.578H56.39l-29-25.578L57.625 0H45.906L18.11 26.703V0H9.08z" id="DejaVuSans-107"/></defs><g transform="matrix(.3 0 0 -.3 371.18 57.76)" fill="purple"><use xlink:href="#DejaVuSans-76"/><use x="55.713" xlink:href="#DejaVuSans-105"/><use x="83.496" xlink:href="#DejaVuSans-102"/><use x="118.701" xlink:href="#DejaVuSans-101"/><use x="180.225" xlink:href="#DejaVuSans-32"/><use x="212.012" xlink:href="#DejaVuSans-83"/><use x="275.488" xlink:href="#DejaVuSans-112"/><use x="338.965" xlink:href="#DejaVuSans-97"/><use x="400.244" xlink:href="#DejaVuSans-110"/><use x="463.623" xlink:href="#DejaVuSans-32"/><use x="495.41" xlink:href="#DejaVuSans-102"/><use x="530.615" xlink:href="#DejaVuSans-111"/><use x="591.797" xlink:href="#DejaVuSans-114"/><use x="632.91" xlink:href="#DejaVuSans-32"/><use x="664.697" xlink:href="#DejaVuSans-84"/><use x="725.516" xlink:href="#DejaVuSans-111"/><use x="786.697" xlink:href="#DejaVuSans-107"/><use x="844.561" xlink:href="#DejaVuSans-101"/><use x="906.084" xlink:href="#DejaVuSans-110"/></g></g></g><g id="text_20"><defs><path d="M28.813 13.813H60.89V0H7.906v13.813l26.61 23.5q3.578 3.218 5.28 6.296Q41.5 46.687 41.5 50q0 5.125-3.438 8.25-3.437 3.125-9.156 3.125-4.39 0-9.625-1.875-5.218-1.875-11.172-5.594v16.016q6.344 2.094 12.547 3.187 6.203 1.11 12.157 1.11 13.093 0 20.343-5.766 7.25-5.75 7.25-16.062 0-5.953-3.078-11.11-3.078-5.14-12.937-13.797z" id="DejaVuSans-Bold-50"/></defs><g transform="matrix(.14 0 0 -.14 50.4 602.64)" fill="#00f"><use xlink:href="#DejaVuSans-Bold-32"/><use x="34.814" xlink:href="#DejaVuSans-Bold-32"/><use x="69.629" xlink:href="#DejaVuSans-Bold-32"/><use x="104.443" xlink:href="#DejaVuSans-Bold-32"/><use x="139.258" xlink:href="#DejaVuSans-Bold-32"/><use x="174.072" xlink:href="#DejaVuSans-Bold-32"/><use x="208.887" xlink:href="#DejaVuSans-Bold-32"/><use x="243.701" xlink:href="#DejaVuSans-Bold-32"/><use x="278.516" xlink:href="#DejaVuSans-Bold-32"/><use x="313.33" xlink:href="#DejaVuSans-Bold-32"/><use x="348.145" xlink:href="#DejaVuSans-Bold-32"/><use x="382.959" xlink:href="#DejaVuSans-Bold-32"/><use x="417.773" xlink:href="#DejaVuSans-Bold-32"/><use x="452.588" xlink:href="#DejaVuSans-Bold-32"/><use x="487.402" xlink:href="#DejaVuSans-Bold-32"/><use x="522.217" xlink:href="#DejaVuSans-Bold-73"/><use x="559.424" xlink:href="#DejaVuSans-Bold-110"/><use x="630.615" xlink:href="#DejaVuSans-Bold-105"/><use x="664.893" xlink:href="#DejaVuSans-Bold-116"/><use x="712.695" xlink:href="#DejaVuSans-Bold-105"/><use x="746.973" xlink:href="#DejaVuSans-Bold-97"/><use x="814.453" xlink:href="#DejaVuSans-Bold-108"/><use x="848.73" xlink:href="#DejaVuSans-Bold-32"/><use x="883.545" xlink:href="#DejaVuSans-Bold-83"/><use x="955.566" xlink:href="#DejaVuSans-Bold-117"/><use x="1026.758" xlink:href="#DejaVuSans-Bold-112"/><use x="1098.34" xlink:href="#DejaVuSans-Bold-112"/><use x="1169.922" xlink:href="#DejaVuSans-Bold-108"/><use x="1204.199" xlink:href="#DejaVuSans-Bold-121"/><use x="1269.385" xlink:href="#DejaVuSans-Bold-58"/><use x="1309.375" xlink:href="#DejaVuSans-Bold-32"/><use x="1344.189" xlink:href="#DejaVuSans-Bold-50"/><use x="1413.77" xlink:href="#DejaVuSans-Bold-54"/><use x="1483.35" xlink:href="#DejaVuSans-Bold-48"/><use x="1552.93" xlink:href="#DejaVuSans-Bold-44"/><use x="1590.918" xlink:href="#DejaVuSans-Bold-48"/><use x="1660.498" xlink:href="#DejaVuSans-Bold-48"/><use x="1730.078" xlink:href="#DejaVuSans-Bold-48"/><use x="1799.658" xlink:href="#DejaVuSans-Bold-44"/><use x="1837.646" xlink:href="#DejaVuSans-Bold-48"/><use x="1907.227" xlink:href="#DejaVuSans-Bold-48"/><use x="1976.807" xlink:href="#DejaVuSans-Bold-48"/><use x="2046.387" xlink:href="#DejaVuSans-Bold-32"/><use x="2081.201" xlink:href="#DejaVuSans-Bold-32"/><use x="2116.016" xlink:href="#DejaVuSans-Bold-32"/><use x="2150.83" xlink:href="#DejaVuSans-Bold-83"/><use x="2222.852" xlink:href="#DejaVuSans-Bold-116"/><use x="2270.654" xlink:href="#DejaVuSans-Bold-111"/><use x="2339.355" xlink:href="#DejaVuSans-Bold-112"/><use x="2410.938" xlink:href="#DejaVuSans-Bold-32"/><use x="2445.752" xlink:href="#DejaVuSans-Bold-73"/><use x="2482.959" xlink:href="#DejaVuSans-Bold-110"/><use x="2554.15" xlink:href="#DejaVuSans-Bold-102"/><use x="2597.656" xlink:href="#DejaVuSans-Bold-108"/><use x="2631.934" xlink:href="#DejaVuSans-Bold-97"/><use x="2699.414" xlink:href="#DejaVuSans-Bold-116"/><use x="2747.217" xlink:href="#DejaVuSans-Bold-105"/><use x="2781.494" xlink:href="#DejaVuSans-Bold-111"/><use x="2850.195" xlink:href="#DejaVuSans-Bold-110"/><use x="2921.387" xlink:href="#DejaVuSans-Bold-58"/><use x="2961.377" xlink:href="#DejaVuSans-Bold-32"/><use x="2996.191" xlink:href="#DejaVuSans-Bold-52"/><use x="3065.771" xlink:href="#DejaVuSans-Bold-53"/><use x="3135.352" xlink:href="#DejaVuSans-Bold-48"/><use x="3204.932" xlink:href="#DejaVuSans-Bold-44"/><use x="3242.92" xlink:href="#DejaVuSans-Bold-48"/><use x="3312.5" xlink:href="#DejaVuSans-Bold-48"/><use x="3382.08" xlink:href="#DejaVuSans-Bold-48"/><use x="3451.66" xlink:href="#DejaVuSans-Bold-44"/><use x="3489.648" xlink:href="#DejaVuSans-Bold-48"/><use x="3559.229" xlink:href="#DejaVuSans-Bold-48"/><use x="3628.809" xlink:href="#DejaVuSans-Bold-48"/></g></g><g id="text_21"><defs><path d="M4.89 31.39h26.313v-8H4.891z" id="DejaVuSans-45"/><path d="M11.719 12.406h10.297V0H11.719zm0 39.297h10.297v-12.39H11.719z" id="DejaVuSans-58"/><path d="M10.688 12.406H21V0H10.687z" id="DejaVuSans-46"/></defs><g transform="matrix(.07 0 0 -.07 10.08 635.04)" fill="#00f"><use xlink:href="#DejaVuSans-50"/><use x="63.623" xlink:href="#DejaVuSans-48"/><use x="127.246" xlink:href="#DejaVuSans-50"/><use x="190.869" xlink:href="#DejaVuSans-48"/><use x="254.492" xlink:href="#DejaVuSans-45"/><use x="290.576" xlink:href="#DejaVuSans-48"/><use x="354.199" xlink:href="#DejaVuSans-53"/><use x="417.822" xlink:href="#DejaVuSans-45"/><use x="453.906" xlink:href="#DejaVuSans-51"/><use x="517.529" xlink:href="#DejaVuSans-49"/><use x="581.152" xlink:href="#DejaVuSans-32"/><use x="612.939" xlink:href="#DejaVuSans-50"/><use x="676.563" xlink:href="#DejaVuSans-51"/><use x="740.186" xlink:href="#DejaVuSans-58"/><use x="773.877" xlink:href="#DejaVuSans-52"/><use x="837.5" xlink:href="#DejaVuSans-57"/><use x="901.123" xlink:href="#DejaVuSans-58"/><use x="934.814" xlink:href="#DejaVuSans-50"/><use x="998.438" xlink:href="#DejaVuSans-54"/><use x="1062.061" xlink:href="#DejaVuSans-46"/><use x="1093.848" xlink:href="#DejaVuSans-57"/><use x="1157.471" xlink:href="#DejaVuSans-48"/><use x="1221.094" xlink:href="#DejaVuSans-50"/><use x="1284.717" xlink:href="#DejaVuSans-48"/><use x="1348.34" xlink:href="#DejaVuSans-57"/><use x="1411.963" xlink:href="#DejaVuSans-55"/></g></g><g id="text_22"><defs><path d="M44.281 53.078v-8.5q-3.797 1.953-7.906 2.922-4.094.984-8.5.984-6.688 0-10.031-2.047-3.344-2.046-3.344-6.156 0-3.125 2.39-4.906 2.391-1.781 9.626-3.39l3.078-.688q9.562-2.047 13.593-5.781 4.032-3.735 4.032-10.422 0-7.625-6.032-12.078-6.03-4.438-16.578-4.438-4.39 0-9.156.86Q10.688.296 5.422 2v9.281q4.984-2.594 9.812-3.89 4.829-1.282 9.579-1.282 6.343 0 9.75 2.172 3.421 2.172 3.421 6.125 0 3.656-2.468 5.61-2.453 1.953-10.813 3.765l-3.125.735q-8.344 1.75-12.062 5.39-3.704 3.64-3.704 9.985 0 7.718 5.47 11.906Q16.75 56 26.811 56q4.97 0 9.36-.734 4.406-.72 8.11-2.188z" id="DejaVuSans-115"/><path d="M28.61 0L.78 72.906h10.297l23.11-61.375 23.14 61.375h10.25L39.797 0z" id="DejaVuSans-86"/><path d="M9.813 72.906h9.859V42.094L52.39 72.906h12.703L28.906 38.922 67.672 0H54.688L19.672 35.11V0h-9.86z" id="DejaVuSans-75"/><path d="M59.516 10.406v19.578h-16.11v8.11h25.875V6.78Q63.578 2.734 56.687.656 49.813-1.422 42-1.422q-17.094 0-26.75 9.985-9.64 10-9.64 27.812 0 17.875 9.64 27.86 9.656 9.984 26.75 9.984 7.125 0 13.547-1.766 6.422-1.75 11.844-5.172v-10.5q-5.47 4.64-11.625 6.985-6.157 2.343-12.938 2.343-13.39 0-20.11-7.468-6.702-7.47-6.702-22.266 0-14.75 6.703-22.219 6.718-7.469 20.11-7.469 5.218 0 9.312.907 4.109.906 7.375 2.812z" id="DejaVuSans-71"/></defs><g transform="matrix(.16 0 0 -.16 410.436 -1931.842)" fill="red"><use xlink:href="#DejaVuSans-76"/><use x="55.713" xlink:href="#DejaVuSans-105"/><use x="83.496" xlink:href="#DejaVuSans-102"/><use x="118.701" xlink:href="#DejaVuSans-101"/><use x="180.225" xlink:href="#DejaVuSans-115"/><use x="232.324" xlink:href="#DejaVuSans-112"/><use x="295.801" xlink:href="#DejaVuSans-97"/><use x="357.08" xlink:href="#DejaVuSans-110"/><use x="420.459" xlink:href="#DejaVuSans-32"/><use x="452.246" xlink:href="#DejaVuSans-102"/><use x="487.451" xlink:href="#DejaVuSans-111"/><use x="548.633" xlink:href="#DejaVuSans-114"/><use x="589.746" xlink:href="#DejaVuSans-32"/><use x="621.533" xlink:href="#DejaVuSans-84"/><use x="682.352" xlink:href="#DejaVuSans-111"/><use x="743.533" xlink:href="#DejaVuSans-107"/><use x="801.396" xlink:href="#DejaVuSans-101"/><use x="862.92" xlink:href="#DejaVuSans-110"/><use x="926.299" xlink:href="#DejaVuSans-32"/><use x="958.086" xlink:href="#DejaVuSans-86"/><use x="1026.494" xlink:href="#DejaVuSans-75"/><use x="1092.07" xlink:href="#DejaVuSans-71"/></g></g></g><defs><clipPath id="p0e62de996f"><path d="M126 77.76h781.2V583.2H126z"/></clipPath></defs></svg>