<svg xmlns="http://www.w3.org/2000/svg" height="864" viewBox="0 0 1008 648" width="1344"><style>.a{fill:#fff;}.b{clip-path:url(#p0e62de996f);fill:none;stroke-width:0.8;stroke:#b0b0b0;}.c{stroke-width:0.8;stroke:#000;}.d{fill:#00f;}.e{fill:none;stroke-width:0.8;stroke:#000;}.f{fill:red;}.g{fill:purple;}</style><defs><style>  *{stroke-linecap:butt;stroke-linejoin:round}</style></defs><path d="M0 648h1008V0H0z" class="a"/><path d="M126 583.2h781.2V77.8H126z" class="a"/><path d="M126 583.2V77.8" class="b"/><defs><path d="M0 0v3.5" class="c"/></defs><use x="126" xlink:href="#me722141058" y="583.2" class="c"/><defs><path d="M31.8 66.4q-7.6 0-11.5-7.5Q16.5 51.4 16.5 36.4q0-15 3.8-22.5 3.8-7.5 11.5-7.5 7.7 0 11.5 7.5 3.8 7.5 3.8 22.5 0 15-3.8 22.5-3.8 7.5-11.5 7.5zm0 7.8q12.3 0 18.7-9.7 6.5-9.7 6.5-28.1 0-18.4-6.5-28.1-6.5-9.7-18.7-9.7-12.2 0-18.7 9.7-6.5 9.7-6.5 28.1 0 18.5 6.5 28.1Q19.5 74.2 31.8 74.2z"/></defs><use xlink:href="#DejaVuSans-48" transform="matrix(0.12 0 0 -0.12 122.183 599.318)"/><path d="M204.9 583.2V77.8" class="b"/><use x="204.9" xlink:href="#me722141058" y="583.2" class="c"/><defs><path d="M12.4 8.3h16.1v55.6l-17.5-3.5v9l17.4 3.5h9.9V8.3H54.4V0H12.4z"/></defs><g transform="matrix(0.12 0 0 -0.12 193.457 599.318)"><use xlink:href="#DejaVuSans-49"/><use x="63.6" xlink:href="#DejaVuSans-48"/><use x="127.2" xlink:href="#DejaVuSans-48"/></g><path d="M283.8 583.2V77.8" class="b"/><use x="283.8" xlink:href="#me722141058" y="583.2" class="c"/><defs><path d="M19.2 8.3h34.4V0H7.3v8.3q5.6 5.8 15.3 15.6 9.7 9.8 12.2 12.6 4.7 5.3 6.6 9 1.9 3.7 1.9 7.3 0 5.8-4.1 9.5-4.1 3.7-10.6 3.7-4.6 0-9.8-1.6-5.1-1.6-11-4.9v10Q13.8 71.8 18.9 73q5.2 1.2 9.5 1.2 11.3 0 18.1-5.7 6.7-5.7 6.7-15.1 0-4.5-1.7-8.5-1.7-4-6.1-9.5-1.2-1.4-7.8-8.2-6.5-6.8-18.5-18.9z"/></defs><g transform="matrix(0.12 0 0 -0.12 272.366 599.318)"><use xlink:href="#DejaVuSans-50"/><use x="63.6" xlink:href="#DejaVuSans-48"/><use x="127.2" xlink:href="#DejaVuSans-48"/></g><path d="M362.7 583.2V77.8" class="b"/><use x="362.7" xlink:href="#me722141058" y="583.2" class="c"/><defs><path d="M40.6 39.3Q47.7 37.8 51.6 33q4-4.8 4-11.8 0-10.8-7.4-16.7-7.4-5.9-21.1-5.9-4.6 0-9.4-4.9-10 2.7v9.5q4.1-2.4 9-3.6 4.9-1.2 10.2-1.2 9.3 0 14.1 3.7 4.9 3.7 4.9 10.6 0 6.5-4.5 10.1-4.5 3.6-12.6 3.6h-8.5v8.1h8.9q7.3 0 11.1 2.9 3.9 2.9 3.9 8.4 0 5.6-4 8.6-4 3-11.4 3-4.1 0-8.7-0.9-4.6-0.9-10.2-2.7v8.8q5.6 1.6 10.5 2.3 4.9 9.3 11.2 0 17.8-5.1 6.5-5.1 6.5-13.8 0-6.1-3.5-10.2-3.5-4.2-9.9-5.8z"/></defs><g transform="matrix(0.12 0 0 -0.12 351.275 599.318)"><use xlink:href="#DejaVuSans-51"/><use x="63.6" xlink:href="#DejaVuSans-48"/><use x="127.2" xlink:href="#DejaVuSans-48"/></g><path d="M441.6 583.2V77.8" class="b"/><use x="441.6" xlink:href="#me722141058" y="583.2" class="c"/><defs><path d="M37.8 64.3L12.9 25.4h24.9zm-2.6 8.6H47.6V25.4h10.4v-8.2H47.6V0h-9.8v17.2H4.9v9.5z"/></defs><g transform="matrix(0.12 0 0 -0.12 430.184 599.318)"><use xlink:href="#DejaVuSans-52"/><use x="63.6" xlink:href="#DejaVuSans-48"/><use x="127.2" xlink:href="#DejaVuSans-48"/></g><path d="M520.5 583.2V77.8" class="b"/><use x="520.5" xlink:href="#me722141058" y="583.2" class="c"/><defs><path d="M10.8 72.9h38.7v-8.3H19.8v-17.9q2.1 4.3 1.1 2.2 4.3 12.2 0 19.3-6.7 7.1-6.7 7.1-18.1 0-11.8-7.3-18.3-7.3-6.5-20.7-6.5-4.6 0-9.4-4.7-9.8 2.3v9.9q4.4-2.4 9.1-3.6 4.7-1.2 9.9-1.2 8.5 0 13.4 4.4 4.9 4.4 4.9 12.1 0 7.6-4.9 12-4.9 4.5-13.4 4.5-4 0-7.9-0.9-3.9-0.9-8-2.7z"/></defs><g transform="matrix(0.12 0 0 -0.12 509.093 599.318)"><use xlink:href="#DejaVuSans-53"/><use x="63.6" xlink:href="#DejaVuSans-48"/><use x="127.2" xlink:href="#DejaVuSans-48"/></g><path d="M599.5 583.2V77.8" class="b"/><use x="599.5" xlink:href="#me722141058" y="583.2" class="c"/><defs><path d="M33 40.4q-6.6 0-10.5-4.5-3.9-4.5-3.9-12.4 0-7.9 3.9-12.4 3.9-4.6 10.5-4.6 6.6 0 10.5 4.6 3.9 4.6 3.9 12.4 0 7.9-3.9 12.4-3.9 4.5-10.5 4.5zm19.6 30.9v-9q-3.7 1.8-7.5 2.7-3.8-7.5-9.8 0-14.9-6.6-5.1-6.6-5.9-19.9 2.9 4.3 7.2 6.5 4.4 2.3 9.6 2.3 11 0 17.4-6.7 6.4-6.7 6.4-18.1 0-11.2-6.6-18-6.6-6.8-17.7-6.8-12.7 0-19.3 9.7-6.7 9.7-6.7 28.1 0 17.3 8.2 27.6 8.2 10.3 22 10.3 3.7 0 7.5-0.7t7.9-2.2z"/></defs><g transform="matrix(0.12 0 0 -0.12 588.002 599.318)"><use xlink:href="#DejaVuSans-54"/><use x="63.6" xlink:href="#DejaVuSans-48"/><use x="127.2" xlink:href="#DejaVuSans-48"/></g><path d="M678.4 583.2V77.8" class="b"/><use x="678.4" xlink:href="#me722141058" y="583.2" class="c"/><defs><path d="M8.2 72.9h46.9v-4.2L28.6 0H18.3L43.2 64.6H8.2z"/></defs><g transform="matrix(0.12 0 0 -0.12 666.911 599.318)"><use xlink:href="#DejaVuSans-55"/><use x="63.6" xlink:href="#DejaVuSans-48"/><use x="127.2" xlink:href="#DejaVuSans-48"/></g><path d="M757.3 583.2V77.8" class="b"/><use x="757.3" xlink:href="#me722141058" y="583.2" class="c"/><defs><path d="M31.8 34.6q-7 0-11.1-3.8-4-3.8-4-10.3 0-6.6 4-10.4Q24.8 6.4 31.8 6.4q7 0 11.1 3.8 4.1 3.8 4.1 10.3 0 6.6-4 10.3-4 3.8-11.1 3.8zm-9.9 4.2q-6.3 1.6-9.9 5.9Q8.5 49.1 8.5 55.3q0 8.7 6.2 13.8 6.2 5.1 17.1 5.1 10.9 0 17.1-5.1 6.2-5.1 6.2-13.8 0-6.2-3.5-10.6-3.5-4.3-9.8-5.9 7.1-1.7 11.1-6.5 4-4.8 4-11.8 0-10.6-6.5-16.3-6.5-5.7-18.5-5.7-12 0-18.5 5.7-6.5 5.7-6.5 16.3 0 7 4 11.8 4 4.8 11.1 6.5zM18.3 54.4q0-5.7 3.5-8.8 3.5-3.2 9.9-3.2 6.4 0 9.9 3.2 3.6 3.2 3.6 8.8 0 5.7-3.6 8.8-3.6 3.2-9.9 3.2-6.4 0-9.9-3.2-3.5-3.2-3.5-8.8z"/></defs><g transform="matrix(0.12 0 0 -0.12 745.82 599.318)"><use xlink:href="#DejaVuSans-56"/><use x="63.6" xlink:href="#DejaVuSans-48"/><use x="127.2" xlink:href="#DejaVuSans-48"/></g><defs><path d="M46.6 39.3q7.4-1.9 11.2-6.6 3.8-4.7 3.8-12 0-10.8-8.3-16.5-8.3-5.6-24.2-5.6-5.6 0-11.3-5.6-11.2 2.7v14.5q5.3-2.6 10.5-4 5.2-1.3 10.2-1.3 7.5 0 11.5 2.6 4 2.6 4 7.4 0 5-4.1 7.5Q34.7 31.5 26.7 31.5h-7.5v12.1h7.9q7.1 0 10.5 2.2 3.5 2.2 3.5 6.8 0 4.2-3.4 6.5-3.4 2.3-9.5 2.3-4.5 0-9.2-1-4.6-1-9.2-3v13.8q5.6 1.6 11 2.3 5.5 10.8 14.2 0 21.3-4.7 7.1-4.7 7.1-14 0-6.4-3.4-10.5-3.4-4.1-10-5.7z"/><path d="M46 36.5q0 13.7-2.6 19.3-2.6 5.6-8.6 5.6-6 0-8.6-5.6-2.6-5.6-2.6-19.2 0-13.8 2.6-19.5 2.6-5.7 8.6-5.7 6 0 8.6 5.7Q46 22.7 46 36.5zm18.8-0.2q0-18.1-7.8-28-7.8-9.8-22.2-9.8-14.4 0-22.2 9.8Q4.8 18.3 4.8 36.4q0 18.2 7.8 28 7.8 9.8 22.2 9.8 14.4 0 22.2-9.8 7.8-9.8 7.8-28z"/><path d="M45.6 46.7v29.3h17.6V0H45.6v7.9Q42 3.1 37.6q-4.3-2.2-10-2.2-10.1 0-16.6 8Q4.5 14.7 4.5 27.3q0 12.6 6.5 20.7Q17.5 56 27.6 56q5.7 0 10-2.3Q42 51.5 45.6 46.7zM34.1 11.3q5.6 0 8.6 4.1 3 4.1 3 11.9t-3 11.9q-3 4.1-8.6 4.1-5.6 0-8.5-4.1-3-4.1-3-11.9 0-7.8 3-11.9 3-4.1 8.5-4.1z"/><path d="M32.9 24.6q-5.5 0-8.2-1.9-2.7-1.8-2.7-5.5 0-3.3 2.2-5.2 2.2-1.9 6.2-1.9 4.9 0 8.3 3.5Q42 17.3 42 22.6v2zm26.7 6.6V0H42v8.1Q38.5 3.1 34.1q-4.4-2.3-10.7-2.3-8.5 0-13.8 5Q4.3 8.5 4.3 16.4q0 9.6 6.6 14.1 6.6 4.5 20.8 4.5H42v1.4q0 4.2-3.3 6.1-3.3 1.9-10.2 1.9-5.6 0-10.5-1.1-4.8-1.1-9-3.4v13.3q5.6 1.4 11.3 2.1Q26 56 31.7 56q14.8 0 21.4-5.8 6.6-5.8 6.6-19z"/><path d="M1.2 54.7h17.5l14.7-37.1 12.5 37.1h17.5l-23-59.9q-3.5-9.1-8.1-12.8-4.6-3.6-12.2-3.6h-10.1v11.5h5.5q4.4 0 6.5 1.4 2 1.4 3.2 5.1l0.5 1.5z"/><path d="M9.2 72.9h18.8V0H9.2z"/><path d="M63.4 33.3V0H45.8v25.5q0 7.1-0.3 9.8-0.3 2.7-1.1 4-1 1.7-2.8 2.7-1.7-4 1-5.5 0-8.6-4.2-3.1-4.2-3.1-11.7V0H8.4v54.7h17.5v-8q4 4.8 8.4 7Q38.7 56 44.1 56q9.5 0 14.4-5.8 4.9-5.8 4.9-16.9z"/><path d="M27.5 70.2V54.7h18v-12.5H27.5V19q0-3.8 1.5-5.2 1.5-1.3 6-1.3H44V0H29Q18.7 0 14.3 4.3 10 8.6 10 19v23.2H1.3v12.5h8.7v15.5z"/><path d="M63 27.5v-5H22.1q0.6-6.2 4.4-9.2 3.8-3.1 10.6-3.1 5.5 0 11.3 1.6 5.8 1.6 11.9 5V3.3Q54.2 48-0.2q-6.2-1.2-12.4-1.2-14.8 0-23.1 7.5-8.2 7.5-8.2 21.2 0 13.4 8.1 21Q20.5 56 34.6 56q12.9 0 20.6-7.8 7.7-7.7 7.7-20.7zm-18 5.8q0 5-2.9 8-2.9 3.1-7.6 3.1-5.1 0-8.2-2.9-3.2-2.9-4-8.2z"/><path d="M49 39.8q-2.3 1.1-4.6 1.6-2.3-4.6-6.7 0-10.4-4.3-3.6-4.3-3.6-12.4V0H8.4v54.7h17.5v-9q3.4 5.4 7.7 7.8Q38 56 44.1 56q0.9 0 1.9-0.1 1-0.1 3-0.3z"/><path d="M1.5 54.7H19L32.6 16.9l13.6 37.8h17.5L42.2 0H23z"/><path d="M8.4 76h17.5V0H8.4z"/><path d="M51.1 53v-13.3q-5.6 2.3-10.8 3.5-5.2 1.2-9.9 1.2-5 0-7.4-1.2-2.4-1.2-2.4-3.8 0-2.1 1.8-3.2 1.8-1.1 6.6-1.7l3.1-0.4q13.4-1.7 18.1-5.6 4.6-3.9 4.6-12.3 0-8.7-6.5-13.1-6.4-4.4-19.2-4.4-5.4 0-11.2Q12.1 6 2v13.3q5.2-2.5 10.7-3.8 5.5-1.3 11.2-1.3 5.1 0 7.7 1.4 2.6 1.4 2.6 4.2 0 2.3-1.8 3.5-1.8 1.1-7.1 1.8l-3.1q-11.7 1.5-16.4 5.4-4.7 4-4.7 12 0 8.7 6 12.9Q17.1 56 29.4 56q4.8 0 10.2-0.7 5.3-0.7 11.6-2.3z"/><path d="M10.2 18.9h17.6V4L15.7-14.2H5.3L10.2 4z"/><path d="M11.7 13h16.6V60.1L11.3 56.6V69.4l16.9 3.5h17.9V13h16.6V0H11.7z"/><path d="M36.2 36q-4.9 0-7.4-3.2-2.5-3.2-2.5-9.6 0-6.4 2.5-9.6 2.5-3.2 7.4-3.2 5 0 7.4 3.2 2.5 3.2 2.5 9.6 0 6.4-2.5 9.6-2.5 3.2-7.4 3.2zM59.4 71V57.5q-4.6 2.2-8.7 3.3-4.1 1-8 1-8.4 0-13.1-4.7-4.7-4.7-5.5-13.8 3.2 2.4 7 3.6 3.8 1.2 8.2 1.2 11.2 0 18-6.5 6.9-6.5 6.9-17.1 0-11.7-7.7-18.8-7.7-7.1-20.5-7.1-14.2 0-22 9.6-7.8 9.6-7.8 27.2 0 18.1 9.1 28.4 9.1 10.3 25 10.3 5 0 9.8-0.8 4.7-0.8 9.4-2.3z"/><path d="M6.7 72.9h54.9V62.3L33.2 0H14.9l26.9 59.1H6.7z"/><path d="M44.4 76V64.5H34.7q-3.7 0-5.2-1.3-1.5-1.3-1.5-4.7v-3.8h14.9v-12.5H28.1V0H10.6v42.2H1.9v12.5h8.7V58.5q0 8.9 5 13.2Q20.6 76 31 76z"/><path d="M8.4 54.7h17.5V0H8.4zm0 21.3h17.5V61.7H8.4z"/><path d="M34.4 43.5q-5.8 0-8.9-4.2-3-4.2-3-12 0-7.9 3-12 3-4.2 8.9-4.2 5.7 0 8.7 4.2 3 4.2 3 12 0 7.9-3 12-3 4.2-8.7 4.2zm0 12.5q14.1 0 22-7.6 7.9-7.6 7.9-21.1 0-13.5-7.9-21.1-7.9-7.6-22-7.6-14.2 0-22.1 7.6-8 7.6-8 21.1 0 13.5 8 21.1Q20.3 56 34.4 56z"/><path d="M28 58.7V14.2h6.7q11.5 0 17.6 5.7 6.1 5.7 6.1 16.6 0 10.8-6.1 16.5-6 5.7-17.6 5.7zM9.2 72.9H29q16.6 0 24.7-2.4 8.1-2.4 13.9-8 5.1-4.9 7.6-11.4 2.5-6.4 2.5-14.6 0-8.3-2.5-14.7-2.5-6.5-7.6-11.4-5.9-5.7-14.1-8Q45.4 0 29 0H9.2z"/><path d="M35.9 40.6q5.9 0 8.5 2.2 2.6 2.2 2.6 7.2 0 5-2.6 7.1-2.6 2.2-8.5 2.2h-7.9V40.6zm-7.9-13V0H9.2v72.9h28.7q14.4 0 21.1-4.8 6.7-4.8 6.7-15.3 0-7.2-3.5-11.9-3.5-4.6-10.5-6.8 3.9-0.9 6.9-4 3.1-3.1 6.2-9.4L75 0H55l-8.9 18.1q-2.7 5.5-5.5 7.5-2.7 2-7.3 2z"/><path d="M11.2 54.7h17.6V35.8H11.2zm0-35.8h17.6V0H11.2z"/><path d="M10.2 18.9h17.6V0H10.2z"/><path d="M36.8 57.4L16.2 26.9h20.6zm-3.1 15.5h20.9v-46h10.4V13.3h-10.4V0H36.8v13.3H4.5v16.1z"/><path d="M77.5 30.1q-3.5 0-5.4-3-1.9-3-1.9-8.6 0-5.6 1.9-8.6 1.9-3 5.4-3 3.5 0 5.4 3 1.9 3 1.9 8.6 0 5.6-1.9 8.6-1.9 3-5.3 3zm0 8.2q9.1 0 14.3-5.3 5.2-5.3 5.2-14.5 0-9.2-5.2-14.6-5.2-5.3-14.3-5.3-9.1 0-14.3 5.3-5.2 5.4-5.2 14.6 0 9.2 5.3 14.5 5.3 5.3 14.3 5.3zM32.7-1.4H21.9l45.6 75.6h10.8zm-10 75.6q9.1 0 14.3-5.3 5.2-5.3 5.2-14.5 0-9.2-5.2-14.5-5.2-5.3-14.3-5.3-9.1 0-14.3 5.3-5.2 5.3-5.2 14.5 0 9.2 5.2 14.5 5.2 5.3 14.3 5.3zm0-8.2q-3.5 0-5.4-3-1.9-3-1.9-8.6 0-5.6 1.9-8.7 1.9-3 5.4-3 3.5 0 5.4 3 1.9 3.1 1.9 8.7 0 5.6-1.9 8.6-1.9 3-5.4 3z"/></defs><g transform="matrix(0.18 0 0 -0.18 192.504 635.49)" class="d"><use xlink:href="#DejaVuSans-Bold-51"/><use x="69.6" xlink:href="#DejaVuSans-Bold-48"/><use x="139.2" xlink:href="#DejaVuSans-Bold-32"/><use x="174" xlink:href="#DejaVuSans-Bold-100"/><use x="245.6" xlink:href="#DejaVuSans-Bold-97"/><use x="313" xlink:href="#DejaVuSans-Bold-121"/><use x="378.2" xlink:href="#DejaVuSans-Bold-32"/><use x="413" xlink:href="#DejaVuSans-Bold-73"/><use x="450.2" xlink:href="#DejaVuSans-Bold-110"/><use x="521.4" xlink:href="#DejaVuSans-Bold-116"/><use x="569.2" xlink:href="#DejaVuSans-Bold-101"/><use x="637" xlink:href="#DejaVuSans-Bold-114"/><use x="686.3" xlink:href="#DejaVuSans-Bold-118"/><use x="751.5" xlink:href="#DejaVuSans-Bold-97"/><use x="819" xlink:href="#DejaVuSans-Bold-108"/><use x="853.3" xlink:href="#DejaVuSans-Bold-115"/><use x="912.8" xlink:href="#DejaVuSans-Bold-44"/><use x="950.8" xlink:href="#DejaVuSans-Bold-32"/><use x="985.6" xlink:href="#DejaVuSans-Bold-49"/><use x="1055.2" xlink:href="#DejaVuSans-Bold-54"/><use x="1124.8" xlink:href="#DejaVuSans-Bold-54"/><use x="1194.3" xlink:href="#DejaVuSans-Bold-44"/><use x="1232.3" xlink:href="#DejaVuSans-Bold-54"/><use x="1301.9" xlink:href="#DejaVuSans-Bold-54"/><use x="1371.5" xlink:href="#DejaVuSans-Bold-55"/><use x="1441.1" xlink:href="#DejaVuSans-Bold-32"/><use x="1475.9" xlink:href="#DejaVuSans-Bold-73"/><use x="1513.1" xlink:href="#DejaVuSans-Bold-110"/><use x="1584.3" xlink:href="#DejaVuSans-Bold-102"/><use x="1627.8" xlink:href="#DejaVuSans-Bold-108"/><use x="1662.1" xlink:href="#DejaVuSans-Bold-97"/><use x="1729.5" xlink:href="#DejaVuSans-Bold-116"/><use x="1777.3" xlink:href="#DejaVuSans-Bold-105"/><use x="1811.6" xlink:href="#DejaVuSans-Bold-111"/><use x="1880.3" xlink:href="#DejaVuSans-Bold-110"/><use x="1951.5" xlink:href="#DejaVuSans-Bold-44"/><use x="1989.5" xlink:href="#DejaVuSans-Bold-32"/><use x="2024.3" xlink:href="#DejaVuSans-Bold-97"/><use x="2091.8" xlink:href="#DejaVuSans-Bold-110"/><use x="2163" xlink:href="#DejaVuSans-Bold-100"/><use x="2234.6" xlink:href="#DejaVuSans-Bold-32"/><use x="2269.4" xlink:href="#DejaVuSans-Bold-68"/><use x="2352.4" xlink:href="#DejaVuSans-Bold-105"/><use x="2386.7" xlink:href="#DejaVuSans-Bold-115"/><use x="2446.2" xlink:href="#DejaVuSans-Bold-105"/><use x="2480.5" xlink:href="#DejaVuSans-Bold-110"/><use x="2551.7" xlink:href="#DejaVuSans-Bold-102"/><use x="2595.2" xlink:href="#DejaVuSans-Bold-108"/><use x="2629.4" xlink:href="#DejaVuSans-Bold-97"/><use x="2696.9" xlink:href="#DejaVuSans-Bold-116"/><use x="2744.7" xlink:href="#DejaVuSans-Bold-105"/><use x="2779" xlink:href="#DejaVuSans-Bold-111"/><use x="2847.7" xlink:href="#DejaVuSans-Bold-110"/><use x="2918.9" xlink:href="#DejaVuSans-Bold-32"/><use x="2953.7" xlink:href="#DejaVuSans-Bold-82"/><use x="3030.7" xlink:href="#DejaVuSans-Bold-97"/><use x="3098.2" xlink:href="#DejaVuSans-Bold-116"/><use x="3146" xlink:href="#DejaVuSans-Bold-105"/><use x="3180.3" xlink:href="#DejaVuSans-Bold-111"/><use x="3249" xlink:href="#DejaVuSans-Bold-58"/><use x="3289" xlink:href="#DejaVuSans-Bold-32"/><use x="3323.8" xlink:href="#DejaVuSans-Bold-48"/><use x="3393.4" xlink:href="#DejaVuSans-Bold-46"/><use x="3431.4" xlink:href="#DejaVuSans-Bold-52"/><use x="3500.9" xlink:href="#DejaVuSans-Bold-37"/></g><path d="M126 583.2h781.2" class="b"/><defs><path d="M0 0h-3.5" class="c"/></defs><use x="126" xlink:href="#m32495f0c46" y="583.2" class="c"/><defs><path d="M11.7 12.4h10.3V4l-8-15.6H7.7l4 15.6z"/></defs><g transform="matrix(0.12 0 0 -0.12 42.657 587.76)"><use xlink:href="#DejaVuSans-50"/><use x="63.6" xlink:href="#DejaVuSans-54"/><use x="127.2" xlink:href="#DejaVuSans-48"/><use x="190.9" xlink:href="#DejaVuSans-44"/><use x="222.7" xlink:href="#DejaVuSans-48"/><use x="286.3" xlink:href="#DejaVuSans-48"/><use x="349.9" xlink:href="#DejaVuSans-48"/><use x="413.5" xlink:href="#DejaVuSans-44"/><use x="445.3" xlink:href="#DejaVuSans-48"/><use x="508.9" xlink:href="#DejaVuSans-48"/><use x="572.6" xlink:href="#DejaVuSans-48"/></g><path d="M126 486.4h781.2" class="b"/><use x="126" xlink:href="#m32495f0c46" y="486.4" class="c"/><g transform="matrix(0.12 0 0 -0.12 42.657 490.973)"><use xlink:href="#DejaVuSans-51"/><use x="63.6" xlink:href="#DejaVuSans-48"/><use x="127.2" xlink:href="#DejaVuSans-53"/><use x="190.9" xlink:href="#DejaVuSans-44"/><use x="222.7" xlink:href="#DejaVuSans-48"/><use x="286.3" xlink:href="#DejaVuSans-48"/><use x="349.9" xlink:href="#DejaVuSans-48"/><use x="413.5" xlink:href="#DejaVuSans-44"/><use x="445.3" xlink:href="#DejaVuSans-48"/><use x="508.9" xlink:href="#DejaVuSans-48"/><use x="572.6" xlink:href="#DejaVuSans-48"/></g><path d="M126 389.6h781.2" class="b"/><use x="126" xlink:href="#m32495f0c46" y="389.6" class="c"/><g transform="matrix(0.12 0 0 -0.12 42.657 394.186)"><use xlink:href="#DejaVuSans-51"/><use x="63.6" xlink:href="#DejaVuSans-53"/><use x="127.2" xlink:href="#DejaVuSans-48"/><use x="190.9" xlink:href="#DejaVuSans-44"/><use x="222.7" xlink:href="#DejaVuSans-48"/><use x="286.3" xlink:href="#DejaVuSans-48"/><use x="349.9" xlink:href="#DejaVuSans-48"/><use x="413.5" xlink:href="#DejaVuSans-44"/><use x="445.3" xlink:href="#DejaVuSans-48"/><use x="508.9" xlink:href="#DejaVuSans-48"/><use x="572.6" xlink:href="#DejaVuSans-48"/></g><path d="M126 292.8h781.2" class="b"/><use x="126" xlink:href="#m32495f0c46" y="292.8" class="c"/><defs><path d="M11 1.5V10.5q3.7-1.8 7.5-2.7 3.8-0.9 7.5-0.9 9.8 0 14.9 6.6 5.2 6.6 5.9 20-2.8-4.2-7.2-6.5-4.3-2.2-9.6-2.2-10.9 0-17.3 6.6-6.4 6.6-6.4 18.1 0 11.2 6.6 18 6.6 6.8 17.7 6.8 12.7 0 19.3-9.7 6.7-9.7 6.7-28.1 0-17.2-8.2-27.5Q40.2-1.4 26.4-1.4q-3.7 0-7.5-3.8-7.9 2.2zM30.6 32.4q6.6 0 10.5 4.5 3.9 4.5 3.9 12.5 0 7.9-3.9 12.4-3.9 4.6-10.5 4.6-6.6 0-10.5-4.6-3.9-4.6-3.9-12.4 0-7.9 3.9-12.5 3.9-4.5 10.5-4.5z"/></defs><g transform="matrix(0.12 0 0 -0.12 42.657 297.4)"><use xlink:href="#DejaVuSans-51"/><use x="63.6" xlink:href="#DejaVuSans-57"/><use x="127.2" xlink:href="#DejaVuSans-53"/><use x="190.9" xlink:href="#DejaVuSans-44"/><use x="222.7" xlink:href="#DejaVuSans-48"/><use x="286.3" xlink:href="#DejaVuSans-48"/><use x="349.9" xlink:href="#DejaVuSans-48"/><use x="413.5" xlink:href="#DejaVuSans-44"/><use x="445.3" xlink:href="#DejaVuSans-48"/><use x="508.9" xlink:href="#DejaVuSans-48"/><use x="572.6" xlink:href="#DejaVuSans-48"/></g><path d="M126 196.1h781.2" class="b"/><use x="126" xlink:href="#m32495f0c46" y="196.1" class="c"/><g transform="matrix(0.12 0 0 -0.12 42.657 200.614)"><use xlink:href="#DejaVuSans-52"/><use x="63.6" xlink:href="#DejaVuSans-52"/><use x="127.2" xlink:href="#DejaVuSans-48"/><use x="190.9" xlink:href="#DejaVuSans-44"/><use x="222.7" xlink:href="#DejaVuSans-48"/><use x="286.3" xlink:href="#DejaVuSans-48"/><use x="349.9" xlink:href="#DejaVuSans-48"/><use x="413.5" xlink:href="#DejaVuSans-44"/><use x="445.3" xlink:href="#DejaVuSans-48"/><use x="508.9" xlink:href="#DejaVuSans-48"/><use x="572.6" xlink:href="#DejaVuSans-48"/></g><defs><path d="M-0.3 72.9h61.7v-8.3H35.5V0h-9.9v64.6H-0.3z"/><path d="M30.6 48.4q-7.2 0-11.4-5.6-4.2-5.6-4.2-15.5 0-9.8 4.2-15.5 4.2-5.6 11.5-5.6 7.2 0 11.4 5.7 4.2 5.7 4.2 15.4 0 9.7-4.2 15.4-4.2 5.7-11.4 5.7zm0 7.6q11.7 0 18.4-7.6 6.7-7.6 6.7-21.1 0-13.4-6.7-21.1-6.7-7.6-18.4-7.6-11.8 0-18.4 7.6-6.7 7.7-6.7 21.1 0 13.5 6.7 21.1Q18.8 56 30.6 56z"/><path d="M18.3 70.2V54.7h18.5v-7h-18.5V18q0-6.7 1.8-8.6 1.8-1.9 7.5-1.9h9.2V0h-9.2q-10.4 0-14.4 3.9-4 3.9-4 14.1v29.7H2.7v7h6.6V70.2z"/><path d="M34.3 27.5q-10.9 0-15.1-2.5-4.2-2.5-4.2-8.5 0-4.8 3.2-7.6 3.2-2.8 8.6-2.8 7.5 0 12 5.3 4.5 5.3 4.5 14.1v2zm17.9 3.7V0H43.2v8.3Q40.1 3.3 35.5q-4.6-2.4-11.2-2.4-8.4 0-13.4 4.7Q6 8 6 15.9q0 9.2 6.2 13.9 6.2 4.7 18.4 4.7h12.6v0.9q0 6.2-4.1 9.6-4.1 3.4-11.5 3.4-4.7 0-9.1-1.1-4.4-1.1-8.5-3.4v8.3q4.9 1.9 9.6 2.8 4.6 9 11.9 0 17.7-6.2 5.9-6.1 5.9-18.6z"/><path d="M9.4 76h9V0H9.4z"/><path d="M53.5 70.5V60.9q-5.6 2.7-10.6 4-5 1.3-9.6 1.3-8 0-12.4-3.1t-4.4-8.9q0-4.8 2.9-7.3 2.9-2.5 11-4l6-1.2q11-2.1 16.3-7.4 5.3-5.3 5.3-14.2 0-10.6-7.1-16.1-7.1-5.5-20.8-5.5-5.2 0-11 1.2Q13.1 6.9 3.2v10.2q6-3.4 11.8-5.1 5.8-1.7 11.3-1.7 8.4 0 13 3.3 4.6 3.3 4.6 9.5 0 5.4-3.3 8.4-3.3 3-10.8 4.5L27.5 33.5q-11 2.2-16 6.9-4.9 4.7-4.9 13 0 9.7 6.8 15.2 6.8 5.6 18.8 5.6 5.1 0 10.5-0.9 5.3-0.9 10.9-2.8z"/><path d="M8.5 21.6v33.1h9V21.9q0-7.8 3-11.7 3-3.9 9.1-3.9 7.3 0 11.5 4.6 4.2 4.6 4.2 12.7v31h9V0h-9v8.4Q42 3.4 37.7 1q-4.3-2.4-10-2.4-9.4 0-14.3 5.9Q8.5 10.3 8.5 21.6zM31.1 56z"/><path d="M18.1 8.2v-29H9.1v75.5h9v-8.3q2.8 4.9 7.2 7.2Q29.6 56 35.6 56q10 0 16.2-7.9 6.2-7.9 6.2-20.8T51.8 6.5q-6.2-7.9-16.2-7.9-6 0-10.3 2.4-4.3 2.4-7.2 7.3zm30.6 19.1q0 9.9-4.1 15.5-4.1 5.6-11.2 5.6-7.1 0-11.2-5.6-4.1-5.6-4.1-15.5 0-9.9 4.1-15.5 4.1-5.6 11.2-5.6 7.1 0 11.2 5.6t4.1 15.5z"/><path d="M32.2-5.1q-3.8-9.8-7.4-12.7-3.6-3-9.7-3H7.9v7.5h5.3q3.7 0 5.8 1.8Q21-9.8 23.5-3.2l1.6 4.1-22.1 53.8H12.5l17.1-42.8 17.1 42.8h9.5z"/></defs><g transform="matrix(0 -0.18 -0.18 0 31.914 386.536)" fill="green"><use xlink:href="#DejaVuSans-84"/><use x="60.8" xlink:href="#DejaVuSans-111"/><use x="122" xlink:href="#DejaVuSans-116"/><use x="161.2" xlink:href="#DejaVuSans-97"/><use x="222.5" xlink:href="#DejaVuSans-108"/><use x="250.3" xlink:href="#DejaVuSans-32"/><use x="282.1" xlink:href="#DejaVuSans-83"/><use x="345.5" xlink:href="#DejaVuSans-117"/><use x="408.9" xlink:href="#DejaVuSans-112"/><use x="472.4" xlink:href="#DejaVuSans-112"/><use x="535.9" xlink:href="#DejaVuSans-108"/><use x="563.7" xlink:href="#DejaVuSans-121"/></g><path d="M126 174.5h883" style="clip-path:url(#p0e62de996f);fill:none;stroke-dasharray:10;stroke-width:2;stroke:red"/><path d="M126 582.8l10.3-4.5 10.3-4.3 11-4.4 11-4.1 11-3.9 11.8-3.9 11.8-3.7 12.6-3.7 12.6-3.5 13.4-3.5 13.4-3.2 14.2-3.2 14.2-3 15-2.9 15.8-2.8 16.6-2.8 16.6-2.5 17.4-2.4 18.1-2.3 18.9-2.2 20.5-2.2 21.3-2 22.9-1.9 23.7-1.8 25.3-1.7 26.8-1.6 29.2-1.5 31.6-1.4 33.9-1.2 37.1-1.1 41-1 45.8-0.9 51.3-0.8 22.9-0.3h0" style="clip-path:url(#p0e62de996f);fill:none;stroke-width:3;stroke:purple"/><path d="M126 583.2V77.8" class="e"/><path d="M907.2 583.2V77.8" class="e"/><path d="M126 583.2h781.2" class="e"/><path d="M126 77.8h781.2" class="e"/><defs><path d="M9.2 72.9h23.9l16.6-39 16.7 39h23.9V0H72.5v53.3L55.7 14H43.8L27 53.3V0H9.2z"/><path d="M22.2 28L2.5 54.7H21l11.2-16.2L43.5 54.7h18.5L42.3 28.1 63 0h-18.5L32.2 17.3 20 0h-18.5z"/><path d="M59.9 70.6V55.2q-6 2.7-11.7 4-5.7 1.4-10.8 1.4-6.7 0-10-1.9-3.2-1.8-3.2-5.7 0-2.9 2.2-4.6 2.2-1.6 7.9-2.8l8-1.6q12.2-2.5 17.3-7.4 5.1-5 5.1-14.2 0-12-7.2-17.9-7.2-5.9-21.9-5.9-6.9 0-13.9 1.3Q14.8 1.2 7.8 3.8v15.9q7-3.7 13.5-5.6 6.5-1.9 12.6-1.9 6.2 0 9.4 2 3.3 2.1 3.3 5.9 0 3.4-2.2 5.3-2.2 1.9-8.9 3.3l-7.3 1.6q-10.9 2.3-16 7.5-5 5.1-5 13.8 0 10.9 7 16.8 7 5.9 20.2 5.9 6 0 12.4-0.9 6.3-0.9 13.1-2.7z"/><path d="M7.8 21.3v33.4H25.4V49.2q0-4.4 0-11.2 0-6.7 0-9 0-6.6-9.5-2.9 1.2-4.2 1.1-1.7 2.8-2.6 1.7-0.9 4-0.9 5.5 0 8.6 4.2 3.1 4.2 3.1 11.7v27h17.5V0H45.3v7.9Q41.4 3.1 36.9q-4.4-2.3-9.7-2.3-9.5 0-14.4 5.8-5 5.8-5 16.9z"/><path d="M25.9 7.9v-28.7H8.4v75.5h17.5v-8q3.6 4.8 8 7Q38.3 56 44 56q10.1 0 16.6-8 6.5-8 6.5-20.7t-6.5-20.7Q54.1-1.4 44-1.4q-5.7 0-10.1 2.3-4.4 2.3-8 7.1zM37.5 43.3q-5.6 0-8.6-4.1-3-4.1-3-11.9 0-7.8 3-11.9 3-4.1 8.6-4.1 5.6 0 8.6 4.1 3 4.1 3 11.9t-3 11.9q-3 4.1-8.6 4.1z"/><path d="M10.6 48.2h62.6v-11.5H10.6zm0-22.2h62.6V14.4H10.6z"/><path d="M10.6 72.9h46.7V59.1H25.6V47.8q2.1 4.3 2.2 4.5 13.3 0 20.8-6.7 7.4-6.7 7.4-18.6 0-11.8-8.1-18.5-8.1-6.7-22.4-6.7-6.2 0-12.3 1.2T7.7 3.4V18.2q6-3.4 11.3-5.1 5.3-1.7 10.1-1.7 6.8 0 10.8 3.3 3.9 3.3 3.9 9.1 0 5.8-3.9 9.1-3.9 3.3-10.7 3.3-4.1 0-8.7-1.1-4.6-1-9.9-3.2z"/></defs><g transform="matrix(0.144 0 0 -0.144 204.91 165.748)" class="f"><use xlink:href="#DejaVuSans-Bold-77"/><use x="99.5" xlink:href="#DejaVuSans-Bold-97"/><use x="167" xlink:href="#DejaVuSans-Bold-120"/><use x="231.5" xlink:href="#DejaVuSans-Bold-32"/><use x="266.3" xlink:href="#DejaVuSans-Bold-83"/><use x="338.3" xlink:href="#DejaVuSans-Bold-117"/><use x="409.5" xlink:href="#DejaVuSans-Bold-112"/><use x="481.1" xlink:href="#DejaVuSans-Bold-112"/><use x="552.7" xlink:href="#DejaVuSans-Bold-108"/><use x="587" xlink:href="#DejaVuSans-Bold-121"/><use x="652.1" xlink:href="#DejaVuSans-Bold-32"/><use x="687" xlink:href="#DejaVuSans-Bold-61"/><use x="770.8" xlink:href="#DejaVuSans-Bold-32"/><use x="805.6" xlink:href="#DejaVuSans-Bold-52"/><use x="875.1" xlink:href="#DejaVuSans-Bold-53"/><use x="944.7" xlink:href="#DejaVuSans-Bold-48"/><use x="1014.3" xlink:href="#DejaVuSans-Bold-44"/><use x="1052.3" xlink:href="#DejaVuSans-Bold-48"/><use x="1121.9" xlink:href="#DejaVuSans-Bold-48"/><use x="1191.5" xlink:href="#DejaVuSans-Bold-48"/><use x="1261" xlink:href="#DejaVuSans-Bold-44"/><use x="1299" xlink:href="#DejaVuSans-Bold-48"/><use x="1368.6" xlink:href="#DejaVuSans-Bold-48"/><use x="1438.2" xlink:href="#DejaVuSans-Bold-48"/></g><defs><path d="M5.4 35.9h30.7V21.7H5.4z"/><path d="M0.5 72.9h67.2V58.7H43.5V0H24.7v58.7H0.5z"/><path d="M8.4 76h17.5V34.6L46 54.7h20.3l-26.7-25.1L68.4 0H47.2L25.9 22.8V0H8.4z"/><path d="M74.7 5.4Q67.7 2 60.1q-7.6-1.7-15.6-1.7-18.2 0-28.9 10.2-10.6 10.2-10.6 27.6 0 17.6 10.8 27.7 10.8 10.1 29.7 10.1 7.3 0 13.9-1.4 6.7-1.4 12.6-4V53.7q-6.1 3.5-12.1 5.2-6 1.7-12.1 1.7-11.2 0-17.3-6.3-6.1-6.3-6.1-17.9 0-11.6 5.9-17.9 5.9-6.3 16.6-6.3 2.9 0 5.5 2.5 4.5 1.2v14.2H45.4v12.6h29.3z"/><path d="M3.5 54.7h17L29.7 17l9.2 37.7h14.6l9.2-37.3 9.2 37.3h17L74.5 0H55.4l-9.2 37.6L37 0H17.9z"/><path d="M63.4 33.3V0H45.8V25.4q0 7.2-0.3 9.9-0.3 2.7-1.1 4-1 1.7-2.8 2.7-1.7-4 1-5.5 0-8.6-4.2-3.1-4.2-3.1-11.7V0H8.4v76h17.5V46.7q4 4.8 8.4 7Q38.7 56 44.1 56q9.5 0 14.4-5.8 4.9-5.8 4.9-16.9z"/><path d="M42.5 60.6q-8.6 0-13.3-6.3-4.7-6.3-4.7-17.9 0-11.5 4.7-17.8 4.7-6.3 13.3-6.3 8.6 0 13.4 6.3 4.7 6.4 4.7 17.8 0 11.5-4.7 17.9-4.7 6.3-13.4 6.3zm0 13.6q17.6 0 27.5-10.1 10-10 10-27.8 0-17.7-10-27.7Q60.1-1.4 42.5-1.4q-17.5 0-27.5 10.1-10 10.1-10 27.7 0 17.7 10 27.8Q25 74.2 42.5 74.2z"/><path d="M59.1 45.6q3.3 5.1 7.9 7.7Q71.5 56 77 56q9.4 0 14.4-5.8 4.9-5.8 4.9-16.9V0H78.7v28.5q0 1.3 2 0 5.8-1.7 8.4-1.7 2.6-5.5 2.6-5 0-7.7-4.1-2.7-4.1-2.8-11.9V0H43.5v28.5q0 9.1-1.6 11.7-1.6 2.6-5.6 2.6-5 0-7.8-4.1-2.7-4.1-2.7-11.8V0H8.3v54.7h17.6v-8q3.2 4.6 7.4 7Q37.5 56 42.5 56q5.7 0 10-2.7 4.4-2.7 6.6-7.7z"/></defs><g transform="matrix(0.1728 0 0 -0.1728 204.91 539.206)" class="g"><use xlink:href="#DejaVuSans-Bold-45"/><use x="41.5" xlink:href="#DejaVuSans-Bold-45"/><use x="83" xlink:href="#DejaVuSans-Bold-45"/><use x="124.5" xlink:href="#DejaVuSans-Bold-45"/><use x="166" xlink:href="#DejaVuSans-Bold-45"/><use x="207.5" xlink:href="#DejaVuSans-Bold-32"/><use x="242.3" xlink:href="#DejaVuSans-Bold-32"/><use x="277.1" xlink:href="#DejaVuSans-Bold-84"/><use x="345.2" xlink:href="#DejaVuSans-Bold-111"/><use x="413.9" xlink:href="#DejaVuSans-Bold-107"/><use x="480.3" xlink:href="#DejaVuSans-Bold-101"/><use x="548.2" xlink:href="#DejaVuSans-Bold-110"/><use x="619.3" xlink:href="#DejaVuSans-Bold-32"/><use x="654.2" xlink:href="#DejaVuSans-Bold-71"/><use x="736.2" xlink:href="#DejaVuSans-Bold-114"/><use x="785.6" xlink:href="#DejaVuSans-Bold-111"/><use x="854.3" xlink:href="#DejaVuSans-Bold-119"/><use x="946.6" xlink:href="#DejaVuSans-Bold-116"/><use x="994.4" xlink:href="#DejaVuSans-Bold-104"/><use x="1065.6" xlink:href="#DejaVuSans-Bold-32"/><use x="1100.4" xlink:href="#DejaVuSans-Bold-79"/><use x="1185.5" xlink:href="#DejaVuSans-Bold-118"/><use x="1250.6" xlink:href="#DejaVuSans-Bold-101"/><use x="1318.5" xlink:href="#DejaVuSans-Bold-114"/><use x="1367.8" xlink:href="#DejaVuSans-Bold-32"/><use x="1402.6" xlink:href="#DejaVuSans-Bold-84"/><use x="1470.8" xlink:href="#DejaVuSans-Bold-105"/><use x="1505.1" xlink:href="#DejaVuSans-Bold-109"/><use x="1609.3" xlink:href="#DejaVuSans-Bold-101"/></g><defs><path d="M9.8 72.9h9.9V8.3h35.5V0H9.8z"/><path d="M9.4 54.7h9V0H9.4zm0 21.3h9v-11.4H9.4z"/><path d="M37.1 76V68.5h-8.6q-4.8 0-6.7-2-1.9-2-1.9-7v-4.8h14.8v-7H19.9V0H10.9v47.7H2.3v7h8.6V58.5q0 9.1 4.3 13.3 4.3 4.2 13.5 4.2z"/><path d="M56.2 29.6v-4.4H14.9q0.6-9.3 5.6-14.1 5-4.9 13.9-4.9 5.2 0 10 1.3 4.9 1.3 9.7 3.8v-8.5Q49.3 44.2-0.3 39.1-1.4 33.9-1.4q-13.1 0-20.7 7.6-7.6 7.6-7.6 20.6 0 13.4 7.3 21.3Q20 56 32.3 56q11 0 17.5-7.1 6.4-7.1 6.4-19.3zm-9 2.6q-0.1 7.4-4.1 11.8-4 4.4-10.7 4.4-7.5 0-12-4.2-4.5-4.2-5.2-12z"/><path d="M54.9 33V0h-9v32.7q0 7.8-3 11.6-3 3.9-9.1 3.9-7.3 0-11.5-4.6-4.2-4.6-4.2-12.6V0H9.1v54.7h9v-8.5q3.2 4.9 7.6 7.4Q30.1 56 35.8 56q9.4 0 14.3-5.8 4.8-5.8 4.8-17.2z"/><path d="M41.1 46.3q-1.5-3.3 1.3Q36 48 33.9 48q-7.6 0-11.7-5-4.1-5-4.1-14.2V0H9.1v54.7h9v-8.5q2.8 5 7.4 7.4Q30 56 36.5 56q0.9 0 2-0.1 1.1-0.1 2.5-0.4z"/><path d="M9.1 76h9V31.1l26.8 23.6H56.4l-29-25.6L57.6 0H45.9L18.1 26.7V0H9.1z"/></defs><g transform="matrix(0.3 0 0 -0.3 371.18 57.76)" class="g"><use xlink:href="#DejaVuSans-76"/><use x="55.7" xlink:href="#DejaVuSans-105"/><use x="83.5" xlink:href="#DejaVuSans-102"/><use x="118.7" xlink:href="#DejaVuSans-101"/><use x="180.2" xlink:href="#DejaVuSans-32"/><use x="212" xlink:href="#DejaVuSans-83"/><use x="275.5" xlink:href="#DejaVuSans-112"/><use x="339" xlink:href="#DejaVuSans-97"/><use x="400.2" xlink:href="#DejaVuSans-110"/><use x="463.6" xlink:href="#DejaVuSans-32"/><use x="495.4" xlink:href="#DejaVuSans-102"/><use x="530.6" xlink:href="#DejaVuSans-111"/><use x="591.8" xlink:href="#DejaVuSans-114"/><use x="632.9" xlink:href="#DejaVuSans-32"/><use x="664.7" xlink:href="#DejaVuSans-84"/><use x="725.5" xlink:href="#DejaVuSans-111"/><use x="786.7" xlink:href="#DejaVuSans-107"/><use x="844.6" xlink:href="#DejaVuSans-101"/><use x="906.1" xlink:href="#DejaVuSans-110"/></g><defs><path d="M28.8 13.8H60.9V0H7.9v13.8l26.6 23.5q3.6 3.2 5.3 6.3Q41.5 46.7 41.5 50q0 5.1-3.4 8.3-3.4 3.1-9.2 3.1-4.4 0-9.6-1.9-5.2-1.9-11.2-5.6v16q6.3 2.1 12.5 3.2 6.2 1.1 12.2 1.1 13.1 0 20.3-5.8 7.3-5.7 7.3-16.1 0-6-3.1-11.1-3.1-5.1-12.9-13.8z"/></defs><g transform="matrix(0.14 0 0 -0.14 50.4 602.64)" class="d"><use xlink:href="#DejaVuSans-Bold-32"/><use x="34.8" xlink:href="#DejaVuSans-Bold-32"/><use x="69.6" xlink:href="#DejaVuSans-Bold-32"/><use x="104.4" xlink:href="#DejaVuSans-Bold-32"/><use x="139.3" xlink:href="#DejaVuSans-Bold-32"/><use x="174.1" xlink:href="#DejaVuSans-Bold-32"/><use x="208.9" xlink:href="#DejaVuSans-Bold-32"/><use x="243.7" xlink:href="#DejaVuSans-Bold-32"/><use x="278.5" xlink:href="#DejaVuSans-Bold-32"/><use x="313.3" xlink:href="#DejaVuSans-Bold-32"/><use x="348.1" xlink:href="#DejaVuSans-Bold-32"/><use x="383" xlink:href="#DejaVuSans-Bold-32"/><use x="417.8" xlink:href="#DejaVuSans-Bold-32"/><use x="452.6" xlink:href="#DejaVuSans-Bold-32"/><use x="487.4" xlink:href="#DejaVuSans-Bold-32"/><use x="522.2" xlink:href="#DejaVuSans-Bold-73"/><use x="559.4" xlink:href="#DejaVuSans-Bold-110"/><use x="630.6" xlink:href="#DejaVuSans-Bold-105"/><use x="664.9" xlink:href="#DejaVuSans-Bold-116"/><use x="712.7" xlink:href="#DejaVuSans-Bold-105"/><use x="747" xlink:href="#DejaVuSans-Bold-97"/><use x="814.5" xlink:href="#DejaVuSans-Bold-108"/><use x="848.7" xlink:href="#DejaVuSans-Bold-32"/><use x="883.5" xlink:href="#DejaVuSans-Bold-83"/><use x="955.6" xlink:href="#DejaVuSans-Bold-117"/><use x="1026.8" xlink:href="#DejaVuSans-Bold-112"/><use x="1098.3" xlink:href="#DejaVuSans-Bold-112"/><use x="1169.9" xlink:href="#DejaVuSans-Bold-108"/><use x="1204.2" xlink:href="#DejaVuSans-Bold-121"/><use x="1269.4" xlink:href="#DejaVuSans-Bold-58"/><use x="1309.4" xlink:href="#DejaVuSans-Bold-32"/><use x="1344.2" xlink:href="#DejaVuSans-Bold-50"/><use x="1413.8" xlink:href="#DejaVuSans-Bold-54"/><use x="1483.4" xlink:href="#DejaVuSans-Bold-48"/><use x="1552.9" xlink:href="#DejaVuSans-Bold-44"/><use x="1590.9" xlink:href="#DejaVuSans-Bold-48"/><use x="1660.5" xlink:href="#DejaVuSans-Bold-48"/><use x="1730.1" xlink:href="#DejaVuSans-Bold-48"/><use x="1799.7" xlink:href="#DejaVuSans-Bold-44"/><use x="1837.6" xlink:href="#DejaVuSans-Bold-48"/><use x="1907.2" xlink:href="#DejaVuSans-Bold-48"/><use x="1976.8" xlink:href="#DejaVuSans-Bold-48"/><use x="2046.4" xlink:href="#DejaVuSans-Bold-32"/><use x="2081.2" xlink:href="#DejaVuSans-Bold-32"/><use x="2116" xlink:href="#DejaVuSans-Bold-32"/><use x="2150.8" xlink:href="#DejaVuSans-Bold-83"/><use x="2222.9" xlink:href="#DejaVuSans-Bold-116"/><use x="2270.7" xlink:href="#DejaVuSans-Bold-111"/><use x="2339.4" xlink:href="#DejaVuSans-Bold-112"/><use x="2410.9" xlink:href="#DejaVuSans-Bold-32"/><use x="2445.8" xlink:href="#DejaVuSans-Bold-73"/><use x="2483" xlink:href="#DejaVuSans-Bold-110"/><use x="2554.2" xlink:href="#DejaVuSans-Bold-102"/><use x="2597.7" xlink:href="#DejaVuSans-Bold-108"/><use x="2631.9" xlink:href="#DejaVuSans-Bold-97"/><use x="2699.4" xlink:href="#DejaVuSans-Bold-116"/><use x="2747.2" xlink:href="#DejaVuSans-Bold-105"/><use x="2781.5" xlink:href="#DejaVuSans-Bold-111"/><use x="2850.2" xlink:href="#DejaVuSans-Bold-110"/><use x="2921.4" xlink:href="#DejaVuSans-Bold-58"/><use x="2961.4" xlink:href="#DejaVuSans-Bold-32"/><use x="2996.2" xlink:href="#DejaVuSans-Bold-52"/><use x="3065.8" xlink:href="#DejaVuSans-Bold-53"/><use x="3135.4" xlink:href="#DejaVuSans-Bold-48"/><use x="3204.9" xlink:href="#DejaVuSans-Bold-44"/><use x="3242.9" xlink:href="#DejaVuSans-Bold-48"/><use x="3312.5" xlink:href="#DejaVuSans-Bold-48"/><use x="3382.1" xlink:href="#DejaVuSans-Bold-48"/><use x="3451.7" xlink:href="#DejaVuSans-Bold-44"/><use x="3489.6" xlink:href="#DejaVuSans-Bold-48"/><use x="3559.2" xlink:href="#DejaVuSans-Bold-48"/><use x="3628.8" xlink:href="#DejaVuSans-Bold-48"/></g><defs><path d="M4.9 31.4h26.3v-8H4.9z"/><path d="M11.7 12.4h10.3V0H11.7zm0 39.3h10.3v-12.4H11.7z"/><path d="M10.7 12.4H21V0H10.7z"/></defs><g transform="matrix(0.07 0 0 -0.07 10.08 635.04)" class="d"><use xlink:href="#DejaVuSans-50"/><use x="63.6" xlink:href="#DejaVuSans-48"/><use x="127.2" xlink:href="#DejaVuSans-50"/><use x="190.9" xlink:href="#DejaVuSans-48"/><use x="254.5" xlink:href="#DejaVuSans-45"/><use x="290.6" xlink:href="#DejaVuSans-48"/><use x="354.2" xlink:href="#DejaVuSans-53"/><use x="417.8" xlink:href="#DejaVuSans-45"/><use x="453.9" xlink:href="#DejaVuSans-51"/><use x="517.5" xlink:href="#DejaVuSans-49"/><use x="581.2" xlink:href="#DejaVuSans-32"/><use x="612.9" xlink:href="#DejaVuSans-50"/><use x="676.6" xlink:href="#DejaVuSans-51"/><use x="740.2" xlink:href="#DejaVuSans-58"/><use x="773.9" xlink:href="#DejaVuSans-52"/><use x="837.5" xlink:href="#DejaVuSans-57"/><use x="901.1" xlink:href="#DejaVuSans-58"/><use x="934.8" xlink:href="#DejaVuSans-50"/><use x="998.4" xlink:href="#DejaVuSans-54"/><use x="1062.1" xlink:href="#DejaVuSans-46"/><use x="1093.8" xlink:href="#DejaVuSans-57"/><use x="1157.5" xlink:href="#DejaVuSans-48"/><use x="1221.1" xlink:href="#DejaVuSans-50"/><use x="1284.7" xlink:href="#DejaVuSans-48"/><use x="1348.3" xlink:href="#DejaVuSans-57"/><use x="1412" xlink:href="#DejaVuSans-55"/></g><defs><path d="M44.3 53.1v-8.5q-3.8 2-7.9 2.9-4.1-8.5-6.7 0-10-2-3.3-2-3.3-6.2 0-3.1 2.4-4.9 2.4-1.8 9.6-3.4l3.1-0.7q9.6-2 13.6-5.8 4-3.7 4-10.4 0-7.6-6-12.1-6-4.4-16.6-4.4-4.4 0-9.2Q10.7 5.4 2v9.3q5-2.6 9.8-3.9 4.8-1.3 9.6-1.3 6.3 0 9.8 2.2 3.4 2.2 3.4 6.1 0 3.7-2.5 5.6-2.5 2-10.8 3.8l-3.1q-8.3 1.8-12.1 5.4-3.7 3.6-3.7 10 0 7.7 5.5 11.9Q16.8 56 26.8 56q5 0 9.4-0.7 4.4-0.7 8.1-2.2z"/><path d="M28.6 0L0.8 72.9h10.3l23.1-61.4 23.1 61.4h10.3L39.8 0z"/><path d="M9.8 72.9h9.9V42.1L52.4 72.9h12.7L28.9 38.9 67.7 0H54.7L19.7 35.1V0h-9.9z"/><path d="M59.5 10.4v19.6h-16.1v8.1h25.9V6.8Q63.6 2.7 56.7 49.8-1.4 42-1.4q-17.1 0-26.7 10-9.6 10-9.6 27.8 0 17.9 9.6 27.9 9.7 10 26.8 10 7.1 0 13.5-1.8 6.4-1.7 11.8-5.2v-10.5q-5.5 4.6-11.6 7-6.2 2.3-12.9 2.3-13.4 0-20.1-7.5-6.7-7.5-6.7-22.3 0-14.7 6.7-22.2 6.7-7.5 20.1-7.5 5.2 0 9.3 4.1 7.4 2.8z"/></defs><g transform="matrix(0.16 0 0 -0.16 410.436 -1931.842)" class="f"><use xlink:href="#DejaVuSans-76"/><use x="55.7" xlink:href="#DejaVuSans-105"/><use x="83.5" xlink:href="#DejaVuSans-102"/><use x="118.7" xlink:href="#DejaVuSans-101"/><use x="180.2" xlink:href="#DejaVuSans-115"/><use x="232.3" xlink:href="#DejaVuSans-112"/><use x="295.8" xlink:href="#DejaVuSans-97"/><use x="357.1" xlink:href="#DejaVuSans-110"/><use x="420.5" xlink:href="#DejaVuSans-32"/><use x="452.2" xlink:href="#DejaVuSans-102"/><use x="487.5" xlink:href="#DejaVuSans-111"/><use x="548.6" xlink:href="#DejaVuSans-114"/><use x="589.7" xlink:href="#DejaVuSans-32"/><use x="621.5" xlink:href="#DejaVuSans-84"/><use x="682.4" xlink:href="#DejaVuSans-111"/><use x="743.5" xlink:href="#DejaVuSans-107"/><use x="801.4" xlink:href="#DejaVuSans-101"/><use x="862.9" xlink:href="#DejaVuSans-110"/><use x="926.3" xlink:href="#DejaVuSans-32"/><use x="958.1" xlink:href="#DejaVuSans-86"/><use x="1026.5" xlink:href="#DejaVuSans-75"/><use x="1092.1" xlink:href="#DejaVuSans-71"/></g><defs><clipPath><path d="M126 77.8h781.2V583.2H126z"/></clipPath></defs></svg>