<?xml version="1.0" encoding="utf-8"?>
<!-- Generator: Adobe Illustrator 23.0.2, SVG Export Plug-In . SVG Version: 6.00 Build 0)  -->
<svg version="1.1" id="Layer_4" xmlns="http://www.w3.org/2000/svg" xmlns:xlink="http://www.w3.org/1999/xlink" x="0px" y="0px"
	 viewBox="0 0 549 540" style="enable-background:new 0 0 549 540;" xml:space="preserve">
<style type="text/css">
	.st0{fill:url(#SVGID_1_);}
	.st1{fill:#2CB0A0;}
	.st2{fill:#0D6574;}
	.st3{fill:#25877C;}
	.st4{fill:url(#SVGID_2_);}
	.st5{fill:#195E4B;}
	.st6{fill:#CAEBE2;}
	.st7{fill:url(#SVGID_3_);}
	.st8{fill:#55DF60;}
	.st9{fill:none;stroke:url(#SVGID_4_);stroke-miterlimit:10;}
	.st10{fill:none;stroke:url(#SVGID_5_);stroke-miterlimit:10;}
	.st11{fill:none;stroke:url(#SVGID_6_);stroke-miterlimit:10;}
	.st12{fill:none;stroke:url(#SVGID_7_);stroke-miterlimit:10;}
	.st13{fill:url(#SVGID_8_);}
	.st14{fill:none;stroke:url(#SVGID_9_);stroke-miterlimit:10;}
	.st15{fill:none;stroke:url(#SVGID_10_);stroke-miterlimit:10;}
	.st16{fill:none;stroke:url(#SVGID_11_);stroke-miterlimit:10;}
	.st17{fill:none;stroke:#25877C;stroke-miterlimit:10;}
	.st18{fill:none;stroke:#25877C;stroke-miterlimit:10;stroke-dasharray:11.8678,11.8678;}
	.st19{fill:none;stroke:#CAEBE2;stroke-miterlimit:10;}
	.st20{fill:none;stroke:#CAEBE2;stroke-miterlimit:10;stroke-dasharray:11.8859,11.8859;}
	.st21{fill:#00DA9D;}
	.st22{fill:url(#SVGID_12_);}
	.st23{opacity:0.2;fill:#FFFFFF;enable-background:new    ;}
	.st24{fill:url(#SVGID_13_);}
	.st25{fill:url(#SVGID_14_);}
	.st26{fill:url(#SVGID_15_);}
	.st27{fill:url(#SVGID_16_);}
	.st28{fill:#1D1D1D;}
	.st29{fill:url(#SVGID_17_);}
	.st30{fill:#262626;}
	.st31{fill:#51ECF8;}
	.st32{font-family:'Montserrat-Regular';}
	.st33{font-size:5.7992px;}
	.st34{fill:url(#SVGID_18_);}
</style>
<linearGradient id="SVGID_1_" gradientUnits="userSpaceOnUse" x1="33.9482" y1="34.4795" x2="524.3132" y2="34.4795" gradientTransform="matrix(6.123234e-17 1 1 -6.123234e-17 239.6745 -18.5754)">
	<stop  offset="0" style="stop-color:#EDFFEC;stop-opacity:0"/>
	<stop  offset="1" style="stop-color:#CAEBE2"/>
</linearGradient>
<path class="st0" d="M50.2,205c0,0-42.8-196,123.7-178.4c0,0,333.7-69.2,285.9,136c0,0,126.9,158.3,4.7,238.8
	c0,0-134.3,245.9-305.9-17.3C158.5,384.1-29,488,50.2,205z"/>
<g>
	<path class="st1" d="M431.8,194.9c-52.1,20.8-102.2,17.9-111.9-6.5c-9.7-24.4,24.6-61,76.6-81.8s111.9,6.5,111.9,6.5
		S483.9,174.1,431.8,194.9z"/>
	<path class="st2" d="M318.5,189c-0.3-0.8,0.1-1.6,0.8-1.9l147.5-58.9c0.8-0.3,1.6,0.1,1.9,0.8c0.3,0.8-0.1,1.6-0.8,1.9l-147.5,58.9
		C319.7,190.1,318.8,189.8,318.5,189z"/>
	<path class="st2" d="M433.5,143.1c-0.1-0.4-0.1-0.8,0-1.1l11.8-27.6c0.3-0.8,1.2-1.1,2-0.8s1.1,1.2,0.8,2l-11.8,27.6
		c-0.3,0.8-1.2,1.1-2,0.8C433.9,143.7,433.7,143.4,433.5,143.1z"/>
	<path class="st2" d="M412.4,151.5c-0.1-0.4-0.1-0.8,0-1.1c0.3-0.8,1.2-1.1,2-0.8l43.3,18.6c0.8,0.3,1.1,1.2,0.8,2
		c-0.3,0.8-1.2,1.1-2,0.8l-43.3-18.6C412.8,152.1,412.5,151.8,412.4,151.5z"/>
	<path class="st2" d="M362.8,171.3c-0.1-0.4-0.1-0.8,0-1.1c0.3-0.8,1.2-1.1,2-0.8l43.3,18.6c0.8,0.3,1.1,1.2,0.8,2
		c-0.3,0.8-1.2,1.1-2,0.8l-43.3-18.6C363.2,172,362.9,171.7,362.8,171.3z"/>
	<path class="st2" d="M378.2,165.1c-0.1-0.4-0.1-0.8,0-1.1l14.9-34.8c0.3-0.8,1.2-1.1,2-0.8s1.1,1.2,0.8,2L381,165.2
		c-0.3,0.8-1.2,1.1-2,0.8C378.6,165.8,378.4,165.5,378.2,165.1z"/>
</g>
<g>
	<path class="st3" d="M405.8,143.3c-39.6,39.6-86.8,56.7-105.4,38.2c-18.6-18.6-1.5-65.7,38.2-105.4S444,37.9,444,37.9
		S445.5,103.6,405.8,143.3z"/>
	<path class="st2" d="M299.4,182.5c-0.6-0.6-0.6-1.5,0-2.1L411.7,68.1c0.6-0.6,1.5-0.6,2.1,0s0.6,1.5,0,2.1L301.5,182.5
		C300.9,183.1,300,183.1,299.4,182.5z"/>
	<path class="st2" d="M386.9,95c-0.3-0.3-0.4-0.6-0.4-1.1v-30c0-0.8,0.7-1.5,1.5-1.5s1.5,0.7,1.5,1.5v30c0,0.8-0.7,1.5-1.5,1.5
		C387.6,95.4,387.2,95.3,386.9,95z"/>
	<path class="st2" d="M370.8,111.1c-0.3-0.3-0.4-0.6-0.4-1.1c0-0.8,0.7-1.5,1.5-1.5h47.2c0.8,0,1.5,0.7,1.5,1.5s-0.7,1.5-1.5,1.5
		h-47.2C371.5,111.5,371.1,111.3,370.8,111.1z"/>
	<path class="st2" d="M333.1,148.8c-0.3-0.3-0.4-0.6-0.4-1.1c0-0.8,0.7-1.5,1.5-1.5h47.2c0.8,0,1.5,0.7,1.5,1.5s-0.7,1.5-1.5,1.5
		h-47.2C333.7,149.3,333.3,149.1,333.1,148.8z"/>
	<path class="st2" d="M344.8,137.1c-0.3-0.3-0.4-0.6-0.4-1.1V98.1c0-0.8,0.7-1.5,1.5-1.5s1.5,0.7,1.5,1.5V136c0,0.8-0.7,1.5-1.5,1.5
		C345.5,137.5,345.1,137.4,344.8,137.1z"/>
</g>
<g>
	
		<linearGradient id="SVGID_2_" gradientUnits="userSpaceOnUse" x1="259.2" y1="414.3" x2="354.2" y2="414.3" gradientTransform="matrix(1 0 0 -1 0 540)">
		<stop  offset="1.685078e-03" style="stop-color:#00DA9D"/>
		<stop  offset="1" style="stop-color:#55DF60"/>
	</linearGradient>
	<path class="st4" d="M354.2,125.7c0,56.1-21.3,101.5-47.5,101.5s-47.5-45.5-47.5-101.5s47.5-101.5,47.5-101.5
		S354.2,69.7,354.2,125.7z"/>
	<path class="st2" d="M306.7,228.8c-0.8,0-1.5-0.7-1.5-1.5V68.4c0-0.8,0.7-1.5,1.5-1.5s1.5,0.7,1.5,1.5v158.8
		C308.2,228.1,307.5,228.8,306.7,228.8z"/>
	<path class="st2" d="M306.7,104.9c-0.4,0-0.8-0.1-1.1-0.4l-21.2-21.2c-0.6-0.6-0.6-1.5,0-2.1s1.5-0.6,2.1,0l21.2,21.2
		c0.6,0.6,0.6,1.5,0,2.1C307.5,104.8,307.1,104.9,306.7,104.9z"/>
	<path class="st2" d="M306.7,127.7c-0.4,0-0.8-0.1-1.1-0.4c-0.6-0.6-0.6-1.5,0-2.1L339,91.8c0.6-0.6,1.5-0.6,2.1,0s0.6,1.5,0,2.1
		l-33.3,33.3C307.5,127.5,307.1,127.7,306.7,127.7z"/>
	<path class="st2" d="M306.7,181.1c-0.4,0-0.8-0.1-1.1-0.4c-0.6-0.6-0.6-1.5,0-2.1l33.3-33.3c0.6-0.6,1.5-0.6,2.1,0s0.6,1.5,0,2.1
		l-33.3,33.3C307.5,180.9,307.1,181.1,306.7,181.1z"/>
	<path class="st2" d="M306.7,164.5c-0.4,0-0.8-0.1-1.1-0.4l-26.8-26.8c-0.6-0.6-0.6-1.5,0-2.1s1.5-0.6,2.1,0l26.8,26.8
		c0.6,0.6,0.6,1.5,0,2.1C307.5,164.3,307.1,164.5,306.7,164.5z"/>
</g>
<g>
	<g>
		<g>
			<path class="st5" d="M398.8,330.6H110.4c-5.5,0-10-4.5-10-10V136.5c0-5.5,4.5-10,10-10h288.4c5.5,0,10,4.5,10,10v184.1
				C408.8,326.2,404.3,330.6,398.8,330.6z"/>
			<rect x="217.9" y="330.6" class="st5" width="73.3" height="33.2"/>
			<path class="st5" d="M311.2,377.3H198c-2.9,0-5.2-2.3-5.2-5.2V369c0-2.9,2.3-5.2,5.2-5.2h113.2c2.9,0,5.2,2.3,5.2,5.2v3.1
				C316.4,375,314,377.3,311.2,377.3z"/>
			<rect x="118.3" y="138.3" class="st6" width="272.6" height="162.1"/>
			
				<linearGradient id="SVGID_3_" gradientUnits="userSpaceOnUse" x1="128.6" y1="386.25" x2="380.6" y2="386.25" gradientTransform="matrix(1 0 0 -1 0 540)">
				<stop  offset="1.685078e-03" style="stop-color:#F33502"/>
				<stop  offset="1" style="stop-color:#FFA084"/>
			</linearGradient>
			<path class="st7" d="M373.5,163H135.7c-3.9,0-7.1-3.2-7.1-7.1v-4.3c0-3.9,3.2-7.1,7.1-7.1h237.8c3.9,0,7.1,3.2,7.1,7.1v4.3
				C380.6,159.8,377.4,163,373.5,163z"/>
			<g>
				<rect x="131.3" y="179.6" class="st5" width="39.8" height="39.8"/>
				
					<rect x="163.4" y="172.7" transform="matrix(0.7071 -0.7071 0.7071 0.7071 -82.1138 171.4322)" class="st8" width="4.9" height="24.2"/>
				
					<linearGradient id="SVGID_4_" gradientUnits="userSpaceOnUse" x1="126.9" y1="336.6" x2="167.7" y2="336.6" gradientTransform="matrix(1 0 0 -1 0 540)">
					<stop  offset="1.685078e-03" style="stop-color:#00DA9D"/>
					<stop  offset="1" style="stop-color:#55DF60"/>
				</linearGradient>
				<rect x="127.4" y="183.5" class="st9" width="39.8" height="39.8"/>
			</g>
			<g>
				<rect x="200.3" y="179.6" class="st5" width="39.8" height="39.8"/>
				
					<rect x="232.4" y="172.7" transform="matrix(0.7071 -0.7071 0.7071 0.7071 -61.873 220.1908)" class="st8" width="4.9" height="24.2"/>
				
					<linearGradient id="SVGID_5_" gradientUnits="userSpaceOnUse" x1="195.8489" y1="336.6" x2="236.6489" y2="336.6" gradientTransform="matrix(1 0 0 -1 0 540)">
					<stop  offset="1.685078e-03" style="stop-color:#00DA9D"/>
					<stop  offset="1" style="stop-color:#55DF60"/>
				</linearGradient>
				<rect x="196.3" y="183.5" class="st10" width="39.8" height="39.8"/>
			</g>
			<g>
				<rect x="269.2" y="179.6" class="st5" width="39.8" height="39.8"/>
				
					<rect x="301.3" y="172.7" transform="matrix(0.7071 -0.7071 0.7071 0.7071 -41.703 268.9201)" class="st8" width="4.9" height="24.2"/>
				
					<linearGradient id="SVGID_6_" gradientUnits="userSpaceOnUse" x1="264.8" y1="336.6" x2="305.6" y2="336.6" gradientTransform="matrix(1 0 0 -1 0 540)">
					<stop  offset="1.685078e-03" style="stop-color:#00DA9D"/>
					<stop  offset="1" style="stop-color:#55DF60"/>
				</linearGradient>
				<rect x="265.3" y="183.5" class="st11" width="39.8" height="39.8"/>
			</g>
			<g>
				<rect x="338.1" y="179.6" class="st5" width="39.8" height="39.8"/>
				
					<rect x="370.2" y="172.7" transform="matrix(0.7071 -0.7071 0.7071 0.7071 -21.533 317.6494)" class="st8" width="4.9" height="24.2"/>
				
					<linearGradient id="SVGID_7_" gradientUnits="userSpaceOnUse" x1="333.7" y1="336.6" x2="374.5" y2="336.6" gradientTransform="matrix(1 0 0 -1 0 540)">
					<stop  offset="1.685078e-03" style="stop-color:#00DA9D"/>
					<stop  offset="1" style="stop-color:#55DF60"/>
				</linearGradient>
				<rect x="334.2" y="183.5" class="st12" width="39.8" height="39.8"/>
			</g>
		</g>
		<circle class="st6" cx="137.5" cy="153.7" r="6.3"/>
		<rect x="152.7" y="151.3" class="st6" width="215.5" height="4.9"/>
	</g>
	<g>
		<g>
			<g>
				<path class="st5" d="M139.7,391.3H77.3c-6.3,0-11.5-5.1-11.5-11.5V224.7c0-6.3,5.1-11.5,11.5-11.5h62.4
					c6.3,0,11.5,5.1,11.5,11.5v155.1C151.2,386.2,146.1,391.3,139.7,391.3z"/>
			</g>
			<g>
				
					<linearGradient id="SVGID_8_" gradientUnits="userSpaceOnUse" x1="108.55" y1="323.8" x2="108.55" y2="152" gradientTransform="matrix(1 0 0 -1 0 540)">
					<stop  offset="0" style="stop-color:#CAEBE2"/>
					<stop  offset="1" style="stop-color:#00DA9D"/>
				</linearGradient>
				<path class="st13" d="M139.6,216.2h-7.5c-0.7,0-1.3,0.6-1.3,1.3l0,0c0,2.8-2.3,5.1-5.1,5.1H91.4c-2.8,0-5.1-2.3-5.1-5.1l0,0
					c0-0.7-0.6-1.3-1.3-1.3h-7.5c-5,0-9,4-9,9V379c0,5,4,9,9,9h62.1c5,0,9-4,9-9V225.2C148.5,220.2,144.5,216.2,139.6,216.2z"/>
			</g>
		</g>
		<g>
			<rect x="88.6" y="334.9" class="st5" width="38.7" height="38.7"/>
			
				<rect x="119.9" y="328.2" transform="matrix(0.7071 -0.7071 0.7071 0.7071 -204.5534 186.0206)" class="st8" width="4.8" height="23.5"/>
			
				<linearGradient id="SVGID_9_" gradientUnits="userSpaceOnUse" x1="84.3" y1="181.95" x2="124" y2="181.95" gradientTransform="matrix(1 0 0 -1 0 540)">
				<stop  offset="1.685078e-03" style="stop-color:#00DA9D"/>
				<stop  offset="1" style="stop-color:#55DF60"/>
			</linearGradient>
			<rect x="84.8" y="338.7" class="st14" width="38.7" height="38.7"/>
		</g>
		<g>
			<rect x="88.6" y="283.1" class="st5" width="38.7" height="38.7"/>
			
				<rect x="119.9" y="276.5" transform="matrix(0.7071 -0.7071 0.7071 0.7071 -167.9709 170.9036)" class="st8" width="4.8" height="23.5"/>
			
				<linearGradient id="SVGID_10_" gradientUnits="userSpaceOnUse" x1="84.3" y1="233.75" x2="124" y2="233.75" gradientTransform="matrix(1 0 0 -1 0 540)">
				<stop  offset="1.685078e-03" style="stop-color:#00DA9D"/>
				<stop  offset="1" style="stop-color:#55DF60"/>
			</linearGradient>
			<rect x="84.8" y="286.9" class="st15" width="38.7" height="38.7"/>
		</g>
		<g>
			<rect x="88.6" y="231.4" class="st5" width="38.7" height="38.7"/>
			
				<rect x="119.9" y="224.7" transform="matrix(0.7071 -0.7071 0.7071 0.7071 -131.3592 155.7157)" class="st8" width="4.8" height="23.5"/>
			
				<linearGradient id="SVGID_11_" gradientUnits="userSpaceOnUse" x1="84.3" y1="285.45" x2="124" y2="285.45" gradientTransform="matrix(1 0 0 -1 0 540)">
				<stop  offset="1.685078e-03" style="stop-color:#00DA9D"/>
				<stop  offset="1" style="stop-color:#55DF60"/>
			</linearGradient>
			<rect x="84.8" y="235.2" class="st16" width="38.7" height="38.7"/>
		</g>
	</g>
</g>
<g>
	<g>
		<path class="st17" d="M244.2,354.3c0,0-1.7,1.3-4.9,3.5"/>
		<path class="st18" d="M229.6,364.6c-36.3,24.6-130.5,82.8-171.9,52.8C5.9,379.8,97.2,335,254.6,446.5
			c151.1,107.1,318.6-148,248.2-208.6"/>
		<path class="st17" d="M498,234.3c-1.6-1.1-3.4-2-5.2-2.9"/>
	</g>
</g>
<g>
	<g>
		<path class="st19" d="M282.1,199c0,0,1.7-1.3,4.9-3.5"/>
		<path class="st20" d="M296.7,188.7c36.3-24.6,130.5-82.8,171.8-52.8c51.8,37.5-39.5,82.4-196.9-29.1
			C117.6-2.4-45.3,182,98.4,295.4"/>
		<path class="st19" d="M103.1,299c1.6,1.2,3.2,2.4,4.9,3.5"/>
	</g>
</g>
<g>
	<polygon class="st5" points="440.2,352.4 334.5,399.1 334.5,303.2 440.2,256.5 	"/>
	<g>
		<circle class="st5" cx="372.7" cy="304.5" r="30.2"/>
		<circle class="st21" cx="372.7" cy="301.9" r="30.2"/>
		<circle class="st6" cx="372.7" cy="301.9" r="25"/>
		<g>
			
				<linearGradient id="SVGID_12_" gradientUnits="userSpaceOnUse" x1="362.6283" y1="238.1" x2="382.7977" y2="238.1" gradientTransform="matrix(1 0 0 -1 0 540)">
				<stop  offset="1.685078e-03" style="stop-color:#00DA9D"/>
				<stop  offset="1" style="stop-color:#55DF60"/>
			</linearGradient>
			<path class="st22" d="M372.9,318.8l-10.2-4.5v-20.8c0-1.3,1-2.2,2.2-2.2h0.6l0,0l9.6,13.4l5.1,2.9V291l-4.5-1.9V300l-2.9-3.8V285
				l9.9,4.5v19.2c0,1.3-1,2.2-2.2,2.2h-0.6l0,0l-7.4-4.5l-7.4-10.2v16.6l4.5,1.9v-7.4l2.9,3.8L372.9,318.8L372.9,318.8z"/>
		</g>
		<path class="st23" d="M372.7,276.8c-0.6,0-1.2,0-1.7,0.1l-23.2,23.2c0,0.6-0.1,1.2-0.1,1.7c0,2.5,0.4,4.9,1.1,7.2l31.1-31.1
			C377.6,277.2,375.2,276.8,372.7,276.8z"/>
		<path class="st23" d="M385.2,280.2L351,314.3c1.2,2.1,2.6,3.9,4.3,5.5l35.3-35.3C389.1,282.8,387.2,281.4,385.2,280.2z"/>
		<path class="st23" d="M365.6,325.8l31.1-31.1c-0.4-1.2-0.8-2.3-1.3-3.4l-33.2,33.2C363.2,325,364.4,325.5,365.6,325.8z"/>
	</g>
	<g>
		<circle class="st5" cx="437.2" cy="289.5" r="26.5"/>
		<circle class="st21" cx="437.2" cy="287.1" r="26.5"/>
		<circle class="st6" cx="437.2" cy="287.1" r="21.9"/>
		<g>
			
				<linearGradient id="SVGID_13_" gradientUnits="userSpaceOnUse" x1="428.3296" y1="252.9" x2="445.9855" y2="252.9" gradientTransform="matrix(1 0 0 -1 0 540)">
				<stop  offset="1.685078e-03" style="stop-color:#00DA9D"/>
				<stop  offset="1" style="stop-color:#55DF60"/>
			</linearGradient>
			<path class="st24" d="M437.3,302l-9-3.9v-18.2c0-1.1,0.8-2,2-2h0.6l0,0l8.4,11.8l4.5,2.5v-14.6l-3.9-1.7v9.5l-2.5-3.4v-9.8
				l8.7,3.9V293c0,1.1-0.8,2-2,2h-0.6l0,0l-6.4-3.9l-6.4-9v14.6l3.9,1.7V292l2.5,3.4L437.3,302L437.3,302z"/>
		</g>
		<path class="st23" d="M437.2,265.3c-0.5,0-1,0-1.5,0.1l-20.3,20.3c0,0.5-0.1,1-0.1,1.5c0,2.2,0.3,4.3,0.9,6.3l27.2-27.2
			C441.4,265.6,439.3,265.3,437.2,265.3z"/>
		<path class="st23" d="M448.1,268.2l-29.9,29.9c1,1.8,2.3,3.4,3.8,4.9l30.9-30.9C451.5,270.5,449.9,269.2,448.1,268.2z"/>
		<path class="st23" d="M430.9,308.1l27.2-27.2c-0.3-1-0.7-2-1.2-3l-29,29.1C428.9,307.4,429.9,307.8,430.9,308.1z"/>
	</g>
	<g>
		<circle class="st5" cx="404.7" cy="223.7" r="16.2"/>
		<circle class="st21" cx="404.7" cy="222.3" r="16.2"/>
		<circle class="st6" cx="404.7" cy="222.3" r="13.4"/>
		<g>
			
				<linearGradient id="SVGID_14_" gradientUnits="userSpaceOnUse" x1="399.3443" y1="317.75" x2="410.1539" y2="317.75" gradientTransform="matrix(1 0 0 -1 0 540)">
				<stop  offset="1.685078e-03" style="stop-color:#00DA9D"/>
				<stop  offset="1" style="stop-color:#55DF60"/>
			</linearGradient>
			<path class="st25" d="M404.8,231.4l-5.5-2.4v-11.2c0-0.7,0.5-1.2,1.2-1.2h0.3l0,0l5.1,7.2l2.7,1.5v-8.9l-2.4-1v5.8l-1.5-2.1v-6
				l5.3,2.4v10.3c0,0.7-0.5,1.2-1.2,1.2h-0.3l0,0l-3.9-2.4l-3.9-5.5v8.9l2.4,1v-3.9l1.5,2.1L404.8,231.4L404.8,231.4z"/>
		</g>
		<path class="st23" d="M404.7,208.9c-0.3,0-0.6,0-0.9,0l-12.4,12.4c0,0.3,0,0.6,0,0.9c0,1.3,0.2,2.6,0.6,3.8l16.7-16.7
			C407.4,209.1,406.1,208.9,404.7,208.9z"/>
		<path class="st23" d="M411.4,210.7L393.1,229c0.6,1.1,1.4,2.1,2.3,3l18.9-18.9C413.5,212.1,412.5,211.3,411.4,210.7z"/>
		<path class="st23" d="M400.9,235.2l16.7-16.7c-0.2-0.6-0.4-1.2-0.7-1.8l-17.8,17.8C399.7,234.7,400.3,235,400.9,235.2z"/>
	</g>
	<g>
		<circle class="st5" cx="461.6" cy="173.8" r="21.6"/>
		<circle class="st21" cx="461.6" cy="171.9" r="21.6"/>
		<circle class="st6" cx="461.6" cy="171.9" r="17.8"/>
		<g>
			
				<linearGradient id="SVGID_15_" gradientUnits="userSpaceOnUse" x1="454.3688" y1="368.05" x2="468.7597" y2="368.05" gradientTransform="matrix(1 0 0 -1 0 540)">
				<stop  offset="1.685078e-03" style="stop-color:#00DA9D"/>
				<stop  offset="1" style="stop-color:#55DF60"/>
			</linearGradient>
			<path class="st26" d="M461.7,184l-7.3-3.2V166c0-0.9,0.7-1.6,1.6-1.6h0.5l0,0l6.9,9.6l3.7,2.1v-11.9l-3.2-1.4v7.8l-2.1-2.7v-8
				l7.1,3.2v13.7c0,0.9-0.7,1.6-1.6,1.6h-0.5l0,0l-5.3-3.2l-5.3-7.3v11.9l3.2,1.4v-5.3l2.1,2.7L461.7,184L461.7,184z"/>
		</g>
		<path class="st23" d="M461.6,154c-0.4,0-0.8,0-1.2,0.1l-16.5,16.5c0,0.4-0.1,0.8-0.1,1.2c0,1.8,0.3,3.5,0.8,5.1l22.2-22.2
			C465.1,154.3,463.3,154,461.6,154z"/>
		<path class="st23" d="M470.5,156.4l-24.3,24.3c0.8,1.5,1.9,2.8,3.1,4l25.2-25.2C473.2,158.3,471.9,157.3,470.5,156.4z"/>
		<path class="st23" d="M456.5,189l22.2-22.2c-0.3-0.8-0.6-1.7-0.9-2.5L454,188C454.8,188.4,455.6,188.7,456.5,189z"/>
	</g>
	
		<linearGradient id="SVGID_16_" gradientUnits="userSpaceOnUse" x1="334.5" y1="188.85" x2="466.3" y2="188.85" gradientTransform="matrix(1 0 0 -1 0 540)">
		<stop  offset="1.685078e-03" style="stop-color:#00DA9D"/>
		<stop  offset="1" style="stop-color:#55DF60"/>
	</linearGradient>
	<path class="st27" d="M456.2,399.1H334.5v-95.9h131.8v85.9C466.2,394.6,461.7,399.1,456.2,399.1z"/>
	<rect x="334.5" y="303.2" class="st6" width="131.8" height="8.7"/>
	<path class="st5" d="M424.1,360.1h42.1v-17.9h-42.1c-3.8,0-6.9,3.1-6.9,6.9v4.2C417.2,357,420.3,360.1,424.1,360.1z"/>
	<circle class="st6" cx="426.4" cy="351.1" r="5.7"/>
</g>
<g>
	<rect x="301.8" y="384.7" class="st28" width="75.9" height="28.8"/>
	
		<linearGradient id="SVGID_17_" gradientUnits="userSpaceOnUse" x1="311.8" y1="140.95" x2="245" y2="140.95" gradientTransform="matrix(1 0 0 -1 0 540)">
		<stop  offset="0" style="stop-color:#CAEBE2"/>
		<stop  offset="1" style="stop-color:#00DA9D"/>
	</linearGradient>
	<path class="st29" d="M245,413.5h55.7c6.1,0,11.1-5,11.1-11.1v-6.7c0-6.1-5-11.1-11.1-11.1H245V413.5z"/>
	<polyline class="st23" points="377.7,413.5 377.7,384.7 301.8,384.7 	"/>
	<rect x="322.2" y="392.9" class="st30" width="41.3" height="12.4"/>
	<text transform="matrix(1 0 0 1 326.5703 401.8018)" class="st31 st32 st33">2000 NULS</text>
	<circle class="st28" cx="298.1" cy="399.1" r="8.9"/>
	
		<linearGradient id="SVGID_18_" gradientUnits="userSpaceOnUse" x1="290.7731" y1="140.9" x2="305.4631" y2="140.9" gradientTransform="matrix(1 0 0 -1 0 540)">
		<stop  offset="1.685078e-03" style="stop-color:#F33502"/>
		<stop  offset="1" style="stop-color:#FFA084"/>
	</linearGradient>
	<circle class="st34" cx="298.1" cy="399.1" r="7.3"/>
</g>
</svg>
