<?xml version="1.0" encoding="utf-8"?>
<!-- Generator: Adobe Illustrator 23.0.4, SVG Export Plug-In . SVG Version: 6.00 Build 0)  -->
<svg version="1.1" id="Layer_1" xmlns="http://www.w3.org/2000/svg" xmlns:xlink="http://www.w3.org/1999/xlink" x="0px" y="0px"
	 viewBox="0 0 210 230" style="enable-background:new 0 0 210 230;" xml:space="preserve">
<style type="text/css">
	.st0{fill:#FFFFFF;stroke:#1D2023;stroke-width:2;stroke-linecap:round;stroke-miterlimit:10;}
	.st1{fill:none;stroke:#7CB43D;stroke-width:2;stroke-linecap:round;stroke-miterlimit:10;}
	.st2{fill:none;stroke:#1D1D1D;stroke-width:2;stroke-linecap:round;stroke-linejoin:round;stroke-miterlimit:10;}
	.st3{fill:none;stroke:#000000;stroke-width:2;stroke-linecap:round;stroke-linejoin:round;stroke-miterlimit:10;}
	.st4{fill:url(#SVGID_1_);}
</style>
<g>
	<g>
		<g>
			<path class="st0" d="M205,161.2V68.8c0-7.1-3.8-13.7-10-17.3L115,5.3c-6.2-3.6-13.8-3.6-20,0L15,51.5C8.8,55.1,5,61.7,5,68.8
				v92.4c0,7.1,3.8,13.7,10,17.3l80,46.2c6.2,3.6,13.8,3.6,20,0l80-46.2C201.2,174.9,205,168.3,205,161.2z"/>
		</g>
	</g>
	<path class="st1" d="M95.2,184.2h18.5c1.2,0,2.2-1,2.2-2.2l0,0c0-1.2-1-2.2-2.2-2.2H59.1c-1.2,0-2.2-1-2.2-2.2l0,0
		c0-1.2,1-2.2,2.2-2.2h110.6c1.2,0,2.2-1,2.2-2.2l0,0c0-1.2-1-2.2-2.2-2.2H38.1"/>
	<g>
		<line class="st1" x1="147.8" y1="77.2" x2="147.8" y2="89.2"/>
		<line class="st1" x1="153.8" y1="83.2" x2="141.8" y2="83.2"/>
	</g>
	<g>
		<line class="st1" x1="58.1" y1="79.3" x2="58.1" y2="84.6"/>
		<line class="st1" x1="60.8" y1="82" x2="55.5" y2="82"/>
	</g>
	<g>
		<line class="st1" x1="70.6" y1="29.5" x2="70.6" y2="34.8"/>
		<line class="st1" x1="73.3" y1="32.2" x2="68" y2="32.2"/>
	</g>
	<g>
		<line class="st2" x1="133.3" y1="30.6" x2="133.3" y2="35.9"/>
		<line class="st2" x1="136" y1="33.3" x2="130.7" y2="33.3"/>
	</g>
	<g>
		<line class="st2" x1="188.9" y1="74.1" x2="188.9" y2="79.4"/>
		<line class="st2" x1="191.5" y1="76.7" x2="186.3" y2="76.7"/>
	</g>
	<g>
		<line class="st1" x1="26.7" y1="56.9" x2="26.7" y2="62.2"/>
		<line class="st1" x1="29.3" y1="59.5" x2="24.1" y2="59.5"/>
	</g>
	<circle class="st2" cx="47.7" cy="51.9" r="2.5"/>
	<circle class="st1" cx="172" cy="56" r="2.5"/>
	<g>
		<path class="st2" d="M92.6,72.7c0,0-13.4,2.3-4.7,18.7c0,0,2.6-6.3,7.8-6.3"/>
		<path class="st2" d="M117.4,72.7c0,0,13.4,2.3,4.7,18.7c0,0-2.6-6.3-7.8-6.3"/>
		<path class="st1" d="M89.9,131.4c0-3.5-2.9-6.4-6.4-6.4c-3.4,0-6.2,2.7-6.3,6c-1-0.5-2.1-0.7-3.3-0.7c-4.3,0-7.8,3.5-7.8,7.8
			c0,4.3,3.5,7.8,7.8,7.8h62.4c4.3,0,7.8-3.5,7.8-7.8c0-4.3-3.5-7.8-7.8-7.8c-1.2,0-2.3,0.3-3.3,0.7c-0.2-3.3-3-6-6.3-6
			c-3.5,0-6.4,2.9-6.4,6.4"/>
		<path class="st3" d="M121.7,61.5H161c3.3,0,6,2.7,6,6v82"/>
		<path class="st2" d="M45.9,152.5h45.2l3,3.9h21.6l3-3.9h53.6c1.7,0,3,1.4,3,3v2.5c0,1.7-1.4,3-3,3H37.6c-1.7,0-3-1.4-3-3v-2.5
			c0-1.7,1.4-3,3-3h5.3v-85c0-3.3,2.7-6,6-6h39.3"/>
		<line class="st2" x1="105" y1="92.7" x2="105" y2="133.3"/>
		<line class="st2" x1="101.3" y1="98.7" x2="101.3" y2="115.2"/>
		<line class="st2" x1="109.3" y1="104.8" x2="109.3" y2="127.3"/>
		
			<linearGradient id="SVGID_1_" gradientUnits="userSpaceOnUse" x1="92.5633" y1="-781.5502" x2="117.4367" y2="-781.5502" gradientTransform="matrix(1 0 0 -1 0 -716.8)">
			<stop  offset="1.685078e-03" style="stop-color:#00DA9D"/>
			<stop  offset="1" style="stop-color:#55DF60"/>
		</linearGradient>
		<path class="st4" d="M105,36.9L105,36.9c-24.3,30.3-5.5,55.7-5.5,55.7h5.5h5.5C110.5,92.7,129.3,67.2,105,36.9z M105,63.6
			c-2.3,0-4.3-1.9-4.3-4.3s1.9-4.3,4.3-4.3s4.3,1.9,4.3,4.3S107.3,63.6,105,63.6z"/>
	</g>
</g>
</svg>
